{"glyphs":{"0":{"ha":579,"x_min":-1,"x_max":508,"o":"m 254 914 q 345 892 300 914 q 427 819 390 869 q 486 689 464 769 q 508 492 508 608 q 492 312 508 400 q 444 154 475 224 q 368 42 413 85 q 267 -1 324 -1 q 254 1 263 -1 q 240 -1 246 -1 q 139 42 183 -1 q 63 154 94 85 q 15 312 32 224 q -1 492 -1 400 q 9 626 -1 553 q 48 763 19 699 q 126 871 76 828 q 254 914 176 914 m 394 188 q 435 329 421 250 q 449 492 449 408 q 438 619 449 554 q 405 735 428 683 q 345 821 382 788 q 254 854 308 854 q 155 815 193 854 q 95 718 117 775 q 66 599 74 661 q 58 492 58 538 q 73 327 58 406 q 113 189 88 249 q 171 94 138 129 q 240 58 204 58 q 254 56 246 58 q 267 58 263 58 q 310 72 290 58 q 347 105 331 85 q 374 147 363 125 q 394 188 386 169 z "},"1":{"ha":267,"x_min":-3,"x_max":200,"o":"m 165 914 q 193 897 183 914 q 189 865 200 879 q 184 860 188 864 q 174 849 181 856 q 148 603 157 803 q 147 43 139 404 l 147 38 q 140 16 149 25 q 118 7 131 7 q 97 15 106 7 q 88 36 88 24 l 88 42 q 84 509 81 321 q 103 797 88 697 q 69 783 88 789 q 31 776 50 778 q 9 783 18 775 q -1 804 0 792 q 6 826 -3 817 q 26 836 14 835 q 84 854 58 838 q 125 886 110 871 q 131 894 128 890 q 136 901 133 899 q 151 911 143 908 q 165 914 160 914 z "},"2":{"ha":471,"x_min":-1,"x_max":415,"o":"m 225 914 q 353 863 307 914 q 396 632 415 792 q 358 504 389 574 q 284 364 326 435 q 196 227 242 293 q 113 110 150 161 q 97 88 106 99 q 82 67 89 78 l 343 67 q 365 58 356 67 q 374 38 374 49 q 365 16 374 25 q 343 7 356 7 l 29 7 q 7 15 15 7 q -1 38 -1 26 q 1 49 -1 43 q 10 67 3 56 q 30 97 17 78 q 64 144 43 115 q 142 254 97 190 q 227 386 186 318 q 299 521 268 454 q 336 639 331 588 q 308 822 353 771 q 225 854 281 854 q 158 830 189 854 q 117 768 128 806 q 119 691 106 728 q 171 629 133 654 q 184 610 182 622 q 179 589 186 599 q 154 575 169 575 q 138 581 144 575 q 63 672 83 617 q 60 785 42 726 q 123 878 78 843 q 225 914 168 914 z "},"3":{"ha":542,"x_min":-3,"x_max":471,"o":"m 271 551 q 349 515 313 538 q 413 460 386 493 q 456 385 440 428 q 471 288 471 342 q 440 130 471 188 q 366 43 408 72 q 281 6 324 14 q 215 -1 238 -1 q 128 17 168 -1 q 59 65 88 35 q 15 132 31 94 q -1 207 -1 169 q 25 302 -3 260 q 106 372 53 344 q 119 376 113 376 q 146 360 138 376 q 148 337 151 349 q 133 319 144 325 q 58 207 58 281 q 70 154 58 181 q 103 106 82 128 q 152 72 124 85 q 215 58 181 58 q 276 66 243 58 q 340 98 310 74 q 391 167 371 122 q 411 288 411 213 q 392 380 411 342 q 344 444 374 418 q 280 484 315 469 q 211 506 244 499 q 150 515 178 513 q 110 517 122 517 q 90 526 99 517 q 81 547 81 535 q 90 568 81 560 q 110 576 99 576 q 131 578 113 576 q 177 584 150 579 q 235 600 204 589 q 291 632 265 611 q 334 683 317 653 q 351 760 351 714 q 340 810 351 792 q 314 839 329 829 q 283 851 299 849 q 256 854 267 854 q 190 828 214 854 q 161 771 167 801 q 164 732 158 751 q 190 706 169 713 q 207 690 201 701 q 208 667 213 679 q 181 647 201 647 q 169 649 174 647 q 113 699 131 663 q 101 782 94 736 q 117 829 106 806 q 149 872 129 853 q 195 902 168 890 q 256 914 222 914 q 313 905 285 914 q 363 877 342 896 q 399 829 385 858 q 413 760 413 800 q 401 685 413 718 q 371 627 390 653 q 326 583 351 601 q 271 551 300 564 z "},"4":{"ha":490,"x_min":-1,"x_max":419,"o":"m 417 660 q 416 546 417 610 q 416 415 415 482 q 417 282 417 347 q 418 164 418 217 q 419 77 418 111 q 419 38 419 43 q 411 16 419 25 q 390 7 403 7 q 369 15 378 7 q 360 36 360 24 q 359 68 360 40 q 358 140 358 96 q 356 238 357 183 q 356 353 356 293 l 29 353 q 7 361 15 353 q -1 383 -1 372 q 1 394 -1 389 q 9 410 3 400 q 26 435 15 419 q 57 478 38 451 q 122 569 85 517 q 195 678 160 622 q 257 790 231 735 q 290 889 283 846 q 301 908 292 903 q 324 914 311 914 q 344 901 336 911 q 349 879 351 892 q 315 772 342 831 q 251 655 288 714 q 176 540 215 596 q 104 442 136 485 l 83 413 l 356 413 q 356 545 356 481 q 357 661 356 610 q 366 682 357 674 q 386 690 375 690 q 408 681 399 690 q 417 660 417 672 z "},"5":{"ha":542,"x_min":-3,"x_max":471,"o":"m 258 854 q 210 689 242 760 q 156 575 179 618 q 270 552 214 571 q 372 499 326 533 q 444 413 417 465 q 471 288 471 361 q 440 130 471 188 q 366 43 408 72 q 281 6 324 14 q 215 -1 238 -1 q 128 17 168 -1 q 59 65 88 35 q 15 132 31 94 q -1 207 -1 169 q 25 302 -3 260 q 106 372 53 344 q 119 376 113 376 q 146 360 138 376 q 148 337 151 349 q 133 319 144 325 q 58 207 58 281 q 70 154 58 181 q 103 106 82 128 q 152 72 124 85 q 215 58 181 58 q 276 66 243 58 q 340 98 310 74 q 391 167 371 122 q 411 288 411 213 q 392 380 411 342 q 344 444 374 418 q 280 484 315 469 q 211 506 244 499 q 150 515 178 513 q 110 517 122 517 q 96 519 104 517 q 80 536 85 525 q 81 558 75 547 q 88 575 83 565 q 100 596 93 585 q 126 648 111 618 q 156 715 142 678 q 183 795 171 751 q 204 889 196 839 q 214 907 206 900 q 233 914 222 914 l 442 914 q 463 905 454 914 q 471 885 471 896 q 463 863 471 872 q 442 854 454 854 l 258 854 z "},"6":{"ha":551,"x_min":-8,"x_max":481,"o":"m 481 288 q 466 173 481 221 q 428 93 451 125 q 375 42 404 61 q 317 14 346 24 q 264 1 289 4 q 224 -1 239 -1 q 94 44 149 -1 q 15 174 39 90 q 1 355 -8 256 q 50 554 10 454 q 169 756 94 665 q 342 910 244 847 q 357 914 349 914 q 383 900 374 914 q 388 877 390 889 q 374 858 385 865 q 204 706 271 794 q 103 524 138 618 q 246 561 176 561 q 348 539 304 561 q 421 479 392 517 q 465 392 450 442 q 481 288 481 342 m 224 58 q 285 66 251 58 q 350 98 319 74 q 401 167 381 122 q 421 288 421 213 q 410 367 421 328 q 378 435 400 406 q 324 483 357 465 q 247 501 292 501 q 97 451 175 501 q 78 447 92 447 q 59 308 60 374 q 72 190 58 242 q 90 144 79 168 q 119 102 101 121 q 163 71 138 83 q 224 58 189 58 z "},"7":{"ha":406,"x_min":-3,"x_max":453,"o":"m 432 857 q 425 854 433 857 q 392 806 413 843 q 347 713 372 768 q 293 590 321 658 q 238 451 265 522 q 184 313 210 381 q 138 188 158 244 q 105 90 118 131 q 89 35 92 49 q 79 15 88 24 q 60 7 71 7 q 38 15 47 7 q 29 36 29 24 q 44 92 29 44 q 85 210 60 139 q 142 369 110 282 q 208 541 174 456 q 277 703 243 626 q 339 832 311 781 q 256 820 304 825 q 144 815 207 815 q 26 819 92 815 q 6 831 14 821 q -1 853 -3 840 q 9 873 0 867 q 31 879 18 879 q 143 875 92 875 q 314 888 250 875 q 399 908 378 901 q 419 914 408 914 q 438 908 431 914 q 449 890 446 901 q 432 857 453 867 z "},"8":{"ha":593,"x_min":-1,"x_max":535,"o":"m 313 528 q 383 482 349 506 q 445 430 417 458 q 494 368 474 401 q 519 292 514 335 q 467 85 535 163 q 406 37 439 54 q 342 11 372 19 q 289 1 311 3 q 263 -1 267 -1 q 69 65 140 -1 q -1 249 -1 132 q 17 344 -1 301 q 62 423 35 388 q 122 486 89 458 q 185 535 156 514 q 189 538 188 538 q 113 612 144 571 q 74 711 81 653 q 81 772 71 735 q 121 842 92 808 q 185 890 143 867 q 294 914 226 914 q 422 858 371 914 q 463 797 449 831 q 474 731 476 764 q 458 664 472 692 q 422 615 444 636 q 372 576 400 593 q 314 543 344 560 q 307 539 311 540 q 300 535 303 538 q 306 531 303 532 q 313 528 310 531 m 133 719 q 170 638 140 672 q 244 572 200 603 q 265 584 256 579 q 285 596 275 589 q 379 656 347 629 q 414 733 411 683 q 406 776 415 754 q 379 817 397 799 q 294 854 344 854 q 167 803 211 854 q 138 753 144 778 q 133 719 131 729 m 422 125 q 460 283 472 182 q 439 343 456 317 q 398 392 422 369 q 343 435 374 415 q 281 476 313 456 q 261 489 271 483 q 242 501 251 494 q 231 494 236 497 q 219 486 225 490 q 97 370 136 428 q 58 249 58 313 q 112 108 58 157 q 263 58 165 58 q 297 61 276 58 q 339 72 317 64 q 383 92 361 79 q 422 125 404 106 z "},"9":{"ha":551,"x_min":-1,"x_max":488,"o":"m 256 914 q 385 868 331 914 q 464 739 440 822 q 478 558 488 657 q 429 358 469 458 q 310 156 385 247 q 138 3 235 65 q 121 -1 129 -1 q 96 13 106 -1 q 92 35 89 24 q 106 54 94 47 q 274 208 208 119 q 376 389 340 296 q 232 351 304 351 q 131 374 175 351 q 58 434 88 396 q 14 522 29 472 q -1 625 -1 571 q 13 740 -1 692 q 51 819 28 788 q 104 870 75 851 q 162 899 133 889 q 215 911 190 908 q 256 914 240 914 m 401 465 q 420 605 419 539 q 406 722 421 671 q 388 768 400 744 q 359 810 376 792 q 316 842 342 829 q 256 854 290 854 q 194 847 228 854 q 129 815 160 839 q 78 745 99 790 q 58 625 58 700 q 69 546 58 585 q 101 477 79 507 q 155 429 122 447 q 232 411 188 411 q 382 461 306 411 q 401 465 388 465 z "},"\u0000":{"ha":0,"x_min":0,"x_max":0,"o":""},"\r":{"ha":347,"x_min":0,"x_max":0,"o":""}," ":{"ha":451,"x_min":0,"x_max":0,"o":""},"\n":{"ha":0,"x_min":0,"x_max":0,"o":""},"!":{"ha":217,"x_min":68,"x_max":146,"o":"m 107 -1 q 85 8 94 -1 q 76 29 76 17 l 76 889 q 85 910 76 901 q 107 918 94 918 q 128 910 119 918 q 136 889 136 901 l 136 29 q 128 8 136 17 q 107 -1 119 -1 m 107 -153 q 80 -140 92 -153 q 68 -108 68 -126 q 80 -76 68 -89 q 107 -62 92 -62 q 134 -76 122 -62 q 146 -108 146 -89 q 134 -140 146 -126 q 107 -153 122 -153 z "},"#":{"ha":1222,"x_min":68,"x_max":1151,"o":"m 68 306 q 77 326 68 318 q 99 335 86 335 l 346 335 q 393 458 369 397 q 442 581 417 519 l 224 581 q 203 590 211 581 q 194 610 194 599 q 203 631 194 622 q 224 640 211 640 l 467 640 q 563 852 518 761 q 639 975 608 943 q 682 996 660 996 q 702 988 693 996 q 711 967 711 979 q 704 947 711 956 q 686 938 697 939 q 659 905 675 931 q 623 840 643 879 q 580 749 603 800 q 532 640 557 699 l 864 640 q 960 852 914 761 q 1036 975 1006 943 q 1078 996 1057 996 q 1099 988 1090 996 q 1108 967 1108 979 q 1101 947 1108 956 q 1083 938 1094 939 q 1056 905 1072 931 q 1020 840 1040 879 q 977 749 1000 800 q 929 640 954 699 l 1121 640 q 1142 631 1133 640 q 1151 610 1151 622 q 1142 590 1151 599 q 1121 581 1133 581 l 904 581 q 854 459 879 521 q 806 335 829 397 l 996 335 q 1016 326 1007 335 q 1025 306 1025 318 q 1016 284 1025 293 q 996 275 1007 275 l 783 275 q 734 142 757 206 q 693 26 711 78 q 665 -61 675 -25 q 651 -111 654 -97 q 642 -131 650 -122 q 622 -139 633 -139 l 621 -139 q 600 -131 608 -139 q 592 -110 592 -122 q 601 -70 592 -103 q 627 15 610 -37 q 669 133 644 67 q 721 275 693 200 l 386 275 q 337 142 360 206 q 297 26 314 78 q 268 -61 279 -25 q 254 -111 257 -97 q 244 -131 253 -122 q 225 -139 236 -139 l 224 -139 q 203 -131 211 -139 q 194 -110 194 -122 q 203 -70 194 -103 q 230 15 213 -37 q 272 133 247 67 q 324 275 296 200 l 99 275 q 77 284 86 275 q 68 306 68 293 m 410 335 l 743 335 q 790 458 767 397 q 839 581 814 519 l 507 581 q 458 459 482 521 q 410 335 433 397 z "},"$":{"ha":711,"x_min":65,"x_max":640,"o":"m 278 426 q 281 427 281 426 q 285 428 282 428 q 304 419 293 428 l 304 489 q 242 532 272 508 q 190 585 213 556 q 155 651 168 614 q 142 735 142 688 q 185 882 142 822 q 304 969 228 942 l 304 1060 q 313 1081 304 1072 q 333 1089 321 1089 q 355 1081 346 1089 q 364 1060 364 1072 l 364 983 q 418 988 389 988 q 500 973 463 988 q 565 932 538 958 q 609 868 593 906 q 625 786 625 831 q 613 715 625 750 q 578 653 601 681 q 519 610 554 626 q 439 593 485 593 q 396 599 414 593 q 364 613 378 604 l 364 522 q 383 512 374 517 q 404 500 393 507 q 488 451 446 478 q 564 391 531 425 q 619 313 597 357 q 640 207 640 268 q 626 115 640 161 q 578 29 611 68 q 493 -37 546 -10 q 364 -72 440 -65 l 364 -118 q 355 -139 364 -131 q 333 -147 346 -147 q 313 -139 321 -147 q 304 -118 304 -131 l 304 -75 q 206 -53 249 -74 q 135 -3 164 -33 q 90 67 106 28 q 69 146 74 106 q 76 235 65 190 q 113 319 86 281 q 180 387 139 358 q 278 426 221 415 m 364 -12 q 445 8 406 -7 q 515 49 485 22 q 563 114 544 75 q 581 207 581 153 q 563 290 581 256 q 517 353 546 325 q 452 403 489 381 q 375 447 415 425 q 369 451 372 450 q 364 454 367 453 l 364 -12 m 129 151 q 143 94 132 124 q 175 42 154 65 q 228 3 196 18 q 304 -14 260 -12 l 304 376 q 289 368 299 371 q 211 337 243 360 q 160 284 179 314 q 133 219 140 254 q 129 151 126 185 m 364 839 q 425 854 390 854 q 447 846 438 854 q 456 825 456 838 q 447 803 456 813 q 425 794 438 794 q 380 776 393 794 q 364 738 367 757 l 364 717 q 382 675 367 690 q 439 653 400 653 q 496 665 472 653 q 535 695 519 676 q 558 738 550 714 q 565 786 565 763 q 524 890 565 853 q 418 926 483 926 q 364 922 389 926 l 364 839 m 304 560 l 304 717 q 303 722 304 719 q 303 726 303 724 q 304 742 303 736 l 304 904 q 228 839 256 882 q 201 735 201 796 q 231 632 201 672 q 304 560 260 592 z "},"%":{"ha":950,"x_min":68,"x_max":879,"o":"m 740 869 q 716 832 738 865 q 658 750 694 799 q 604 629 633 699 q 545 485 575 560 q 488 337 515 411 q 438 201 460 263 q 401 94 415 139 q 383 35 386 50 q 375 15 383 24 q 354 7 367 7 q 333 15 342 7 q 324 36 325 24 q 342 101 324 44 q 390 240 360 157 q 457 422 419 324 q 532 611 494 519 q 394 512 469 553 q 238 471 319 471 q 226 472 232 471 q 215 472 221 472 q 141 500 169 472 q 97 568 113 528 q 74 653 81 608 q 68 733 68 699 q 74 806 68 767 q 97 880 81 846 q 140 937 113 914 q 211 960 168 960 q 315 899 278 960 q 353 733 353 838 q 345 644 353 688 q 322 564 338 600 q 317 552 319 557 q 313 543 315 547 q 399 584 357 557 q 481 645 442 611 q 552 716 519 679 q 611 786 585 753 q 676 896 649 867 q 714 914 694 914 q 740 899 732 914 q 740 869 750 885 m 293 733 q 289 792 293 763 q 275 845 285 821 q 250 885 265 869 q 211 900 235 900 q 168 881 185 900 q 142 836 151 863 q 131 781 133 810 q 128 733 128 753 q 135 655 128 692 q 153 591 142 618 q 178 548 164 564 q 204 532 192 532 q 211 531 208 532 q 251 556 236 531 q 276 616 267 582 q 290 683 286 650 q 293 733 293 717 m 738 458 q 842 397 804 458 q 879 232 879 336 q 873 158 879 203 q 851 72 867 114 q 810 1 836 31 q 744 -29 785 -29 q 681 -15 704 -29 q 639 33 658 0 q 609 113 621 67 q 595 210 597 160 q 601 308 593 260 q 629 392 608 356 q 738 458 669 458 m 819 232 q 815 290 819 261 q 801 344 811 319 q 776 383 792 368 q 738 399 761 399 q 682 361 703 399 q 659 293 665 333 q 655 211 653 253 q 667 130 657 169 q 692 64 676 90 q 710 40 699 51 q 738 29 722 29 q 778 55 763 29 q 803 115 793 81 q 816 182 813 149 q 819 232 819 215 z "},"&":{"ha":867,"x_min":68,"x_max":796,"o":"m 778 193 q 790 183 785 190 q 796 165 796 175 q 783 141 796 146 q 756 136 771 136 q 634 25 721 71 q 403 -21 547 -21 q 308 -13 365 -21 q 197 20 250 -6 q 106 96 144 46 q 68 231 68 146 q 85 356 68 303 q 132 447 103 408 q 199 513 161 486 q 275 560 236 539 q 260 688 260 628 q 301 853 260 792 q 411 914 342 914 q 463 905 438 914 q 510 875 489 896 q 543 820 531 854 q 556 738 556 786 q 540 664 556 694 q 497 610 524 633 q 437 571 471 588 q 368 538 403 554 q 357 533 363 535 q 346 528 351 531 q 401 407 367 464 q 481 306 435 350 q 587 235 528 263 q 717 199 646 207 q 722 236 722 214 q 710 293 722 265 q 674 344 697 321 q 615 381 650 367 q 535 394 581 394 q 513 403 522 394 q 504 424 504 411 q 513 445 504 436 q 535 454 522 454 q 641 435 594 454 q 719 385 688 415 q 766 315 750 354 q 782 236 782 276 q 778 193 782 214 m 411 854 q 368 839 386 854 q 340 799 350 824 q 324 746 329 775 q 319 688 319 717 q 322 638 319 663 q 331 586 325 613 q 343 592 335 589 q 408 624 379 608 q 456 655 436 639 q 485 691 475 671 q 496 738 496 711 q 474 824 496 794 q 411 854 451 854 m 688 142 q 551 185 614 153 q 439 265 489 217 q 351 373 389 313 q 292 501 314 433 q 228 460 258 483 q 176 406 199 438 q 141 331 154 374 q 128 231 128 289 q 153 133 128 171 q 217 75 178 96 q 306 47 257 54 q 403 39 356 39 q 477 44 436 39 q 558 60 518 49 q 632 92 597 72 q 688 142 667 111 z "},"(":{"ha":390,"x_min":68,"x_max":319,"o":"m 289 900 q 217 866 247 900 q 167 776 186 832 q 138 648 147 719 q 128 503 128 576 q 140 325 128 411 q 175 169 151 239 q 224 67 197 103 q 278 31 250 31 q 299 22 290 31 q 307 0 307 13 q 299 -21 307 -12 q 278 -29 290 -29 q 188 17 226 -29 q 122 140 149 64 q 82 310 96 215 q 68 503 68 406 q 71 585 68 538 q 83 683 74 632 q 107 783 92 733 q 147 872 122 832 q 206 935 171 911 q 289 960 242 960 q 310 951 301 960 q 319 929 319 942 q 310 908 319 917 q 289 900 301 900 z "},")":{"ha":390,"x_min":68,"x_max":319,"o":"m 110 960 q 200 913 161 960 q 265 790 239 865 q 306 619 292 714 q 319 426 319 524 q 317 344 319 392 q 306 247 314 297 q 282 147 297 196 q 242 58 267 97 q 182 -5 217 19 q 99 -29 147 -29 q 77 -21 86 -29 q 68 0 68 -12 q 77 22 68 13 q 99 31 86 31 q 170 65 140 31 q 220 154 200 99 q 249 281 240 210 q 258 426 258 353 q 247 605 258 518 q 211 760 235 692 q 163 863 190 826 q 110 900 136 900 q 88 908 97 900 q 79 929 79 917 q 88 951 79 942 q 110 960 97 960 z "},"*":{"ha":426,"x_min":65,"x_max":358,"o":"m 342 661 q 356 643 353 654 q 351 621 358 632 q 326 606 343 606 q 311 610 318 606 l 243 651 l 243 571 q 234 551 243 560 q 214 542 225 542 l 213 542 q 192 550 201 542 q 183 571 183 558 l 182 650 l 117 607 q 100 603 108 603 q 75 617 85 603 q 70 640 68 628 q 83 658 72 651 l 156 703 l 82 747 q 68 765 71 754 q 72 788 65 776 q 99 803 81 803 q 114 799 106 803 l 182 757 l 181 838 q 190 858 181 849 q 211 867 199 867 q 233 858 224 867 q 242 838 242 850 l 242 758 l 308 801 q 324 806 315 806 q 350 792 340 806 q 354 769 357 781 q 340 750 351 757 l 269 706 l 342 661 z "},"+":{"ha":686,"x_min":68,"x_max":615,"o":"m 68 457 q 77 477 68 468 q 99 486 86 486 l 313 486 l 313 700 q 321 722 313 713 q 342 731 329 731 q 363 722 354 731 q 372 700 372 713 l 372 486 l 586 486 q 607 477 599 486 q 615 457 615 468 q 607 435 615 444 q 586 426 599 426 l 372 426 l 372 213 q 363 191 372 200 q 342 182 354 182 q 321 191 329 182 q 313 213 313 200 l 313 426 l 99 426 q 77 435 86 426 q 68 457 68 444 z "},",":{"ha":217,"x_min":68,"x_max":146,"o":"m 107 44 q 134 32 122 44 q 146 0 146 19 q 145 -6 146 -3 q 144 -12 144 -10 l 140 -21 q 126 -51 136 -36 q 97 -65 117 -65 q 92 -58 93 -65 q 94 -42 92 -51 q 68 0 68 -32 q 80 32 68 19 q 107 44 92 44 z "},"-":{"ha":574,"x_min":68,"x_max":503,"o":"m 479 486 q 496 477 489 486 q 503 457 503 468 q 496 435 503 444 q 479 426 489 426 l 92 426 q 75 435 82 426 q 68 457 68 444 q 75 477 68 468 q 92 486 82 486 l 479 486 z "},".":{"ha":217,"x_min":68,"x_max":146,"o":"m 107 -44 q 80 -32 92 -44 q 68 0 68 -19 q 80 32 68 19 q 107 44 92 44 q 134 32 122 44 q 146 0 146 19 q 134 -32 146 -19 q 107 -44 122 -44 z "},"/":{"ha":657,"x_min":68,"x_max":586,"o":"m 556 996 q 577 988 568 996 q 586 967 586 979 q 560 938 586 940 q 519 881 544 928 q 460 765 493 835 q 392 608 428 694 q 319 429 356 521 q 250 249 283 338 q 191 85 217 160 q 148 -41 165 11 q 128 -111 131 -93 q 118 -131 126 -122 q 99 -139 110 -139 q 77 -131 86 -139 q 68 -110 68 -122 q 82 -56 68 -101 q 120 61 96 -10 q 177 220 144 132 q 246 403 210 308 q 320 590 282 497 q 394 760 358 682 q 460 895 429 838 q 514 975 492 953 q 556 996 535 996 z "},":":{"ha":217,"x_min":68,"x_max":146,"o":"m 107 233 q 80 247 92 233 q 68 279 68 260 q 80 310 68 297 q 107 324 92 324 q 134 310 122 324 q 146 279 146 297 q 134 247 146 260 q 107 233 122 233 m 107 0 q 80 13 92 0 q 68 46 68 26 q 80 77 68 64 q 107 90 92 90 q 134 77 122 90 q 146 46 146 64 q 134 13 146 26 q 107 0 122 0 z "},";":{"ha":217,"x_min":68,"x_max":146,"o":"m 107 228 q 80 241 92 228 q 68 274 68 254 q 80 305 68 292 q 107 318 92 318 q 134 305 122 318 q 146 274 146 292 q 134 241 146 254 q 107 228 122 228 m 107 85 q 134 72 122 85 q 146 40 146 58 q 132 -8 146 10 q 97 -26 118 -26 q 92 -19 93 -26 q 94 -3 92 -12 q 76 14 83 3 q 68 40 68 25 q 80 72 68 58 q 107 85 92 85 z "},"<":{"ha":457,"x_min":68,"x_max":388,"o":"m 381 539 q 386 517 388 529 q 374 497 385 504 l 151 335 l 325 228 q 339 209 336 221 q 335 186 342 197 q 310 172 325 172 q 294 176 301 172 l 82 307 q 68 332 68 317 q 81 357 68 349 l 339 546 q 356 551 346 551 q 381 539 372 551 z "},"=":{"ha":469,"x_min":68,"x_max":399,"o":"m 368 333 q 390 324 381 333 q 399 303 399 315 q 390 283 399 292 q 368 274 381 274 l 99 274 q 77 283 86 274 q 68 303 68 292 q 77 324 68 315 q 99 333 86 333 l 368 333 m 99 446 q 77 455 86 446 q 68 476 68 464 q 77 497 68 489 q 99 506 86 506 l 368 506 q 390 497 381 506 q 399 476 399 489 q 390 455 399 464 q 368 446 381 446 l 99 446 z "},">":{"ha":457,"x_min":71,"x_max":390,"o":"m 78 189 q 72 211 71 199 q 85 231 74 224 l 307 393 l 133 500 q 119 519 122 507 q 124 542 117 531 q 149 556 133 556 q 164 551 158 556 l 376 421 q 390 396 390 411 q 378 371 390 379 l 119 182 q 103 176 113 176 q 78 189 86 176 z "},"?":{"ha":488,"x_min":58,"x_max":432,"o":"m 369 863 q 413 632 432 792 q 368 471 401 553 q 299 308 335 389 q 234 160 263 231 q 206 38 206 90 q 197 16 206 25 q 176 7 189 7 q 155 16 164 7 q 146 38 146 25 q 176 176 146 101 q 244 333 206 251 q 312 489 281 411 q 353 639 343 567 q 324 822 369 772 q 240 854 297 854 q 174 830 204 854 q 133 768 144 806 q 135 691 121 728 q 188 629 150 654 q 201 610 199 622 q 196 589 203 599 q 171 575 186 575 q 154 581 161 575 q 79 672 100 617 q 76 785 58 726 q 139 878 93 843 q 240 914 185 914 q 369 863 324 914 m 178 -153 q 151 -140 163 -153 q 139 -108 139 -126 q 151 -76 139 -89 q 178 -62 163 -62 q 206 -76 194 -62 q 217 -108 217 -89 q 206 -140 217 -126 q 178 -153 194 -153 z "},"@":{"ha":1086,"x_min":68,"x_max":1015,"o":"m 574 935 q 903 832 792 935 q 1015 528 1015 729 q 999 409 1015 469 q 953 299 982 349 q 886 217 925 249 q 803 186 847 186 q 764 192 785 186 q 722 215 743 199 q 679 262 700 232 q 639 338 658 292 q 585 226 624 267 q 493 186 546 186 q 379 239 422 186 q 336 379 336 292 q 349 473 336 426 q 388 557 363 519 q 447 617 413 594 q 524 640 482 640 q 577 628 556 640 q 614 597 599 617 q 621 599 615 599 q 642 590 633 599 q 651 569 651 582 q 661 479 651 535 q 690 372 671 424 q 738 283 710 321 q 803 246 765 246 q 852 268 825 246 q 902 328 879 290 q 940 418 925 367 q 956 528 956 469 q 574 875 956 875 q 401 840 482 875 q 259 745 319 806 q 163 603 199 685 q 128 431 128 522 q 163 258 128 339 q 259 116 199 176 q 401 20 319 56 q 574 -15 482 -15 q 594 -24 586 -15 q 603 -44 603 -32 q 594 -66 603 -57 q 574 -75 586 -75 q 377 -35 469 -75 q 216 73 285 4 q 108 234 147 142 q 68 431 68 326 q 108 626 68 535 q 216 787 147 718 q 377 895 285 856 q 574 935 469 935 m 589 432 q 604 457 589 447 q 601 471 603 464 q 599 485 600 478 q 590 503 590 493 q 588 518 590 506 q 578 544 585 531 q 558 569 571 558 q 524 581 544 581 q 474 563 497 581 q 433 515 450 544 q 406 451 415 486 q 396 379 396 415 q 422 281 396 317 q 493 246 449 246 q 562 298 535 246 q 589 432 589 350 z "},"A":{"ha":917,"x_min":-1,"x_max":924,"o":"m 894 600 q 915 590 906 599 q 924 569 924 582 q 915 549 924 557 q 893 540 906 540 q 855 525 875 540 q 815 482 835 510 l 815 478 q 815 421 815 454 q 815 349 815 388 q 812 271 814 311 q 807 193 810 231 q 776 30 797 79 q 718 -19 756 -19 q 678 -6 693 -19 q 656 27 664 7 q 647 69 649 47 q 644 110 644 92 q 652 196 644 146 q 674 299 660 246 q 708 404 688 351 q 756 499 729 457 l 756 542 l 394 547 q 357 275 368 411 q 346 0 346 139 l 346 -1 q 317 -32 343 -32 q 301 -28 310 -32 q 286 0 286 -19 q 286 17 286 6 q 286 44 286 29 q 287 72 286 58 q 288 96 288 86 q 289 193 288 136 q 291 303 290 250 q 292 397 292 357 q 292 444 292 438 q 292 493 292 468 q 293 544 292 518 l 293 579 q 294 668 294 624 q 288 751 293 713 q 273 822 283 790 q 243 872 263 854 q 182 896 221 896 q 126 885 150 896 q 88 857 103 875 q 65 817 72 839 q 58 772 58 796 q 103 667 58 706 q 213 629 149 629 q 233 620 225 629 q 242 600 242 611 q 233 578 242 588 q 213 569 225 569 q 129 584 168 569 q 61 625 90 599 q 15 689 32 651 q -1 772 -1 726 q 10 840 -1 807 q 45 898 22 872 q 102 940 68 924 q 182 956 136 956 q 277 924 243 956 q 328 844 311 892 q 350 742 346 796 q 354 642 354 688 q 596 988 436 988 q 743 888 688 988 q 813 601 799 788 l 894 600 m 751 601 q 700 841 740 756 q 596 926 660 926 q 490 844 538 926 q 407 607 442 763 l 751 601 m 717 42 q 728 65 722 49 q 739 118 733 82 q 749 213 744 154 q 754 360 753 271 q 733 293 744 329 q 705 122 704 189 q 717 42 706 54 z "},"B":{"ha":869,"x_min":-1,"x_max":807,"o":"m 244 543 q 135 563 181 546 q 58 607 89 581 q 13 667 28 633 q -1 735 -1 700 q 83 913 -1 850 q 322 978 167 975 q 441 958 386 978 q 537 903 496 939 q 601 815 578 867 q 625 696 625 763 q 612 575 625 633 q 558 468 599 517 q 652 459 608 468 q 725 429 696 450 q 790 335 774 396 q 788 211 807 274 q 764 158 781 189 q 715 95 747 128 q 630 31 682 63 q 501 -26 578 0 q 317 -67 424 -51 q 71 -82 211 -82 q 49 -73 58 -82 q 40 -51 40 -64 q 49 -31 40 -40 q 71 -22 58 -22 q 156 -20 115 -22 q 236 -15 196 -18 q 232 -1 232 -10 q 232 29 232 4 q 233 90 232 54 q 234 165 233 125 q 235 243 235 206 q 236 298 236 271 q 236 349 236 325 q 206 347 221 347 q 175 346 190 346 q 149 353 158 346 q 140 371 140 361 q 146 391 139 381 q 167 406 153 401 q 192 413 174 408 q 238 424 210 417 l 238 444 q 240 495 238 471 q 244 543 242 519 m 58 735 q 70 688 58 711 q 107 645 82 664 q 169 615 132 626 q 258 601 207 603 q 283 667 267 629 q 322 740 299 706 q 376 799 346 775 q 442 822 406 822 q 463 814 454 822 q 471 793 471 806 q 463 772 471 781 q 442 763 454 763 q 394 735 419 763 q 358 687 376 717 q 326 619 340 657 q 305 538 313 582 q 297 446 297 494 l 297 438 q 375 453 333 446 q 460 464 417 460 q 520 517 499 488 q 551 577 542 546 q 563 639 561 608 q 564 696 564 669 q 546 790 564 749 q 495 859 528 831 q 419 903 463 888 q 325 918 375 918 q 241 911 288 918 q 154 885 194 904 q 86 829 114 865 q 58 735 58 793 m 290 -10 q 587 76 472 14 q 731 229 701 138 q 732 322 747 282 q 690 381 717 361 q 632 402 668 396 q 553 408 596 408 q 517 408 535 408 q 479 406 499 407 q 297 353 408 367 q 292 176 293 265 q 292 0 292 88 q 290 -10 292 -7 z "},"C":{"ha":561,"x_min":-1,"x_max":629,"o":"m 424 957 q 515 940 476 957 q 579 897 554 924 q 617 837 604 871 q 629 769 629 803 q 606 671 629 714 q 543 599 582 628 q 455 556 504 571 q 356 542 406 542 q 335 551 343 542 q 326 572 326 560 q 335 593 326 585 q 356 601 343 601 q 431 612 393 601 q 500 643 469 622 q 550 695 531 664 q 569 769 569 726 q 560 816 569 793 q 534 856 551 839 q 489 885 517 874 q 424 896 461 896 q 292 872 349 896 q 196 808 236 847 q 129 719 156 768 q 87 621 103 669 q 65 528 71 572 q 58 457 58 485 q 74 290 58 375 q 131 136 89 206 q 246 22 172 67 q 438 -22 319 -22 q 458 -31 450 -22 q 467 -51 467 -40 q 458 -73 467 -64 q 438 -82 450 -82 q 111 56 224 -82 q -1 457 -1 194 q 6 539 -1 489 q 32 644 14 589 q 81 756 50 700 q 160 856 113 811 q 272 929 207 901 q 424 957 338 957 z "},"D":{"ha":700,"x_min":-1,"x_max":629,"o":"m 204 957 q 356 929 292 957 q 468 856 421 901 q 547 756 515 811 q 596 644 578 700 q 622 539 614 589 q 629 457 629 489 q 517 56 629 194 q 190 -82 404 -82 q 169 -73 178 -82 q 160 -51 160 -64 q 169 -31 160 -40 q 190 -22 178 -22 q 381 22 307 -22 q 497 136 456 67 q 554 290 539 206 q 569 457 569 375 q 563 529 569 486 q 541 621 557 572 q 499 719 525 669 q 431 808 472 768 q 334 872 390 847 q 204 896 278 896 q 139 885 167 896 q 94 856 111 874 q 67 816 76 839 q 58 769 58 793 q 72 708 58 738 q 110 657 85 679 q 132 639 119 647 q 157 695 140 664 q 195 755 174 726 q 244 803 217 783 q 303 822 272 822 q 324 814 315 822 q 333 793 333 806 q 324 772 333 781 q 303 763 315 763 q 266 744 285 763 q 231 702 247 726 q 203 653 215 678 q 186 614 192 628 q 271 601 226 601 q 292 593 283 601 q 301 572 301 585 q 292 551 301 560 q 271 542 283 542 q 217 545 242 542 q 171 556 192 549 q 162 503 164 531 q 160 446 160 475 q 160 422 160 440 q 159 375 160 403 q 158 313 158 347 q 157 243 157 279 q 156 169 157 210 q 155 92 156 128 q 154 31 154 57 q 154 0 154 4 q 145 -22 154 -12 q 124 -31 136 -31 q 103 -22 111 -31 q 93 -1 94 -14 q 93 29 93 4 q 94 90 93 54 q 95 165 94 125 q 97 243 96 206 q 98 311 97 278 q 99 373 99 344 q 100 420 100 401 q 100 444 100 439 q 103 515 99 481 q 114 579 107 549 q 30 658 61 611 q -1 769 -1 706 q 11 837 -1 803 q 49 897 24 871 q 113 940 74 924 q 204 957 151 957 z "},"E":{"ha":517,"x_min":-7,"x_max":538,"o":"m 51 397 q 192 524 107 481 q 146 594 163 553 q 129 683 129 636 q 149 792 129 742 q 203 878 168 842 q 286 936 238 915 q 394 957 335 957 q 457 946 431 957 q 501 916 483 935 q 528 873 519 897 q 538 824 538 849 q 522 756 538 786 q 479 706 506 726 q 419 676 453 686 q 350 665 385 665 q 328 674 338 665 q 319 696 319 683 q 328 717 319 708 q 350 725 338 725 q 449 758 411 725 q 478 824 478 788 q 459 872 478 849 q 394 896 440 896 q 309 881 344 896 q 251 842 274 865 q 215 791 228 818 q 197 740 203 764 q 190 700 192 717 q 189 683 189 683 q 206 605 189 640 q 256 550 224 569 q 388 571 318 571 q 413 570 400 571 q 438 568 425 569 l 442 568 q 447 565 447 568 q 450 564 450 565 q 453 563 451 564 q 456 561 454 561 q 456 560 456 560 q 457 558 457 560 l 460 556 q 463 551 461 553 l 463 549 q 464 546 464 547 l 464 543 q 465 540 465 542 l 465 536 l 464 535 l 464 532 q 463 529 464 529 q 461 525 463 526 l 461 524 l 458 521 q 454 517 457 517 q 386 482 419 493 q 321 471 353 471 q 250 485 282 471 q 167 435 204 465 q 103 364 129 406 q 58 238 63 304 q 86 117 54 171 q 151 44 111 71 q 238 1 192 17 q 335 -18 285 -14 q 433 -22 386 -22 q 455 -31 446 -22 q 465 -51 464 -39 q 457 -73 465 -64 q 436 -82 449 -82 l 407 -82 q 252 -65 317 -82 q 144 -22 188 -47 q 74 33 100 4 q 33 86 47 63 q -2 240 -7 157 q 51 397 3 322 z "},"F":{"ha":399,"x_min":-1,"x_max":738,"o":"m 29 454 l 133 454 q 133 479 133 469 q 133 497 133 489 q 134 515 133 506 q 135 539 135 525 q 136 684 138 617 q 115 804 135 751 q 74 753 89 783 q 58 679 58 724 q 49 658 58 667 q 29 649 40 649 q 8 658 17 649 q -1 679 -1 667 q 86 858 -1 794 q 81 865 83 861 q 75 871 78 868 q 67 894 67 881 q 76 914 68 907 q 97 922 85 922 q 119 913 111 922 q 129 901 125 907 q 139 888 133 894 q 222 912 175 903 q 322 921 268 921 q 431 916 378 921 q 539 899 485 911 q 594 888 568 892 q 647 883 619 883 q 672 885 660 883 q 700 889 685 886 q 723 884 714 889 q 735 864 732 879 q 730 842 738 853 q 711 829 722 832 q 679 825 694 826 q 649 824 664 824 q 588 828 617 824 q 528 840 560 833 q 446 854 490 847 q 339 861 401 861 q 251 856 294 861 q 167 835 207 851 q 195 695 193 771 q 194 538 197 619 q 194 514 194 524 q 194 496 194 504 q 193 478 193 488 q 193 454 193 469 l 336 454 q 358 445 349 454 q 367 424 367 436 q 358 403 367 411 q 336 394 349 394 l 193 394 q 189 197 190 296 q 188 0 188 99 q 179 -22 188 -12 q 158 -31 171 -31 l 157 -31 q 136 -22 144 -31 q 128 -1 128 -14 q 128 29 128 4 q 128 90 128 54 q 130 165 129 125 q 131 243 131 206 q 131 324 131 285 q 133 394 132 364 l 29 394 q 8 403 17 394 q -1 424 -1 411 q 8 445 -1 436 q 29 454 17 454 z "},"G":{"ha":776,"x_min":-1,"x_max":708,"o":"m 510 479 q 606 450 563 479 q 672 369 649 421 q 704 203 708 289 q 685 103 703 151 q 635 16 668 54 q 553 -46 601 -22 q 438 -69 504 -69 q 285 -50 363 -69 q 143 23 207 -31 q 39 171 79 76 q -1 417 -1 265 q 6 499 -1 449 q 32 604 14 549 q 81 715 50 660 q 160 816 113 771 q 272 889 207 861 q 424 917 338 917 q 515 900 476 917 q 579 857 554 883 q 617 797 604 831 q 629 729 629 763 q 606 631 629 674 q 543 560 582 589 q 455 516 504 531 q 356 501 406 501 q 335 510 344 501 q 326 532 326 519 q 335 553 326 544 q 356 561 344 561 q 431 572 393 561 q 500 603 469 582 q 550 655 531 624 q 569 729 569 686 q 560 776 569 753 q 534 816 551 799 q 489 844 517 833 q 424 856 461 856 q 292 831 349 856 q 196 767 236 807 q 129 678 156 728 q 87 581 103 629 q 65 488 71 532 q 58 417 58 444 q 438 -10 58 -10 q 531 10 492 -10 q 594 60 569 29 q 631 130 619 92 q 644 206 643 168 q 618 344 649 276 q 574 400 603 381 q 510 419 546 419 q 440 410 472 419 q 385 380 408 400 q 347 331 361 360 q 333 263 333 301 q 351 191 333 224 q 400 158 368 158 q 422 150 413 158 q 431 129 431 142 q 422 108 431 117 q 400 99 413 99 q 350 111 374 99 q 310 146 326 124 q 283 198 293 168 q 274 263 274 228 q 292 354 274 314 q 342 422 310 394 q 417 465 374 450 q 510 479 460 479 z "},"H":{"ha":799,"x_min":-1,"x_max":864,"o":"m -1 772 q 10 840 -1 807 q 45 898 22 872 q 102 940 68 924 q 182 956 136 956 q 286 915 246 956 q 328 847 314 888 q 348 757 342 806 q 354 653 354 708 q 353 543 354 599 q 352 497 353 519 q 351 454 351 475 l 601 454 q 617 618 606 538 q 644 766 628 699 q 682 883 661 833 q 725 953 703 932 q 744 960 732 960 q 767 950 758 960 q 775 929 775 942 q 765 908 775 917 q 731 849 749 893 q 700 744 714 806 q 676 607 686 682 q 661 453 665 532 q 688 424 688 450 q 679 404 688 413 q 660 394 671 396 q 669 206 657 296 q 708 53 681 117 q 755 -15 728 8 q 831 -37 782 -37 q 851 -44 842 -36 q 863 -64 861 -51 q 856 -86 864 -76 q 836 -97 849 -96 l 818 -97 q 776 -92 799 -97 q 733 -72 754 -86 q 690 -34 711 -58 q 653 29 669 -10 q 610 193 622 97 q 600 394 599 289 l 351 394 q 351 326 351 365 q 349 243 350 286 q 348 169 349 210 q 347 92 347 128 q 346 31 346 57 q 346 0 346 4 q 338 -22 346 -12 q 317 -31 329 -31 q 295 -22 304 -31 q 286 -1 286 -14 q 286 29 286 4 q 287 90 286 54 q 288 165 288 125 q 289 243 289 206 q 291 324 290 285 q 292 394 292 364 l 182 394 q 160 403 169 394 q 151 424 151 411 q 160 445 151 436 q 182 454 169 454 l 292 454 q 292 499 292 476 q 293 544 292 521 q 294 642 294 593 q 290 736 294 692 q 274 816 285 781 q 243 872 264 851 q 182 896 221 896 q 126 885 150 896 q 88 857 103 875 q 65 817 72 839 q 58 772 58 796 q 103 667 58 706 q 213 629 149 629 q 233 620 225 629 q 242 600 242 611 q 233 578 242 588 q 213 569 225 569 q 129 584 168 569 q 61 625 90 599 q 15 689 32 651 q -1 772 -1 726 z "},"I":{"ha":425,"x_min":-1,"x_max":354,"o":"m 182 956 q 286 915 246 956 q 328 847 314 888 q 348 757 342 806 q 354 653 354 708 q 353 543 354 599 q 352 493 353 517 q 351 446 351 469 q 352 413 353 436 q 350 358 351 390 q 347 276 349 318 q 346 207 346 233 q 331 59 346 115 q 288 -29 317 3 q 217 -72 260 -61 q 119 -83 175 -83 q 98 -74 107 -83 q 89 -53 89 -65 q 98 -31 89 -40 q 119 -22 107 -22 q 186 -19 156 -22 q 239 6 217 -15 q 274 74 261 28 q 286 207 286 121 q 288 277 286 235 q 290 360 289 319 q 292 413 292 389 q 292 444 292 438 q 292 493 292 468 q 293 544 292 518 q 294 642 294 593 q 290 736 294 692 q 274 816 285 781 q 243 872 264 851 q 182 896 221 896 q 126 885 150 896 q 88 857 103 875 q 65 817 72 839 q 58 772 58 796 q 103 667 58 706 q 213 629 149 629 q 233 620 225 629 q 242 600 242 611 q 233 578 242 588 q 213 569 225 569 q 129 584 168 569 q 61 625 90 599 q 15 689 32 651 q -1 772 -1 726 q 10 840 -1 807 q 45 898 22 872 q 102 940 68 924 q 182 956 136 956 z "},"J":{"ha":700,"x_min":-1,"x_max":629,"o":"m 242 957 q 438 910 363 957 q 556 786 514 863 q 614 613 599 710 q 629 418 629 517 q 622 336 629 386 q 596 231 614 286 q 547 119 578 175 q 468 19 515 64 q 356 -54 421 -26 q 204 -82 290 -82 q 113 -65 151 -82 q 49 -22 74 -49 q 11 38 24 4 q -1 106 -1 72 q 22 203 -1 161 q 84 274 46 246 q 172 317 122 303 q 271 332 221 332 q 292 324 283 332 q 301 303 301 315 q 292 281 301 290 q 271 272 283 272 q 195 263 233 272 q 127 232 157 253 q 78 180 97 211 q 58 106 58 149 q 67 59 58 82 q 94 18 76 36 q 139 -11 111 0 q 204 -22 167 -22 q 335 2 279 -22 q 431 66 390 26 q 499 155 472 106 q 541 253 525 204 q 563 345 557 301 q 569 417 569 389 q 558 588 569 503 q 513 742 547 674 q 413 853 478 811 q 242 896 349 896 q 174 883 204 896 q 124 848 144 869 q 93 799 104 826 q 82 744 82 772 q 89 703 82 724 q 111 666 96 682 q 151 640 126 650 q 213 629 176 629 q 233 620 225 629 q 242 600 242 611 q 233 578 242 588 q 213 569 225 569 q 127 585 163 569 q 68 624 92 600 q 33 680 44 649 q 22 744 22 711 q 40 829 22 790 q 87 897 57 868 q 157 941 117 925 q 242 957 197 957 z "},"K":{"ha":833,"x_min":-1,"x_max":903,"o":"m 869 -37 q 891 -44 882 -36 q 901 -65 900 -53 q 894 -87 903 -78 q 874 -97 886 -96 q 779 -75 825 -97 q 692 -19 733 -53 q 614 53 650 14 q 549 125 578 92 q 450 238 500 182 q 351 332 400 293 q 347 166 349 249 q 346 0 346 83 q 338 -22 346 -12 q 317 -31 329 -31 q 295 -22 304 -31 q 286 -1 286 -14 q 286 24 286 4 q 287 74 286 44 q 288 138 288 103 q 289 211 289 174 q 290 256 290 233 q 290 299 290 278 q 231 270 258 281 q 181 260 204 260 q 103 285 128 260 q 78 338 78 310 q 94 387 78 367 q 135 419 111 407 q 188 438 160 432 q 240 443 217 443 q 266 440 253 443 q 292 433 279 438 q 292 472 292 453 q 293 513 293 492 q 294 615 294 561 q 290 720 294 669 q 274 811 285 771 q 243 872 264 851 q 182 896 221 896 q 126 885 150 896 q 88 857 103 875 q 65 817 72 839 q 58 772 58 796 q 103 667 58 706 q 213 629 149 629 q 233 620 225 629 q 242 600 242 611 q 233 578 242 588 q 213 569 225 569 q 129 584 168 569 q 61 625 90 599 q 15 689 32 651 q -1 772 -1 726 q 10 840 -1 807 q 45 898 22 872 q 102 940 68 924 q 182 956 136 956 q 286 915 246 956 q 328 842 314 888 q 348 741 342 796 q 354 626 354 686 q 353 511 354 567 q 352 461 353 485 q 351 414 351 438 q 488 531 417 464 q 617 667 558 599 q 715 797 676 735 q 753 899 753 860 q 762 919 753 911 q 783 928 771 928 q 804 919 796 928 q 813 899 813 911 q 791 815 813 861 q 734 718 769 768 q 654 617 699 668 q 563 519 610 565 q 473 435 517 474 q 397 371 429 396 q 495 276 446 331 q 593 164 544 222 q 647 105 614 139 q 718 39 681 71 q 795 -15 756 7 q 869 -37 835 -37 m 181 319 q 228 333 200 319 q 292 369 256 346 q 240 382 265 382 q 215 380 232 382 q 181 373 197 378 q 151 359 164 368 q 138 338 138 350 q 149 325 138 331 q 181 319 160 319 z "},"L":{"ha":724,"x_min":-1,"x_max":932,"o":"m 892 -90 q 901 -89 894 -89 q 919 -94 911 -89 q 929 -110 926 -100 q 926 -133 932 -122 q 908 -147 919 -144 q 781 -175 839 -167 q 671 -183 722 -183 q 546 -170 601 -183 q 444 -137 490 -157 q 362 -94 399 -118 q 293 -46 325 -69 q 272 -32 282 -39 q 253 -18 263 -25 q 201 -66 229 -49 q 140 -83 172 -83 q 55 -57 82 -83 q 28 -1 28 -31 q 39 38 28 22 q 68 65 50 54 q 107 79 86 75 q 147 83 128 83 q 233 61 192 83 q 269 149 253 99 q 298 258 286 199 q 317 384 310 318 q 324 519 324 450 q 322 576 324 540 q 315 653 321 611 q 300 739 310 696 q 275 817 290 782 q 237 874 260 851 q 182 896 214 896 q 126 885 150 896 q 88 857 103 875 q 65 817 72 839 q 58 772 58 796 q 103 667 58 706 q 213 629 149 629 q 233 620 225 629 q 242 600 242 611 q 233 578 242 588 q 213 569 225 569 q 129 584 168 569 q 61 625 90 599 q 15 689 32 651 q -1 772 -1 726 q 10 840 -1 807 q 45 898 22 872 q 102 940 68 924 q 182 956 136 956 q 259 932 226 956 q 314 871 292 908 q 350 785 336 833 q 371 689 364 738 q 381 596 378 640 q 383 519 383 551 q 377 393 383 460 q 359 262 371 326 q 328 138 347 197 q 285 32 310 79 q 306 17 296 25 q 328 3 317 10 q 392 -42 358 -19 q 468 -82 426 -64 q 559 -112 510 -100 q 671 -124 608 -124 q 773 -116 718 -124 q 892 -90 828 -108 m 140 -22 q 200 11 171 -22 q 147 24 174 24 q 113 19 125 24 q 96 11 101 14 q 88 -1 88 6 q 100 -15 88 -7 q 140 -22 113 -22 z "},"M":{"ha":1185,"x_min":-1,"x_max":1208,"o":"m 739 610 q 743 533 740 582 q 748 428 746 485 q 749 313 750 372 q 739 207 747 254 q 713 129 731 160 q 663 99 694 99 q 615 132 629 99 q 598 217 600 165 q 604 331 596 268 q 625 451 613 393 q 652 555 638 508 q 678 619 667 601 q 651 831 672 761 q 575 901 629 901 q 505 869 536 901 q 450 782 474 836 q 410 656 426 728 q 381 508 393 585 q 363 352 369 431 q 352 205 356 274 q 347 83 349 136 q 346 0 346 29 q 341 -19 344 -15 q 331 -28 338 -24 q 317 -32 325 -32 q 301 -28 310 -32 q 286 0 286 -19 q 286 28 286 10 q 286 70 286 47 q 287 117 286 93 q 289 161 288 140 q 290 251 289 204 q 291 340 290 299 q 292 410 292 381 q 292 444 292 439 q 292 493 292 468 q 293 544 292 518 q 294 642 294 593 q 290 736 294 692 q 274 816 285 781 q 243 872 264 851 q 182 896 221 896 q 126 885 150 896 q 88 857 103 875 q 65 817 72 839 q 58 772 58 796 q 103 667 58 706 q 213 629 149 629 q 233 620 225 629 q 242 600 242 611 q 233 578 242 588 q 213 569 225 569 q 129 584 168 569 q 61 625 90 599 q 15 689 32 651 q -1 772 -1 726 q 10 840 -1 807 q 45 898 22 872 q 102 940 68 924 q 182 956 136 956 q 269 930 236 956 q 319 865 301 904 q 344 780 338 826 q 353 690 351 733 q 438 890 385 817 q 575 963 492 963 q 639 947 613 963 q 684 901 665 931 q 714 832 703 872 q 731 744 725 792 q 761 803 743 769 q 802 865 779 836 q 853 915 825 894 q 914 935 882 935 q 1032 886 986 935 q 1081 794 1065 851 q 1100 667 1096 738 q 1100 519 1104 597 q 1090 361 1096 440 q 1082 235 1086 296 q 1080 124 1078 174 q 1091 36 1082 74 q 1121 -21 1100 -1 q 1134 -30 1125 -25 q 1158 -35 1143 -35 q 1172 -33 1167 -35 q 1194 -39 1185 -33 q 1206 -58 1203 -44 q 1201 -81 1208 -71 q 1181 -93 1193 -90 q 1169 -94 1174 -93 q 1158 -94 1164 -94 q 1079 -64 1111 -94 q 1038 3 1051 -37 q 1022 99 1025 44 q 1022 222 1018 154 q 1031 365 1025 289 q 1040 510 1036 436 q 1040 649 1043 583 q 1026 765 1038 714 q 988 846 1014 817 q 914 875 961 875 q 859 841 888 875 q 806 762 831 807 q 764 673 782 717 q 739 610 746 629 m 689 513 q 688 508 689 514 q 685 495 686 503 q 682 482 683 488 q 681 476 681 476 q 666 394 674 447 q 656 289 658 342 q 656 197 653 236 q 671 158 658 158 q 683 183 679 158 q 690 247 688 208 q 692 330 692 285 q 691 414 692 375 q 690 481 690 453 q 689 513 689 508 z "},"N":{"ha":943,"x_min":-1,"x_max":849,"o":"m 849 422 q 840 401 849 410 q 819 393 832 393 q 815 392 817 393 q 814 283 815 343 q 807 164 813 222 q 777 1 797 50 q 718 -49 757 -49 q 671 -31 689 -49 q 643 12 653 -14 q 630 66 633 38 q 626 117 626 94 q 634 206 626 158 q 658 299 642 254 q 698 379 674 343 q 756 435 722 415 l 756 461 q 713 812 756 697 q 596 926 669 926 q 482 831 533 926 q 396 553 431 735 q 357 278 368 415 q 346 0 346 140 q 338 -23 344 -14 q 317 -32 332 -32 q 301 -28 310 -32 q 286 0 286 -19 q 286 29 286 15 q 287 55 286 42 q 288 78 288 68 q 289 174 288 115 q 291 291 290 233 q 292 392 292 349 q 292 444 292 436 q 292 493 292 468 q 293 544 292 518 q 294 642 294 593 q 290 736 294 692 q 274 816 285 781 q 243 872 264 851 q 182 896 221 896 q 126 885 150 896 q 88 857 103 875 q 65 817 72 839 q 58 772 58 796 q 103 667 58 706 q 213 629 149 629 q 233 620 225 629 q 242 600 242 611 q 233 578 242 588 q 213 569 225 569 q 129 584 168 569 q 61 625 90 599 q 15 689 32 651 q -1 772 -1 726 q 10 840 -1 807 q 45 898 22 872 q 102 940 68 924 q 182 956 136 956 q 277 924 243 956 q 328 844 311 892 q 349 743 344 797 q 354 643 354 689 q 393 775 371 713 q 445 885 415 838 q 513 960 475 932 q 596 988 550 988 q 758 860 701 988 q 815 461 815 732 l 815 453 q 840 445 831 453 q 849 422 849 438 m 715 11 q 727 35 721 17 q 739 91 733 53 q 749 194 744 129 q 756 356 754 258 q 705 250 724 315 q 686 117 686 185 q 688 94 686 110 q 692 60 689 78 q 701 29 694 43 q 715 11 707 15 z "},"O":{"ha":699,"x_min":-1,"x_max":628,"o":"m 519 593 q 538 600 529 600 q 561 588 553 600 q 613 481 597 542 q 628 357 628 421 q 615 233 628 293 q 581 126 603 172 q 471 -9 538 39 q 329 -57 404 -57 q 174 -5 238 -57 q 72 127 111 47 q 16 302 33 207 q -1 483 -1 397 q 19 658 -1 568 q 83 824 39 749 q 196 947 126 899 q 365 996 265 996 q 469 967 422 996 q 549 883 517 938 q 585 767 581 828 q 564 661 589 707 q 475 572 532 603 q 344 542 418 542 q 323 551 332 542 q 314 572 314 560 q 323 593 314 585 q 344 601 332 601 q 412 610 383 601 q 460 633 440 619 q 492 663 479 647 q 511 690 504 678 q 525 767 529 722 q 497 853 521 813 q 440 915 474 893 q 365 936 406 936 q 238 904 290 936 q 151 823 185 872 q 98 717 117 774 q 70 609 79 660 q 60 523 61 558 q 58 483 58 488 q 60 433 58 472 q 70 340 63 393 q 95 226 78 286 q 142 117 113 167 q 218 35 172 68 q 329 3 264 3 q 439 42 388 3 q 526 153 490 82 q 559 255 549 199 q 567 366 569 311 q 552 470 565 421 q 514 551 539 519 q 508 574 507 561 q 519 593 510 586 z "},"P":{"ha":783,"x_min":-1,"x_max":804,"o":"m 596 988 q 697 956 657 988 q 760 876 736 924 q 794 772 785 828 q 804 668 804 717 q 788 532 804 599 q 741 413 772 465 q 663 329 710 361 q 554 297 617 297 q 458 334 492 297 q 424 432 424 371 q 440 519 424 475 q 484 599 456 564 q 551 658 513 635 q 633 681 589 681 q 654 672 646 681 q 663 650 663 663 q 654 629 663 638 q 633 621 646 621 q 576 603 603 621 q 528 558 549 586 q 495 497 507 531 q 483 432 483 464 q 486 404 483 419 q 500 378 489 389 q 554 357 517 357 q 624 377 590 357 q 685 436 658 397 q 728 533 711 475 q 744 668 744 592 q 738 747 744 703 q 715 831 732 792 q 670 899 699 871 q 596 926 642 926 q 482 831 533 926 q 396 553 431 735 q 357 278 368 415 q 346 0 346 140 q 342 -19 344 -15 q 332 -28 339 -24 q 317 -32 324 -32 q 301 -28 308 -32 q 286 0 286 -19 q 286 29 286 15 q 287 55 286 42 q 288 78 288 68 q 289 174 288 115 q 291 291 290 233 q 292 392 292 349 q 292 444 292 436 q 292 493 292 468 q 293 544 292 518 q 294 642 294 593 q 290 736 294 692 q 274 816 285 781 q 243 872 264 851 q 182 896 221 896 q 126 885 150 896 q 88 857 103 875 q 65 817 72 839 q 58 772 58 796 q 103 667 58 706 q 213 629 149 629 q 233 620 225 629 q 242 600 242 611 q 233 578 242 588 q 213 569 225 569 q 129 584 168 569 q 61 625 90 599 q 15 689 32 651 q -1 772 -1 726 q 10 840 -1 807 q 45 898 22 872 q 102 940 68 924 q 182 956 136 956 q 277 924 243 956 q 328 844 311 892 q 349 743 344 797 q 354 643 354 689 q 393 775 371 713 q 445 885 415 838 q 513 960 475 932 q 596 988 550 988 z "},"Q":{"ha":614,"x_min":-1,"x_max":728,"o":"m 697 -60 q 719 -68 710 -60 q 728 -89 728 -76 q 719 -110 728 -101 q 697 -119 710 -119 q 524 -85 601 -119 q 381 -1 447 -50 q 322 40 351 22 q 230 -12 279 7 q 125 -31 181 -31 q 29 -1 60 -31 q -1 64 -1 29 q 35 137 -1 104 q 144 169 72 169 q 234 154 192 169 q 317 115 276 139 q 392 222 360 160 q 447 353 425 283 q 481 496 469 424 q 492 631 492 568 q 485 724 492 671 q 460 824 479 776 q 408 903 442 871 q 321 936 375 936 q 214 906 258 936 q 141 828 169 875 q 100 724 113 781 q 88 614 88 667 q 98 515 88 564 q 129 429 108 467 q 181 368 150 392 q 253 344 213 344 q 274 335 265 344 q 283 315 283 326 q 274 294 283 303 q 253 285 265 285 q 172 304 213 285 q 100 365 132 324 q 48 467 68 406 q 28 614 28 529 q 44 749 28 681 q 97 872 61 817 q 189 961 133 926 q 321 996 244 996 q 435 959 390 996 q 506 867 479 922 q 542 749 532 813 q 551 631 551 685 q 539 478 551 556 q 503 328 526 401 q 447 192 481 256 q 368 82 413 128 q 392 65 379 74 q 415 47 404 57 q 547 -29 479 1 q 697 -60 615 -60 m 125 29 q 201 41 165 29 q 268 74 236 53 q 207 100 238 90 q 144 110 176 110 q 81 95 103 110 q 58 64 58 81 q 74 40 58 51 q 125 29 90 29 z "},"R":{"ha":872,"x_min":-1,"x_max":963,"o":"m 933 -35 q 954 -43 946 -35 q 963 -64 963 -51 q 954 -85 963 -76 q 933 -94 946 -94 q 726 -25 822 -94 q 553 179 631 44 q 504 275 525 228 q 470 359 483 322 q 450 419 457 396 q 443 444 443 443 l 443 456 q 441 469 442 463 q 440 482 440 475 q 454 552 440 517 q 494 616 468 588 q 555 663 519 644 q 633 681 590 681 q 654 672 646 681 q 663 650 663 663 q 654 629 663 638 q 633 621 646 621 q 578 608 603 621 q 535 574 553 594 q 509 528 518 553 q 500 482 500 504 q 523 429 500 446 q 581 413 546 413 q 665 438 631 413 q 719 503 699 464 q 748 588 739 542 q 757 674 757 633 q 747 766 757 721 q 716 847 736 811 q 666 904 696 882 q 596 926 636 926 q 482 831 533 926 q 396 553 431 735 q 357 278 368 415 q 346 0 346 140 q 342 -19 344 -15 q 332 -28 339 -24 q 317 -32 324 -32 q 301 -28 308 -32 q 286 0 286 -19 q 286 29 286 15 q 287 55 286 42 q 288 78 288 68 q 288 138 288 103 q 290 213 289 174 q 291 290 290 251 q 292 362 292 329 q 292 417 292 394 q 292 444 292 439 q 292 493 292 468 q 293 544 292 518 q 294 642 294 593 q 290 736 294 692 q 274 816 285 781 q 243 872 264 851 q 182 896 221 896 q 126 885 150 896 q 88 857 103 875 q 65 817 72 839 q 58 772 58 796 q 103 667 58 706 q 213 629 149 629 q 233 620 225 629 q 242 600 242 611 q 233 578 242 588 q 213 569 225 569 q 129 584 168 569 q 61 625 90 599 q 15 689 32 651 q -1 772 -1 726 q 10 840 -1 807 q 45 898 22 872 q 102 940 68 924 q 182 956 136 956 q 277 924 243 956 q 328 844 311 892 q 349 743 344 797 q 354 643 354 689 q 393 775 371 713 q 445 885 415 838 q 513 960 475 932 q 596 988 550 988 q 692 960 650 988 q 761 889 733 933 q 803 788 789 844 q 817 674 817 732 q 803 563 817 619 q 762 459 790 506 q 689 383 733 413 q 581 353 644 353 q 535 358 553 353 q 590 236 556 304 q 674 108 625 168 q 788 6 722 47 q 933 -35 853 -35 z "},"S":{"ha":642,"x_min":-4,"x_max":571,"o":"m 335 500 q 419 451 376 478 q 494 391 461 425 q 549 313 528 357 q 571 207 571 268 q 553 108 571 158 q 498 17 536 58 q 397 -49 460 -24 q 243 -75 335 -75 q 141 -56 185 -75 q 67 -6 97 -37 q 21 65 38 25 q 0 146 4 104 q 6 235 -4 190 q 43 319 17 281 q 110 387 69 358 q 208 426 151 415 q 231 422 221 426 q 243 403 240 418 q 239 381 246 392 q 219 368 232 371 q 142 337 174 360 q 90 284 110 314 q 64 219 71 254 q 60 151 57 185 q 74 93 63 122 q 108 40 86 64 q 163 0 129 15 q 243 -15 197 -15 q 340 -3 292 -15 q 426 35 388 8 q 488 103 464 61 q 511 207 511 146 q 494 290 511 256 q 448 353 476 325 q 383 403 419 381 q 306 449 346 426 q 222 496 264 471 q 147 554 181 521 q 93 631 114 588 q 72 735 72 675 q 92 838 72 792 q 147 918 111 885 q 235 969 183 951 q 349 988 286 988 q 431 973 393 988 q 496 932 468 958 q 540 868 524 906 q 556 786 556 831 q 544 715 556 750 q 508 653 532 681 q 450 610 485 626 q 369 593 415 593 q 305 606 329 593 q 267 635 281 619 q 233 726 233 675 q 241 773 233 750 q 264 814 249 796 q 302 843 279 832 q 356 854 325 854 q 377 846 368 854 q 386 825 386 838 q 377 803 386 813 q 356 794 368 794 q 326 788 338 794 q 306 770 314 781 q 296 748 299 760 q 293 726 293 736 q 315 672 293 692 q 369 653 336 653 q 426 665 403 653 q 465 695 450 676 q 488 738 481 714 q 496 786 496 763 q 455 890 496 853 q 349 926 414 926 q 189 876 246 926 q 132 735 132 826 q 149 655 132 689 q 193 594 165 621 q 258 544 221 567 q 335 500 294 522 z "},"T":{"ha":533,"x_min":-1,"x_max":833,"o":"m 800 924 q 822 917 813 925 q 832 896 831 908 q 825 874 833 883 q 804 864 817 865 q 766 862 785 863 q 729 861 747 861 q 636 865 679 861 q 549 875 593 869 q 478 883 515 879 q 396 890 440 888 q 395 824 396 865 q 394 730 394 783 q 393 615 393 676 q 393 489 393 554 q 391 334 392 413 q 390 191 390 256 q 389 84 389 126 q 389 38 389 42 q 381 16 390 25 q 360 7 372 7 q 338 15 347 7 q 329 36 329 24 q 330 465 329 251 q 336 893 331 678 q 274 896 307 896 q 204 896 242 896 q 139 885 167 896 q 94 856 111 874 q 67 816 76 839 q 58 769 58 793 q 78 695 58 726 q 127 643 97 664 q 195 612 157 622 q 271 601 233 601 q 292 593 283 601 q 301 572 301 585 q 292 551 301 560 q 271 542 283 542 q 172 556 221 542 q 84 600 122 571 q 22 672 46 629 q -1 769 -1 714 q 11 837 -1 803 q 49 897 24 871 q 113 940 74 924 q 204 957 151 957 q 413 949 331 957 q 556 935 494 942 q 640 924 600 928 q 725 921 679 921 q 761 922 743 921 q 800 924 779 922 z "},"U":{"ha":675,"x_min":-1,"x_max":696,"o":"m 667 6 q 688 -3 679 6 q 696 -24 696 -11 q 688 -45 696 -36 q 667 -54 679 -54 q 594 -35 624 -54 q 546 16 565 -15 q 516 88 526 47 q 501 169 506 128 q 495 249 496 210 q 494 318 494 289 q 455 181 478 249 q 402 59 432 113 q 335 -27 372 6 q 251 -60 297 -60 q 159 -21 200 -60 q 90 88 118 18 q 47 255 61 157 q 32 471 32 353 l 32 479 q 8 487 18 479 q -1 510 -1 494 q 8 532 -1 525 q 32 539 18 539 q 33 649 32 589 q 40 768 35 710 q 71 931 50 882 q 129 981 92 981 q 176 963 158 981 q 204 920 194 946 q 217 866 214 894 q 221 815 221 838 q 213 726 221 774 q 190 633 206 678 q 149 553 174 589 q 92 497 125 517 l 92 471 q 103 283 92 369 q 135 134 114 197 q 185 35 156 71 q 251 0 214 0 q 312 30 283 0 q 365 114 340 60 q 413 243 390 168 q 451 408 435 318 q 488 665 475 535 q 501 924 501 794 l 503 924 q 507 943 504 939 q 517 951 510 947 q 532 956 524 956 q 546 951 540 956 q 561 924 561 943 l 561 883 q 559 787 560 846 q 558 670 558 728 q 556 569 557 613 q 556 517 556 525 q 556 467 556 493 q 554 414 556 442 q 554 301 554 360 q 559 190 554 243 q 576 94 564 138 q 611 28 589 51 q 667 6 633 6 m 132 921 q 120 897 126 915 q 108 841 114 879 q 99 739 103 803 q 93 576 94 675 q 142 681 124 615 q 161 815 161 747 q 160 840 161 824 q 156 872 160 856 q 147 903 153 889 q 132 921 142 917 z "},"V":{"ha":586,"x_min":-1,"x_max":561,"o":"m 532 954 q 553 945 544 954 q 561 924 561 936 q 560 836 561 894 q 554 703 558 778 q 542 542 550 628 q 519 372 533 457 q 485 210 506 288 q 433 72 464 132 q 363 -24 403 11 q 272 -60 324 -60 q 174 -19 218 -60 q 98 94 129 22 q 49 263 67 165 q 32 471 32 360 l 32 479 q 8 487 18 479 q -1 510 -1 494 q 8 532 -1 525 q 32 539 18 539 q 33 649 32 589 q 40 768 35 710 q 71 931 50 882 q 129 981 92 981 q 176 963 158 981 q 204 920 194 946 q 217 866 214 894 q 221 815 221 838 q 213 726 221 774 q 190 633 206 678 q 149 553 174 589 q 92 497 125 517 l 92 471 q 106 291 92 376 q 143 141 119 206 q 200 38 167 76 q 272 0 233 0 q 347 44 314 0 q 406 160 381 88 q 450 328 432 233 q 479 525 468 422 q 496 731 490 628 q 501 924 501 835 q 510 945 501 936 q 532 954 519 954 m 132 921 q 120 897 126 915 q 108 841 114 879 q 99 739 103 803 q 93 576 94 675 q 142 681 124 615 q 161 815 161 747 q 160 839 161 822 q 156 872 160 856 q 147 903 153 889 q 132 921 142 918 z "},"W":{"ha":975,"x_min":-1,"x_max":950,"o":"m 950 510 q 941 487 950 494 q 917 479 932 479 l 917 471 q 896 270 917 367 q 838 101 875 174 q 751 -16 801 28 q 644 -60 701 -60 q 554 -24 589 -60 q 500 65 519 13 q 472 173 481 117 q 461 269 464 229 q 424 148 446 207 q 376 43 403 89 q 315 -31 349 -3 q 239 -60 281 -60 q 140 -19 185 -60 q 65 94 96 22 q 16 263 33 165 q -1 471 -1 360 q 1 540 -1 493 q 10 643 3 586 q 32 761 17 700 q 73 873 47 822 q 138 956 99 924 q 233 988 178 988 q 255 978 246 988 q 264 957 264 969 q 255 935 264 944 q 233 926 246 926 q 148 878 182 926 q 94 758 114 829 q 67 609 75 688 q 58 471 58 531 q 72 291 58 376 q 110 141 86 206 q 167 38 133 76 q 239 0 200 0 q 320 53 285 0 q 381 192 356 107 q 425 385 407 278 q 453 601 443 493 q 458 701 456 651 q 463 800 460 751 q 467 872 465 840 q 468 924 468 904 q 477 945 468 936 q 499 954 486 954 q 519 945 511 954 q 528 924 528 936 q 527 869 528 903 q 525 791 526 835 q 521 695 524 747 q 513 588 518 643 q 512 424 511 511 q 521 259 513 338 q 546 118 529 181 q 590 25 563 56 q 644 0 614 0 q 722 37 683 0 q 790 138 760 74 q 838 288 819 201 q 857 471 857 374 l 857 497 q 799 553 824 517 q 759 633 775 589 q 735 726 743 678 q 728 815 728 774 q 731 866 728 838 q 745 920 735 894 q 773 963 756 946 q 819 981 790 981 q 878 931 857 981 q 908 768 899 882 q 915 649 914 710 q 917 539 917 589 q 940 532 931 539 q 950 510 950 525 m 788 815 q 806 681 788 747 q 857 576 825 615 q 851 739 856 675 q 840 841 846 803 q 828 897 835 879 q 817 921 822 915 q 802 903 808 917 q 793 872 796 889 q 789 838 790 854 q 788 815 788 822 z "},"X":{"ha":694,"x_min":-4,"x_max":739,"o":"m 710 -32 q 731 -40 722 -32 q 739 -61 739 -49 q 731 -83 739 -74 q 710 -92 722 -92 q 528 -32 617 -92 q 361 144 440 28 q 348 165 354 156 q 335 186 342 175 q 197 32 267 92 q 63 -28 128 -28 q 17 -19 40 -28 q 1 -3 6 -14 q 1 19 -4 8 q 29 39 8 39 q 40 36 32 39 q 64 32 51 32 q 169 86 108 32 q 303 244 231 140 q 244 369 271 304 q 194 506 217 435 q 151 474 175 486 q 100 463 128 463 q 80 472 89 463 q 71 493 71 481 q 80 514 71 506 q 100 522 89 522 q 137 535 118 522 q 175 572 156 549 q 172 584 174 579 q 169 594 171 589 q 156 656 164 619 q 142 735 147 693 q 136 820 136 778 q 146 897 136 863 q 178 953 156 931 q 242 979 201 976 l 251 979 q 303 961 285 979 q 328 915 321 943 q 335 853 336 888 q 327 784 333 818 q 313 721 321 750 q 297 674 304 692 q 276 624 290 656 q 240 560 263 593 q 285 428 260 493 q 340 301 310 363 q 511 606 433 450 q 656 922 589 761 q 683 942 663 942 q 694 939 686 942 q 710 923 706 935 q 711 900 715 911 q 663 788 696 863 q 586 622 631 714 q 487 430 542 531 q 372 240 432 329 q 446 131 407 181 q 528 44 485 81 q 617 -12 571 8 q 710 -32 663 -32 m 215 908 q 205 884 210 903 q 199 833 200 865 q 201 753 197 800 q 219 643 206 706 q 231 668 226 656 q 242 694 236 681 q 265 772 257 735 q 276 838 274 808 q 274 887 278 867 q 261 915 269 907 q 242 925 251 925 q 215 908 228 925 z "},"Y":{"ha":665,"x_min":-1,"x_max":594,"o":"m 529 954 q 551 947 542 956 q 561 928 560 939 q 567 876 563 921 q 578 763 572 832 q 590 603 585 693 q 594 416 594 514 q 588 218 594 318 q 565 27 581 118 q 520 -140 549 -64 q 449 -267 492 -217 q 285 -344 379 -344 q 151 -317 206 -344 q 75 -239 97 -289 q 68 -150 57 -197 q 115 -67 79 -103 q 207 -11 151 -28 q 135 51 167 8 q 80 156 103 93 q 44 298 57 218 q 32 471 32 378 l 32 479 q 8 487 18 479 q -1 510 -1 494 q 8 532 -1 525 q 32 539 18 539 q 33 649 32 589 q 40 768 35 710 q 71 931 50 882 q 129 981 92 981 q 176 963 158 981 q 204 920 194 946 q 217 866 214 894 q 221 815 221 838 q 213 726 221 774 q 190 633 206 678 q 149 553 174 589 q 92 497 125 517 l 92 471 q 106 296 92 376 q 143 157 119 215 q 200 66 167 99 q 272 33 233 33 q 347 74 314 33 q 406 185 381 115 q 450 344 432 254 q 479 534 468 435 q 496 734 490 633 q 501 924 501 835 q 510 944 501 936 q 529 954 518 953 m 132 921 q 120 897 126 915 q 108 841 114 879 q 99 739 103 803 q 93 576 94 675 q 142 681 124 615 q 161 815 161 747 q 160 839 161 822 q 156 872 160 856 q 147 903 153 889 q 132 921 142 918 m 403 -228 q 458 -137 436 -190 q 495 -21 481 -83 q 517 110 510 42 q 528 243 525 178 q 533 369 532 308 q 533 475 533 429 q 508 324 524 399 q 469 184 492 249 q 416 70 446 119 q 347 -4 386 21 q 435 -28 386 -10 q 451 -44 446 -33 q 451 -67 456 -56 q 424 -86 444 -86 q 413 -83 421 -86 q 290 -58 349 -58 q 158 -108 207 -58 q 127 -161 135 -132 q 131 -215 119 -190 q 185 -267 144 -249 q 285 -285 225 -285 q 403 -228 353 -285 z "},"Z":{"ha":801,"x_min":-6,"x_max":1058,"o":"m 1021 -31 q 1043 -33 1033 -31 q 1056 -53 1053 -36 q 1052 -76 1058 -65 q 1033 -89 1046 -86 q 854 -111 935 -111 q 756 -103 801 -111 q 672 -81 711 -94 q 599 -51 633 -68 q 531 -17 564 -33 q 453 21 493 3 q 369 54 414 39 q 268 -24 321 1 q 140 -49 215 -49 q 97 -45 119 -49 q 54 -33 74 -42 q 19 -8 35 -24 q 0 32 4 7 q 15 93 -6 67 q 186 140 54 140 q 274 135 233 140 q 350 122 314 131 q 435 231 392 169 q 519 360 478 292 q 601 499 561 428 q 676 639 640 571 q 741 769 711 707 q 792 878 771 831 q 778 876 785 876 q 765 876 772 876 q 728 878 749 876 q 685 881 708 879 q 588 885 644 883 q 451 888 532 888 q 386 878 414 888 q 340 852 358 868 q 313 816 322 836 q 304 775 304 796 q 338 701 304 735 q 447 668 372 668 q 468 659 460 668 q 476 638 476 650 q 468 616 476 625 q 447 607 460 607 q 358 622 396 607 q 294 661 319 638 q 257 715 269 685 q 244 775 244 744 q 263 849 244 817 q 310 903 281 882 q 376 936 339 925 q 451 947 414 947 q 590 945 533 947 q 688 940 647 943 q 729 938 711 939 q 761 938 747 938 q 801 941 786 938 q 831 953 815 944 q 836 956 836 956 q 842 957 839 957 q 847 958 844 958 l 850 958 q 853 957 850 957 q 857 956 856 957 q 863 953 860 956 q 865 950 865 953 q 868 949 867 950 l 872 944 q 875 939 875 939 l 875 936 q 876 933 876 935 l 876 931 l 876 928 l 876 925 l 876 922 q 875 919 875 919 q 874 917 875 917 q 840 839 864 892 q 781 716 815 786 q 704 565 747 646 q 613 401 661 483 q 514 241 565 318 q 413 103 463 164 q 488 71 453 88 q 557 36 524 54 q 623 4 590 19 q 691 -24 656 -11 q 767 -43 726 -36 q 856 -50 807 -50 q 932 -46 892 -50 q 1021 -31 972 -42 m 301 71 q 247 78 275 75 q 186 81 218 81 q 99 72 129 81 q 61 54 69 64 q 58 43 58 49 q 72 26 63 32 q 92 16 81 19 q 117 12 104 13 q 139 11 129 11 q 227 25 192 11 q 301 71 263 39 z "},"[":{"ha":300,"x_min":68,"x_max":229,"o":"m 199 31 q 220 22 211 31 q 229 0 229 13 q 215 -25 229 -19 q 185 -31 200 -31 q 168 -31 176 -31 q 153 -32 160 -32 q 113 -28 131 -32 q 85 -12 96 -24 q 71 18 71 -3 q 71 145 71 61 q 70 330 71 229 q 69 536 69 431 q 69 728 69 642 q 68 872 68 815 q 68 929 68 928 q 77 951 68 942 q 99 960 86 960 l 190 960 q 211 951 203 960 q 219 929 219 942 q 211 908 219 917 q 190 900 203 900 l 128 900 q 128 799 128 865 q 129 651 129 733 q 130 476 129 568 q 131 299 131 385 q 131 142 131 214 q 131 29 131 71 l 147 29 l 182 29 q 192 30 188 29 q 199 31 196 31 z "},"\\":{"ha":657,"x_min":68,"x_max":586,"o":"m 140 975 q 194 895 163 953 q 260 760 225 838 q 334 590 296 682 q 408 403 372 497 q 476 220 444 308 q 533 61 508 132 q 572 -56 557 -10 q 586 -110 586 -101 q 576 -131 585 -122 q 556 -139 568 -139 q 535 -131 543 -139 q 525 -111 526 -122 q 506 -41 522 -93 q 463 85 489 11 q 403 249 436 160 q 334 429 369 338 q 262 608 299 521 q 193 765 225 694 q 135 881 161 835 q 93 938 108 928 q 75 947 82 939 q 68 967 68 956 q 77 988 68 979 q 99 996 86 996 q 140 975 119 996 z "},"]":{"ha":300,"x_min":68,"x_max":229,"o":"m 226 910 q 226 783 226 867 q 227 598 226 699 q 228 392 228 497 q 228 199 228 286 q 229 56 229 113 q 229 -1 229 0 q 219 -22 229 -12 q 199 -32 210 -32 l 107 -32 q 85 -23 94 -32 q 76 -1 76 -14 q 85 20 76 11 q 107 29 94 29 l 168 29 q 168 129 168 64 q 168 277 168 194 q 167 451 168 360 q 167 628 167 543 q 167 785 167 714 q 167 899 167 857 l 149 899 l 115 899 q 84 903 100 899 q 68 928 68 907 q 83 953 68 949 q 113 958 97 958 q 128 959 119 958 q 143 960 136 960 q 170 958 156 960 q 197 951 185 956 q 218 936 210 946 q 226 910 226 926 z "},"_":{"ha":694,"x_min":68,"x_max":624,"o":"m 593 31 q 615 22 606 31 q 624 0 624 13 q 615 -21 624 -12 q 593 -29 606 -29 l 99 -29 q 77 -21 86 -29 q 68 0 68 -12 q 77 22 68 13 q 99 31 86 31 l 593 31 z "},"a":{"ha":582,"x_min":-7,"x_max":674,"o":"m 653 368 q 669 353 664 364 q 669 331 674 342 q 622 231 653 288 q 551 122 590 174 q 469 35 513 71 q 386 0 426 0 q 307 33 339 0 q 288 58 296 44 q 274 86 281 71 q 222 23 253 46 q 150 0 190 0 q 36 53 79 0 q -7 192 -7 106 q 6 286 -7 239 q 44 371 19 333 q 104 431 69 408 q 181 454 139 454 q 234 442 213 454 q 271 411 256 431 q 278 413 272 413 q 299 403 290 413 q 307 382 307 394 l 307 344 q 306 276 307 315 q 309 199 306 238 q 322 127 313 161 q 349 75 331 93 q 386 60 367 60 q 437 85 407 60 q 499 153 467 111 q 563 247 532 194 q 614 351 593 299 q 642 371 621 371 q 653 368 644 371 m 150 60 q 207 90 188 60 q 235 161 226 119 q 244 247 243 203 q 246 317 246 290 q 244 332 246 319 q 235 358 242 344 q 215 383 228 372 q 181 394 201 394 q 129 376 153 394 q 89 329 106 358 q 63 264 72 300 q 53 192 53 228 q 79 95 53 131 q 150 60 106 60 z "},"b":{"ha":494,"x_min":-1,"x_max":589,"o":"m 567 368 q 583 353 578 364 q 583 329 589 342 q 542 262 567 288 q 487 222 518 236 q 418 201 456 207 q 340 196 381 196 q 316 122 332 157 q 277 59 300 86 q 224 16 254 32 q 160 0 194 0 q 99 28 124 0 q 74 99 74 56 q 94 170 74 140 q 145 219 114 200 q 215 248 176 239 q 288 257 253 257 q 283 305 288 281 q 267 349 278 329 q 237 382 256 369 q 190 394 218 394 q 135 375 157 394 q 98 324 113 356 q 75 253 83 293 q 63 174 67 214 q 59 99 60 135 q 58 38 58 63 q 50 16 58 25 q 29 7 42 7 q 8 15 17 7 q -1 36 -1 24 l -1 69 l -1 72 q -1 97 -1 85 q 0 122 -1 110 q 1 181 0 150 q 1 244 1 213 q 2 313 1 279 q 3 374 3 346 q 4 420 4 401 q 4 444 4 439 q 5 624 3 547 q 15 755 7 700 q 34 844 22 810 q 63 894 46 878 q 107 914 82 914 q 158 885 140 914 q 178 808 175 858 q 173 696 181 758 q 150 565 165 633 q 115 435 135 496 q 153 450 135 446 q 190 454 172 454 q 262 437 232 454 q 310 392 292 419 q 338 328 329 364 q 347 256 347 293 q 406 259 379 256 q 456 272 433 263 q 497 301 479 282 q 528 351 515 321 q 556 371 538 371 q 567 368 558 371 m 107 854 q 95 840 103 853 q 81 788 88 828 q 68 673 74 749 q 64 468 63 597 q 97 599 83 533 q 116 719 110 665 q 120 810 122 774 q 107 854 118 846 m 160 60 q 234 101 203 60 q 279 197 265 142 q 233 190 258 196 q 185 174 207 185 q 149 144 164 163 q 133 99 133 125 q 140 72 133 83 q 160 60 147 60 z "},"c":{"ha":418,"x_min":-7,"x_max":511,"o":"m 490 368 q 506 353 501 364 q 507 331 511 342 q 453 223 488 281 q 374 115 419 165 q 276 33 329 65 q 164 0 222 0 q 104 8 135 0 q 49 36 74 15 q 9 94 25 57 q -7 192 -7 132 q 6 286 -7 239 q 44 371 19 333 q 104 431 69 408 q 181 454 139 454 q 245 435 219 454 q 278 379 271 415 q 278 335 282 358 q 264 292 274 313 q 239 256 254 272 q 204 232 224 240 q 193 229 196 229 q 165 249 172 229 q 165 271 160 260 q 181 288 169 282 q 212 319 200 294 q 219 368 224 344 q 210 385 217 376 q 181 394 204 394 q 129 376 153 394 q 89 329 106 358 q 63 264 72 300 q 53 192 53 228 q 63 122 53 149 q 88 82 72 96 q 123 64 103 68 q 164 60 143 60 q 248 85 206 60 q 328 153 290 111 q 399 247 367 194 q 451 351 431 299 q 479 371 458 371 q 490 368 482 371 z "},"d":{"ha":589,"x_min":-6,"x_max":683,"o":"m 661 369 q 678 353 672 365 q 679 331 683 342 q 628 222 661 281 q 558 115 596 164 q 477 33 519 65 q 396 0 435 0 q 323 36 351 0 q 276 122 294 72 q 213 28 251 56 q 136 0 175 0 q 96 6 119 0 q 49 31 72 11 q 10 88 26 50 q -6 192 -6 126 q 8 286 -6 239 q 46 371 21 333 q 106 431 71 408 q 182 454 140 454 q 240 439 214 454 q 240 594 239 521 q 247 728 240 668 q 265 831 253 788 q 297 894 276 874 q 342 914 317 914 q 393 885 375 914 q 414 778 415 851 q 397 620 413 706 q 356 451 381 535 q 307 310 331 367 l 307 279 q 319 196 311 236 q 340 126 328 156 q 365 78 351 96 q 396 60 379 60 q 449 85 418 60 q 512 153 479 111 q 574 247 544 194 q 624 351 604 299 q 651 371 631 371 q 661 369 658 371 m 136 60 q 207 115 175 60 q 246 279 239 171 q 244 315 244 299 q 242 343 243 331 q 223 377 236 360 q 182 394 210 394 q 131 376 154 394 q 90 329 107 358 q 64 264 74 300 q 54 192 54 228 q 136 60 54 60 m 303 685 q 299 578 300 633 q 299 468 299 522 q 331 599 318 533 q 351 719 344 665 q 355 810 357 774 q 342 854 353 846 q 326 828 333 849 q 313 778 319 811 q 303 685 307 744 z "},"e":{"ha":419,"x_min":-6,"x_max":513,"o":"m 492 368 q 508 353 503 364 q 508 329 513 342 q 455 222 489 279 q 376 115 421 164 q 278 33 332 65 q 165 0 224 0 q 115 6 140 0 q 66 26 89 11 q 26 66 43 40 q 0 132 8 92 q -1 134 0 133 q -1 136 -1 135 q -6 192 -6 161 q 8 286 -6 239 q 46 371 21 333 q 106 431 71 408 q 182 454 140 454 q 241 424 222 454 q 260 358 260 394 q 245 278 260 318 q 204 203 231 238 q 142 146 178 169 q 67 114 107 122 q 109 69 82 79 q 165 60 136 60 q 249 85 207 60 q 330 153 292 111 q 400 247 368 194 q 453 351 432 299 q 481 371 460 371 q 492 368 483 371 m 54 192 q 56 172 54 178 q 117 201 90 179 q 163 250 144 222 q 190 307 181 278 q 200 358 200 336 q 193 389 200 378 q 182 394 188 394 q 131 376 154 394 q 90 329 107 358 q 64 264 74 300 q 54 192 54 228 z "},"f":{"ha":349,"x_min":-1,"x_max":443,"o":"m 43 -253 q 9 -176 19 -226 q -1 -60 -1 -126 q 5 86 -1 7 q 21 249 11 165 q 24 277 24 264 q 26 301 25 290 q 27 339 26 321 q 29 374 28 357 q 30 386 29 381 q 31 397 31 392 q 30 567 29 488 q 35 713 31 647 q 53 825 40 778 q 86 894 65 872 q 132 914 106 914 q 183 885 165 914 q 201 826 197 864 q 202 741 206 789 q 189 639 199 693 q 166 531 179 585 q 138 426 153 476 q 107 336 122 376 q 163 257 142 313 q 196 136 185 201 q 247 168 219 147 q 299 217 274 189 q 346 279 324 244 q 382 351 368 314 q 410 371 392 371 q 421 368 413 371 q 438 353 432 364 q 438 331 443 342 q 394 245 421 286 q 337 171 368 204 q 272 113 306 138 q 206 76 238 88 q 210 16 208 44 q 213 -36 213 -12 q 210 -106 213 -64 q 195 -185 207 -147 q 161 -251 183 -224 q 100 -279 139 -279 q 43 -253 65 -279 m 67 110 q 60 10 63 61 q 58 -85 57 -40 q 67 -165 60 -131 q 88 -214 74 -199 q 94 -219 90 -218 q 100 -219 97 -219 q 127 -194 117 -219 q 143 -137 138 -169 q 151 -76 149 -106 q 153 -36 153 -46 q 151 17 153 -8 q 147 67 150 43 q 75 99 103 71 q 71 104 72 101 q 67 110 69 107 m 93 685 q 89 578 90 633 q 89 468 88 522 q 122 599 108 533 q 140 719 135 665 q 144 810 146 774 q 131 854 142 846 q 126 849 131 854 q 116 827 122 844 q 103 776 110 810 q 93 685 97 743 m 86 274 q 94 197 88 233 q 119 140 101 160 q 138 129 124 135 q 113 219 126 182 q 86 274 100 256 z "},"g":{"ha":558,"x_min":-6,"x_max":640,"o":"m 618 346 q 635 331 629 342 q 636 308 640 319 q 583 215 617 258 q 508 135 549 172 q 420 65 467 97 q 329 1 374 32 q 310 -11 319 -6 q 292 -24 300 -17 q 273 -129 285 -78 q 244 -221 261 -181 q 203 -285 226 -261 q 149 -310 181 -310 q 109 -299 125 -310 q 83 -274 93 -289 q 68 -242 72 -260 q 64 -210 64 -225 q 114 -92 64 -144 q 235 10 164 -39 q 235 22 235 17 q 236 35 236 28 q 151 0 199 0 q 38 53 81 0 q -6 192 -6 106 q 8 286 -6 239 q 46 371 21 333 q 106 431 71 408 q 182 454 140 454 q 238 440 215 454 q 276 406 261 426 q 298 362 290 385 q 307 322 306 339 q 301 301 308 310 q 281 290 293 292 q 258 297 268 290 q 247 317 249 303 q 245 332 247 319 q 236 358 243 344 q 216 383 229 372 q 182 394 203 394 q 131 376 154 394 q 90 329 107 358 q 64 264 74 300 q 54 192 54 228 q 81 95 54 131 q 151 60 107 60 q 219 111 192 60 q 247 242 247 163 q 255 265 247 256 q 278 275 263 275 q 299 266 290 275 q 307 244 307 257 q 299 54 307 150 q 383 113 340 82 q 465 176 426 143 q 533 248 503 210 q 579 329 563 286 q 607 349 589 349 q 618 346 610 349 m 149 -250 q 189 -202 169 -250 q 222 -74 208 -154 q 151 -140 178 -107 q 124 -210 124 -174 q 128 -231 125 -221 q 135 -244 131 -237 q 149 -250 140 -250 z "},"h":{"ha":513,"x_min":-1,"x_max":606,"o":"m 585 368 q 601 353 596 364 q 601 329 606 342 q 553 230 585 286 q 483 122 522 174 q 401 35 444 71 q 318 0 358 0 q 265 22 285 0 q 238 102 239 50 q 243 217 238 154 q 247 268 246 242 q 248 318 249 294 q 244 360 247 342 q 232 389 240 379 q 225 394 229 392 q 213 396 221 396 q 165 360 192 396 q 116 274 139 325 q 77 167 93 224 q 58 68 61 110 l 58 38 q 50 16 58 25 q 29 7 42 7 q 8 15 17 7 q -1 36 -1 24 l -1 57 l -1 67 q 0 143 0 96 q 1 243 0 190 q 2 312 1 278 q 3 374 3 346 q 4 420 4 401 q 4 444 4 439 q 5 624 3 547 q 15 755 7 700 q 34 844 22 810 q 63 894 46 878 q 107 914 82 914 q 158 885 140 914 q 178 791 178 854 q 165 651 178 728 q 132 494 153 574 q 89 354 111 415 q 147 427 115 399 q 213 456 178 456 q 276 429 250 456 q 299 389 292 413 q 308 338 306 365 q 308 278 310 310 q 303 213 306 246 q 300 168 301 192 q 299 124 299 144 q 301 86 299 103 q 310 63 303 69 q 318 60 310 60 q 369 85 339 60 q 431 153 399 111 q 494 247 464 194 q 546 351 525 299 q 574 371 553 371 q 585 368 576 371 m 107 854 q 95 840 103 853 q 81 788 88 828 q 68 673 74 749 q 64 468 63 597 q 97 599 83 533 q 116 719 110 665 q 120 810 122 774 q 107 854 118 846 z "},"i":{"ha":365,"x_min":22,"x_max":458,"o":"m 438 368 q 453 353 449 364 q 454 329 458 342 q 406 230 438 286 q 336 122 375 174 q 254 35 297 71 q 169 0 211 0 q 90 33 124 0 q 54 97 67 58 q 36 178 42 135 q 31 265 31 221 q 32 346 31 310 l 32 382 q 41 403 32 394 q 63 413 50 413 q 83 403 75 413 q 92 382 92 394 l 92 344 q 91 276 92 315 q 94 199 90 238 q 106 127 97 161 q 133 75 115 93 q 169 60 149 60 q 221 85 190 60 q 284 153 251 111 q 347 247 317 194 q 399 351 378 299 q 426 371 406 371 q 438 368 429 371 m 61 461 q 33 474 44 461 q 22 506 22 486 q 33 538 22 525 q 61 550 44 550 q 88 538 76 550 q 100 506 100 525 q 88 474 100 486 q 61 461 76 461 z "},"j":{"ha":343,"x_min":-151,"x_max":425,"o":"m 404 346 q 420 331 415 342 q 421 308 425 319 q 368 215 401 258 q 293 135 335 172 q 205 65 251 97 q 114 1 158 32 q 94 -12 104 -6 q 75 -25 85 -18 q 45 -179 64 -108 q -6 -282 26 -250 q -39 -305 -22 -300 q -67 -310 -56 -310 q -106 -299 -90 -310 q -132 -274 -122 -289 q -147 -242 -142 -260 q -151 -210 -151 -225 q -138 -149 -151 -178 q -101 -92 -125 -119 q -47 -40 -78 -65 q 19 10 -17 -15 q 31 201 29 101 q 31 382 33 300 q 39 403 31 394 q 60 413 47 413 q 81 404 72 413 q 90 383 90 396 q 91 341 90 372 q 92 265 92 310 q 90 165 92 219 q 83 53 88 110 q 168 111 125 81 q 249 176 211 142 q 318 248 288 210 q 365 329 349 286 q 393 349 372 349 q 404 346 396 349 m 8 -72 q -64 -140 -36 -107 q -92 -210 -92 -174 q -87 -231 -90 -221 q -80 -244 -85 -237 q -67 -250 -75 -250 q -37 -226 -50 -250 q -15 -172 -24 -203 q 1 -112 -6 -142 q 8 -72 7 -83 m 74 461 q 47 474 58 461 q 36 506 36 486 q 47 538 36 525 q 74 550 58 550 q 101 538 90 550 q 113 506 113 525 q 101 474 113 486 q 74 461 90 461 z "},"k":{"ha":483,"x_min":25,"x_max":576,"o":"m 556 368 q 572 353 567 364 q 572 329 576 342 q 524 230 556 286 q 454 122 493 174 q 372 35 415 71 q 289 0 329 0 q 207 31 239 0 q 157 99 175 61 q 133 168 139 136 q 126 203 126 200 q 138 231 124 219 q 154 236 144 236 q 168 233 160 236 q 202 244 186 233 q 231 265 218 254 q 261 300 247 282 q 283 335 275 318 q 295 365 292 351 q 296 386 299 379 q 285 393 293 392 q 272 394 276 394 q 208 365 240 394 q 149 287 175 335 q 106 180 122 239 q 88 63 89 121 l 88 38 q 79 16 88 25 q 58 7 71 7 q 37 15 46 7 q 28 36 28 24 l 28 58 q 25 174 25 117 q 26 281 25 231 q 30 374 28 332 q 33 444 32 415 q 35 624 32 547 q 44 755 38 700 q 63 844 51 810 q 92 894 75 878 q 136 914 111 914 q 189 882 172 914 q 208 781 208 849 q 192 633 207 714 q 151 467 178 551 q 92 317 124 383 l 92 307 q 173 413 126 371 q 272 454 219 454 q 329 438 313 454 q 351 408 346 421 q 355 360 360 386 q 337 308 350 333 q 306 260 324 283 q 271 221 288 238 q 193 175 232 185 q 206 138 197 158 q 225 101 214 118 q 252 72 236 83 q 289 60 268 60 q 340 85 310 60 q 402 153 369 111 q 465 247 435 194 q 517 351 496 299 q 544 371 524 371 q 556 368 547 371 m 136 854 q 124 841 132 853 q 110 790 117 829 q 97 678 103 751 q 93 482 92 606 q 127 610 114 547 q 145 726 140 674 q 148 813 150 778 q 136 854 146 847 z "},"l":{"ha":371,"x_min":21,"x_max":465,"o":"m 443 369 q 460 353 454 365 q 461 331 465 342 q 410 222 443 281 q 340 115 378 164 q 259 33 301 65 q 178 0 217 0 q 118 23 143 0 q 76 81 93 46 q 48 158 58 115 q 32 241 38 201 q 25 313 26 281 q 24 361 24 346 l 22 365 q 21 546 21 460 q 26 702 21 632 q 44 822 32 772 q 78 894 56 872 q 124 914 100 914 q 175 885 157 914 q 194 822 190 863 q 193 728 197 781 q 178 618 189 676 q 152 503 167 560 q 121 395 138 446 q 88 307 104 344 q 87 305 88 306 q 86 303 86 304 q 98 212 90 256 q 117 134 106 168 q 144 80 129 100 q 178 60 160 60 q 231 85 200 60 q 294 153 261 111 q 356 247 326 194 q 404 351 385 299 q 433 371 411 371 q 443 369 440 371 m 85 685 q 81 578 82 633 q 81 468 81 522 q 113 599 100 533 q 133 719 126 665 q 137 810 139 774 q 124 854 135 846 q 108 828 115 849 q 95 778 101 811 q 85 685 89 744 z "},"m":{"ha":781,"x_min":29,"x_max":875,"o":"m 853 368 q 869 353 864 364 q 869 329 875 342 q 822 230 853 286 q 751 122 790 174 q 669 35 713 71 q 586 0 626 0 q 533 22 556 0 q 506 102 507 50 q 511 217 506 154 q 515 268 514 242 q 516 318 517 294 q 512 360 515 342 q 500 389 508 379 q 493 394 497 392 q 481 396 489 396 q 434 361 460 396 q 385 276 408 326 q 347 171 363 226 q 328 72 331 115 q 322 42 328 57 q 297 28 317 28 q 276 37 285 28 q 267 58 267 46 q 268 72 267 67 q 271 117 268 93 q 276 169 274 142 q 284 231 281 199 q 288 293 288 263 q 285 348 289 324 q 271 385 282 372 q 260 392 267 389 q 243 396 254 396 q 196 360 222 396 q 147 272 169 324 q 108 162 124 219 q 89 63 92 104 l 89 31 q 81 9 89 18 q 60 0 72 0 q 38 8 47 0 q 29 29 29 17 l 29 50 l 29 63 q 31 134 31 89 q 32 225 31 179 q 33 288 32 257 q 34 343 33 318 q 35 385 35 368 q 35 408 35 403 q 44 430 35 421 q 65 439 53 439 q 86 431 78 439 q 94 410 94 422 q 95 372 96 401 q 93 303 94 343 q 160 410 122 365 q 243 456 199 456 q 320 419 296 456 q 347 335 344 382 q 408 421 375 386 q 481 456 442 456 q 544 429 518 456 q 567 389 560 413 q 576 338 574 365 q 576 278 578 310 q 571 213 574 246 q 568 168 569 192 q 567 124 567 144 q 569 86 567 103 q 578 63 572 69 q 586 60 581 60 q 638 85 607 60 q 700 153 668 111 q 763 247 732 194 q 814 351 793 299 q 842 371 824 371 q 853 368 844 371 z "},"n":{"ha":544,"x_min":28,"x_max":639,"o":"m 617 368 q 633 353 628 364 q 633 331 639 342 q 585 231 617 288 q 515 122 554 174 q 433 35 476 71 q 350 0 390 0 q 297 22 319 0 q 270 102 271 50 q 275 217 269 154 q 279 268 278 242 q 280 318 281 294 q 276 360 279 342 q 264 389 272 379 q 257 394 261 392 q 244 396 253 396 q 213 378 231 396 q 178 331 196 360 q 145 265 161 301 q 117 190 129 228 q 98 115 106 151 q 90 51 90 79 q 84 15 90 29 q 58 0 78 0 q 37 8 46 0 q 28 29 28 17 q 28 53 28 35 q 28 99 28 72 q 30 160 29 126 q 31 226 31 193 q 31 288 31 257 q 33 343 32 318 q 33 385 33 368 q 33 408 33 403 q 42 430 33 421 q 64 439 51 439 q 85 431 76 439 q 93 410 93 422 q 94 370 94 401 q 92 297 93 339 q 124 358 107 329 q 160 409 140 388 q 201 443 179 431 q 244 456 222 456 q 308 429 282 456 q 331 389 324 413 q 340 338 338 365 q 340 278 342 310 q 335 213 338 246 q 332 168 333 192 q 331 124 331 144 q 333 86 331 103 q 342 63 335 69 q 350 60 342 60 q 401 85 371 60 q 464 153 432 111 q 526 247 496 194 q 578 351 557 299 q 606 371 588 371 q 617 368 608 371 z "},"o":{"ha":389,"x_min":-1,"x_max":483,"o":"m 461 368 q 478 353 474 364 q 479 329 483 342 q 426 253 464 292 q 311 201 388 215 q 297 131 308 167 q 266 65 286 94 q 216 18 246 36 q 144 0 186 0 q 38 53 78 0 q -1 192 -1 106 q 11 286 -1 239 q 47 371 24 333 q 101 431 69 408 q 172 454 133 454 q 228 438 204 454 q 270 395 253 422 q 298 334 288 368 q 311 263 308 300 q 424 351 394 279 q 450 371 431 371 q 461 368 453 371 m 250 196 q 197 204 224 196 q 147 228 169 213 q 107 267 124 244 q 86 317 90 289 q 66 256 74 289 q 58 192 58 224 q 81 95 58 131 q 144 60 104 60 q 190 73 171 60 q 222 106 210 86 q 242 149 235 125 q 250 196 249 174 m 251 257 q 244 303 250 281 q 229 345 238 326 q 209 376 221 364 q 183 393 197 389 q 144 348 146 369 q 153 308 142 326 q 194 269 168 281 q 251 257 221 257 z "},"p":{"ha":397,"x_min":-1,"x_max":325,"o":"m 183 454 q 224 449 200 454 q 270 423 247 443 q 309 365 293 403 q 325 261 325 326 q 312 167 325 214 q 274 83 299 121 q 215 23 249 46 q 139 0 181 0 q 99 6 115 0 q 68 24 82 13 q 65 -81 67 -31 q 61 -174 63 -132 q 59 -244 60 -215 q 58 -281 58 -272 q 49 -301 58 -293 q 29 -310 40 -310 l 28 -310 q 7 -301 15 -310 q -1 -279 -1 -292 q -1 -237 -1 -269 q 2 -159 0 -206 q 6 -54 4 -112 q 10 67 8 4 q 14 182 13 125 q 17 286 15 239 q 19 367 18 333 q 21 410 21 400 q 29 430 21 421 q 50 439 38 439 q 75 426 69 439 q 81 399 81 414 q 131 441 104 428 q 183 454 157 454 m 139 60 q 190 78 167 60 q 229 125 213 96 q 256 190 246 154 q 265 261 265 226 q 183 394 265 394 q 143 378 163 394 q 108 328 124 361 q 82 248 92 296 q 72 136 72 200 q 75 119 72 132 q 85 94 78 107 q 106 70 93 81 q 139 60 118 60 z "},"q":{"ha":385,"x_min":-7,"x_max":313,"o":"m 283 439 q 304 430 296 439 q 313 408 313 421 q 312 366 313 399 q 310 288 311 333 q 306 185 308 242 q 303 67 304 128 q 299 -51 301 7 q 295 -158 297 -110 q 292 -238 293 -206 q 292 -281 292 -271 q 283 -301 292 -293 q 261 -310 274 -310 q 240 -301 249 -310 q 232 -279 231 -292 q 233 -238 232 -269 q 235 -161 233 -207 q 238 -58 236 -115 q 242 61 240 0 q 190 15 218 29 q 135 0 163 0 q 94 6 118 0 q 48 31 71 11 q 9 88 25 50 q -7 192 -7 126 q 6 286 -7 239 q 44 371 19 333 q 104 431 69 408 q 181 454 139 454 q 224 446 206 454 q 258 425 243 438 q 283 439 265 439 m 135 60 q 211 125 176 60 q 246 318 246 190 q 243 335 246 322 q 233 360 240 347 q 214 384 226 374 q 181 394 201 394 q 129 376 153 394 q 89 329 106 358 q 63 264 72 300 q 53 192 53 228 q 135 60 53 60 z "},"r":{"ha":461,"x_min":-62,"x_max":554,"o":"m 532 368 q 549 353 544 364 q 550 329 554 342 q 502 230 533 286 q 432 122 471 174 q 350 35 393 71 q 265 0 307 0 q 231 8 244 0 q 211 22 218 15 q 188 96 188 50 q 196 200 189 142 q 201 244 199 221 q 203 288 203 267 q 201 324 204 308 q 192 349 199 340 q 185 353 189 350 q 171 356 182 356 q 138 358 156 356 q 100 365 119 361 q 94 344 97 353 q 88 331 90 335 q 60 311 81 311 q 50 313 53 311 q 33 329 39 318 q 32 351 28 340 q 38 368 35 360 q 44 386 42 376 q -33 442 -8 408 q -44 521 -62 482 q 21 567 -26 560 q 70 555 49 567 q 106 519 92 543 q 117 475 117 500 q 114 424 118 450 q 171 415 143 415 q 212 406 196 415 q 236 389 228 397 q 256 351 250 372 q 263 303 263 329 q 261 249 264 278 q 256 193 258 221 q 251 155 254 175 q 248 116 249 135 q 249 83 247 97 q 256 63 250 69 q 265 60 258 60 q 317 85 286 60 q 379 153 347 111 q 442 247 411 194 q 494 351 474 299 q 521 371 501 371 q 532 368 524 371 m 57 446 q 58 472 58 461 q 54 490 57 483 q 40 503 47 500 q 29 507 33 507 q 10 497 15 506 q 15 478 7 488 q 57 446 28 463 z "},"s":{"ha":478,"x_min":-28,"x_max":571,"o":"m 549 368 q 565 353 560 364 q 565 331 571 342 q 456 213 533 257 q 276 146 378 169 q 259 53 282 97 q 192 -12 236 10 q 127 -35 157 -29 q 60 -40 97 -40 q 1 -13 24 -36 q -25 44 -22 10 q -1 115 -28 79 q 86 164 26 151 q 147 176 118 171 q 201 189 175 182 q 192 211 197 200 q 181 233 186 222 q 159 283 169 258 q 142 329 149 307 q 135 372 136 351 q 144 410 135 393 q 153 421 150 418 q 88 329 118 404 q 60 311 81 311 q 49 313 53 311 q 33 329 38 318 q 32 351 28 340 q 91 444 56 413 q 164 476 126 475 q 187 474 172 476 q 217 468 201 472 q 244 458 232 464 q 261 443 257 451 q 269 422 269 435 q 258 401 268 410 q 250 399 256 399 q 235 402 243 399 q 221 406 228 406 q 197 382 204 406 q 197 360 194 374 q 206 329 200 346 q 220 294 213 313 q 235 260 228 276 q 248 232 242 246 q 260 204 254 218 q 369 237 325 219 q 440 273 413 254 q 484 311 468 292 q 510 351 500 331 q 538 371 519 371 q 549 368 540 371 m 218 131 q 97 106 158 117 q 49 81 64 99 q 35 47 33 64 q 65 19 38 24 q 119 25 92 19 q 168 43 146 31 q 204 77 190 56 q 218 131 218 99 z "},"t":{"ha":386,"x_min":-106,"x_max":479,"o":"m -106 536 q -97 558 -106 549 q -75 567 -87 567 l 35 567 q 49 774 38 688 q 93 894 61 861 q 138 914 113 914 q 189 885 171 914 q 206 832 201 865 q 209 756 211 799 q 199 665 207 714 q 181 567 192 617 l 256 567 q 277 558 268 567 q 286 536 286 549 q 277 516 286 525 q 256 507 268 507 l 167 507 q 135 397 151 449 q 101 307 118 344 q 101 305 101 306 q 100 303 100 304 q 112 212 104 256 q 131 134 119 168 q 158 80 143 100 q 192 60 174 60 q 244 85 214 60 q 308 153 275 111 q 370 247 340 194 q 419 351 400 299 q 447 371 426 371 q 457 369 454 371 q 474 353 468 365 q 475 331 479 342 q 424 222 457 281 q 353 115 392 164 q 273 33 315 65 q 192 0 231 0 q 132 23 157 0 q 90 81 107 46 q 63 158 72 115 q 47 241 53 201 q 40 313 42 281 q 38 361 38 346 l 38 365 q 35 437 36 401 q 35 507 35 472 l -75 507 q -97 516 -87 507 q -106 536 -106 525 m 94 567 l 121 567 q 140 669 132 619 q 149 757 147 718 q 149 822 151 796 q 138 854 146 849 q 122 828 129 849 q 109 778 115 811 q 99 685 103 744 q 97 627 97 657 q 94 567 96 597 m 96 468 q 101 488 99 478 q 106 507 103 497 l 94 507 q 94 488 94 497 q 96 468 94 478 z "},"u":{"ha":642,"x_min":25,"x_max":735,"o":"m 31 325 q 33 356 32 342 q 33 382 33 371 q 42 403 33 394 q 63 413 50 413 q 84 403 75 413 q 93 382 93 394 q 92 354 93 369 q 90 321 92 339 q 86 240 88 283 q 90 158 85 197 q 109 92 94 119 q 154 60 124 65 q 199 79 179 60 q 236 129 219 99 q 265 197 253 160 q 287 272 278 235 q 301 340 296 308 q 310 388 307 371 l 310 390 l 313 396 q 314 399 313 397 l 315 400 q 317 403 317 401 l 319 406 q 322 407 322 407 l 324 408 q 329 411 329 411 l 332 411 q 335 413 333 413 l 343 413 q 346 411 346 411 l 349 411 q 351 410 351 410 q 354 408 354 408 q 357 407 356 407 q 360 404 357 407 q 363 400 363 399 q 364 397 364 400 l 367 394 q 367 393 367 393 q 368 390 368 390 l 368 344 q 367 276 368 315 q 370 199 367 238 q 383 127 374 161 q 410 75 392 93 q 447 60 428 60 q 498 85 468 60 q 560 153 528 111 q 624 247 593 194 q 675 351 654 299 q 703 371 682 371 q 714 368 706 371 q 730 353 725 364 q 731 329 735 342 q 683 230 714 286 q 613 122 651 174 q 531 35 574 71 q 447 0 488 0 q 391 15 414 0 q 353 52 368 29 q 328 103 338 75 q 315 160 319 132 q 274 78 297 115 q 224 21 251 42 q 184 3 200 6 q 143 0 168 0 q 68 46 93 10 q 34 130 43 82 q 26 231 25 178 q 31 325 28 283 z "},"v":{"ha":475,"x_min":25,"x_max":568,"o":"m 547 368 q 563 353 558 364 q 564 331 568 342 q 539 285 556 308 q 496 242 522 261 q 431 210 469 222 q 338 196 392 197 q 295 101 321 146 q 238 29 269 57 q 192 4 211 8 q 143 0 174 0 q 69 46 93 10 q 35 130 44 82 q 26 231 25 178 q 31 325 28 283 q 33 356 32 342 q 33 382 33 371 q 42 403 33 394 q 64 413 51 413 q 85 403 76 413 q 93 382 93 394 q 92 354 93 369 q 90 321 92 339 q 87 240 89 283 q 90 158 85 197 q 110 92 96 119 q 154 60 125 65 q 177 63 169 60 q 199 75 185 65 q 242 129 222 94 q 278 206 263 164 q 225 240 247 217 q 200 299 203 263 q 208 364 196 335 q 244 408 221 393 q 292 424 268 424 q 325 415 311 424 q 364 343 364 396 q 354 257 364 300 q 508 351 472 263 q 536 371 515 371 q 547 368 539 371 m 294 263 q 302 303 300 283 q 304 343 304 324 q 303 353 304 347 q 297 363 303 360 q 292 364 296 364 q 278 360 286 364 q 260 304 256 344 q 270 279 261 289 q 294 263 279 269 z "},"w":{"ha":749,"x_min":28,"x_max":842,"o":"m 821 368 q 837 353 832 364 q 838 331 842 342 q 813 285 829 308 q 769 242 796 261 q 704 210 743 222 q 611 196 665 197 q 569 101 594 146 q 510 29 543 57 q 466 3 485 7 q 417 0 447 0 q 340 49 364 11 q 308 138 317 86 q 285 91 299 115 q 253 46 271 67 q 212 12 235 25 q 161 -1 189 -1 q 146 0 151 -1 q 71 46 96 10 q 37 130 46 82 q 29 231 28 178 q 33 325 31 283 q 35 356 35 342 q 36 382 36 371 q 44 403 36 394 q 65 413 53 413 q 87 403 78 413 q 96 382 96 394 q 95 354 96 369 q 93 321 94 339 q 89 240 90 283 q 92 158 88 197 q 112 92 97 119 q 157 60 126 65 q 202 79 182 60 q 239 129 222 99 q 268 197 256 160 q 290 271 281 235 q 304 338 299 307 q 311 386 310 369 q 323 406 314 397 q 343 413 332 414 q 371 382 371 410 q 370 352 371 368 q 368 317 369 336 q 363 238 365 281 q 366 157 361 194 q 385 92 371 119 q 428 60 399 65 q 451 63 443 60 q 472 75 458 65 q 516 129 496 94 q 551 206 536 164 q 499 240 521 217 q 474 299 476 263 q 482 364 469 335 q 518 408 494 393 q 565 424 542 424 q 599 415 585 424 q 638 343 638 396 q 628 257 638 300 q 782 351 746 263 q 808 371 789 371 q 821 368 813 371 m 568 263 q 575 303 572 283 q 578 343 578 324 q 577 353 578 347 q 571 363 576 360 q 565 364 569 364 q 551 360 560 364 q 533 304 529 344 q 544 279 535 289 q 568 263 553 269 z "},"x":{"ha":453,"x_min":-61,"x_max":547,"o":"m 525 368 q 542 353 536 364 q 543 331 547 342 q 487 221 522 279 q 408 113 451 163 q 316 32 364 64 q 221 0 268 0 q 92 44 144 0 q -32 0 28 0 q -53 9 -44 0 q -61 31 -61 18 q -53 51 -61 42 q -32 60 -44 60 q 54 90 8 60 q 19 222 22 143 q 44 392 17 300 q 74 413 51 413 q 82 411 79 413 q 99 397 93 408 q 101 374 106 386 q 78 234 78 297 q 101 128 78 171 q 203 253 157 181 q 276 393 250 326 q 304 413 283 413 q 315 410 307 413 q 332 394 326 406 q 332 372 338 383 q 297 295 318 335 q 251 217 276 256 q 198 144 226 179 q 140 82 169 110 q 221 60 176 60 q 291 86 253 60 q 366 155 329 113 q 435 249 403 197 q 486 351 467 301 q 514 371 496 371 q 525 368 517 371 z "},"y":{"ha":625,"x_min":26,"x_max":707,"o":"m 686 346 q 702 331 697 342 q 703 308 707 319 q 650 215 683 258 q 575 135 617 172 q 487 65 533 97 q 396 1 440 32 q 376 -12 386 -6 q 357 -25 367 -18 q 327 -179 346 -108 q 276 -282 308 -250 q 243 -305 260 -300 q 215 -310 226 -310 q 176 -299 193 -310 q 150 -274 160 -289 q 135 -242 140 -260 q 131 -210 131 -225 q 144 -149 131 -178 q 181 -92 157 -119 q 235 -40 204 -65 q 301 10 267 -15 q 306 76 304 42 q 311 144 308 110 q 272 72 293 104 q 225 21 250 40 q 185 3 201 6 q 144 0 169 0 q 70 46 94 10 q 36 130 46 82 q 28 231 26 178 q 32 325 29 283 q 34 356 33 342 q 35 382 35 371 q 44 403 35 394 q 64 413 53 413 q 85 403 76 413 q 94 382 94 394 q 94 354 94 369 q 92 321 93 339 q 88 240 89 283 q 91 158 86 197 q 110 92 96 119 q 156 60 125 65 q 159 59 158 60 q 163 58 160 58 q 189 69 175 58 q 228 116 210 85 q 264 190 247 147 q 293 283 281 232 q 311 386 306 333 q 322 405 313 397 q 342 413 331 413 q 364 404 356 413 q 374 383 372 396 q 374 341 374 372 q 374 265 375 310 q 372 165 374 219 q 365 53 369 110 q 450 111 407 81 q 531 176 493 142 q 600 248 569 210 q 647 329 631 286 q 675 349 654 349 q 686 346 678 349 m 290 -72 q 218 -140 246 -107 q 190 -210 190 -174 q 194 -231 192 -221 q 202 -244 197 -237 q 215 -250 207 -250 q 245 -226 232 -250 q 267 -172 258 -203 q 283 -112 276 -142 q 290 -72 289 -83 z "},"z":{"ha":444,"x_min":-28,"x_max":539,"o":"m 517 371 q 533 354 528 365 q 533 332 539 343 q 501 259 521 299 q 458 181 482 219 q 407 109 435 143 q 350 51 379 75 q 263 10 311 21 q 165 -1 214 -1 q 102 2 132 -1 q 49 10 72 6 q 11 18 26 14 q -6 22 -4 22 q -28 49 -25 29 q -10 78 -28 71 q 25 98 -10 78 q 106 156 60 118 q 199 251 153 194 q 269 382 246 307 q 211 376 246 376 q 106 392 163 376 q 101 367 106 385 q 90 333 97 350 q 74 302 83 315 q 54 289 65 289 q 44 290 47 289 q 24 305 32 293 q 22 328 17 317 q 38 368 33 351 q 46 396 43 385 q 49 419 49 410 q 49 438 46 429 q 60 453 53 447 q 78 458 71 458 q 96 451 86 458 q 131 434 111 439 q 175 429 151 429 q 246 438 211 429 q 301 453 281 446 q 310 454 304 454 q 331 446 322 454 q 340 418 342 435 q 299 296 328 351 q 233 196 269 240 q 156 119 196 151 q 85 65 117 86 q 125 60 104 63 q 168 58 146 58 q 247 67 208 58 q 313 99 285 75 q 361 148 338 118 q 406 212 385 178 q 447 283 428 246 q 478 353 465 319 q 507 372 486 372 q 517 371 514 372 z "},"{":{"ha":381,"x_min":68,"x_max":310,"o":"m 281 31 q 301 22 293 31 q 310 0 310 13 q 296 -25 310 -19 q 267 -31 282 -31 q 250 -31 258 -31 q 235 -32 242 -32 q 194 -28 213 -32 q 165 -12 176 -24 q 153 18 153 -3 q 153 90 153 46 q 152 188 153 133 q 151 306 151 243 q 151 435 151 369 l 75 435 q 70 443 72 435 q 68 464 68 451 q 70 485 68 476 q 75 494 72 494 l 151 494 q 151 656 151 578 q 150 794 150 733 q 150 891 150 854 q 150 929 150 928 q 158 950 150 940 q 179 960 167 960 l 272 960 q 292 951 283 960 q 301 929 301 942 q 292 908 301 917 q 272 900 283 900 l 210 900 q 210 799 210 865 q 210 651 210 733 q 211 476 211 568 q 212 299 211 385 q 213 142 213 214 q 213 29 213 71 l 229 29 l 264 29 q 273 30 268 29 q 281 31 278 31 z "},"|":{"ha":199,"x_min":68,"x_max":128,"o":"m 99 988 q 119 978 110 988 q 128 957 128 969 l 128 -44 q 119 -66 128 -57 q 99 -75 110 -75 q 77 -66 86 -75 q 68 -44 68 -57 l 68 957 q 77 978 68 969 q 99 988 86 988 z "},"}":{"ha":381,"x_min":68,"x_max":310,"o":"m 301 494 q 307 485 304 494 q 310 464 310 476 q 307 443 310 451 q 301 435 304 435 l 228 435 q 228 274 228 351 q 228 135 228 196 q 229 38 229 75 q 229 -1 229 0 q 219 -22 229 -12 q 199 -32 210 -32 l 107 -32 q 85 -23 94 -32 q 76 -1 76 -14 q 85 20 76 11 q 107 29 94 29 l 168 29 q 168 129 168 64 q 168 277 168 194 q 167 451 168 360 q 167 628 167 543 q 167 785 167 714 q 167 899 167 857 l 149 899 l 115 899 q 84 903 100 899 q 68 928 68 907 q 83 953 68 949 q 113 958 97 958 q 128 959 119 958 q 143 960 136 960 q 170 958 156 960 q 197 951 185 956 q 218 936 210 946 q 226 910 226 926 l 226 494 l 301 494 z "},"":{"ha":451,"x_min":0,"x_max":0,"o":""},"":{"ha":217,"x_min":68,"x_max":146,"o":"m 107 767 q 128 758 119 767 q 136 738 136 750 l 136 -122 q 128 -144 136 -135 q 107 -153 119 -153 q 85 -144 94 -153 q 76 -122 76 -135 l 76 738 q 85 758 76 750 q 107 767 94 767 m 107 828 q 80 841 92 828 q 68 874 68 854 q 80 906 68 893 q 107 918 92 918 q 134 906 122 918 q 146 874 146 893 q 134 841 146 854 q 107 828 122 828 z "},"":{"ha":656,"x_min":68,"x_max":586,"o":"m 68 192 q 95 324 68 260 q 169 424 122 389 l 169 533 q 178 554 169 546 q 200 563 188 563 q 221 554 213 563 q 229 533 229 546 l 229 451 q 242 453 236 453 q 256 454 249 454 q 320 435 294 454 q 353 379 346 415 q 353 335 357 358 q 340 292 350 313 q 314 256 329 272 q 279 232 299 240 q 268 229 271 229 q 240 249 247 229 q 240 271 235 260 q 256 288 244 282 q 287 319 275 294 q 294 368 299 344 q 285 385 292 376 q 256 394 279 394 q 242 393 249 394 q 229 389 236 392 l 229 60 l 239 60 q 323 85 281 60 q 403 153 365 111 q 474 247 442 194 q 526 351 506 299 q 554 371 533 371 q 565 368 557 371 q 581 353 576 364 q 582 329 586 342 q 528 222 563 279 q 450 115 494 164 q 351 33 406 65 q 239 0 297 0 l 229 0 l 229 -44 q 221 -66 229 -57 q 200 -75 213 -75 q 178 -66 188 -75 q 169 -44 169 -57 l 169 11 q 131 31 149 18 q 99 66 113 44 q 76 119 85 88 q 68 192 68 150 m 169 76 l 169 338 q 139 269 150 307 q 128 192 128 231 q 139 117 128 143 q 169 76 150 90 z "},"":{"ha":690,"x_min":68,"x_max":619,"o":"m 68 451 q 77 473 68 464 q 99 482 86 482 l 232 482 q 230 592 229 538 q 240 698 231 647 q 267 793 249 749 q 317 872 285 838 q 553 960 399 960 q 574 951 565 960 q 582 929 582 942 q 574 908 582 917 q 553 900 565 900 q 361 832 424 900 q 319 764 335 803 q 297 680 304 725 q 290 584 290 635 q 292 482 289 533 l 442 482 q 463 473 454 482 q 472 451 472 464 q 463 431 472 439 q 442 422 454 422 l 296 422 q 298 397 297 410 q 299 372 299 385 q 306 261 303 314 q 307 163 310 208 q 294 81 304 117 q 260 19 283 44 q 240 3 251 10 q 322 -27 275 -12 q 418 -42 369 -42 q 497 -28 458 -42 q 567 21 535 -15 q 589 31 576 31 q 610 22 601 31 q 619 2 619 14 q 611 -19 619 -10 q 526 -82 575 -61 q 418 -103 476 -103 q 311 -87 369 -103 q 247 -66 276 -78 q 195 -43 217 -54 q 160 -24 174 -32 q 146 -15 147 -15 q 133 18 126 -3 q 163 40 140 40 q 217 60 199 40 q 240 109 233 78 q 248 181 247 140 q 246 270 249 222 q 239 368 243 318 q 238 394 238 381 q 236 422 238 407 l 99 422 q 77 431 86 422 q 68 451 68 439 z "},"":{"ha":881,"x_min":68,"x_max":771,"o":"m 99 539 l 101 539 q 103 649 101 589 q 110 768 104 710 q 140 931 119 882 q 199 981 161 981 q 235 971 214 981 q 272 922 257 961 q 286 875 282 903 q 290 815 290 847 q 283 726 290 774 q 259 633 275 678 q 219 553 243 589 q 161 497 194 517 l 161 471 q 172 327 161 386 q 198 231 182 268 q 235 172 214 193 q 276 142 256 151 q 313 131 296 132 q 342 129 331 129 q 392 140 371 129 q 427 169 413 151 q 451 206 442 186 q 468 244 461 226 q 517 394 497 307 q 549 574 538 481 q 566 760 561 668 q 571 924 571 851 q 579 944 571 936 q 599 954 588 953 q 620 947 611 956 q 631 928 629 939 q 635 892 632 922 q 644 812 639 861 q 653 698 649 763 q 660 559 657 633 q 663 405 664 485 q 658 244 663 325 l 742 244 q 763 235 754 244 q 771 214 771 226 q 763 193 771 201 q 742 185 754 185 l 654 185 q 650 141 651 163 q 646 99 649 119 l 742 99 q 763 90 754 99 q 771 68 771 81 q 763 47 771 56 q 742 39 754 39 l 636 39 q 608 -85 626 -18 q 558 -209 590 -151 q 476 -306 525 -267 q 354 -344 426 -344 q 221 -317 275 -344 q 144 -239 167 -289 q 138 -150 126 -197 q 185 -67 149 -103 q 360 1 253 1 q 504 -28 429 1 q 520 -44 515 -33 q 521 -67 525 -56 q 493 -86 514 -86 q 482 -83 490 -86 q 360 -58 418 -58 q 228 -108 276 -58 q 197 -161 204 -132 q 200 -215 189 -190 q 254 -267 214 -249 q 354 -285 294 -285 q 449 -250 411 -285 q 513 -165 488 -215 q 553 -60 539 -115 q 575 39 568 -4 l 436 39 q 415 47 424 39 q 406 68 406 56 q 414 88 406 82 q 342 69 378 69 q 101 471 101 69 l 101 479 l 99 479 q 77 488 86 479 q 68 510 68 497 q 77 531 68 522 q 99 539 86 539 m 231 815 q 230 839 231 822 q 226 872 229 856 q 217 903 222 889 q 201 921 211 918 q 190 897 196 915 q 178 841 183 879 q 168 739 172 803 q 163 576 164 675 q 212 681 193 615 q 231 815 231 747 m 436 99 l 585 99 q 590 140 588 118 q 594 185 592 161 l 503 185 q 432 99 472 131 l 436 99 m 532 244 l 599 244 q 603 435 603 332 q 603 474 603 454 q 601 514 603 494 q 574 372 590 442 q 532 244 557 303 z "},"":{"ha":867,"x_min":65,"x_max":796,"o":"m 558 500 q 642 451 600 478 q 719 391 685 425 q 774 313 753 357 q 796 207 796 268 q 747 7 796 81 q 610 -74 697 -67 q 506 -181 578 -137 q 313 -225 435 -225 q 210 -206 254 -225 q 137 -156 167 -187 q 90 -86 107 -125 q 69 -6 74 -47 q 76 84 65 39 q 113 169 86 129 q 180 237 139 208 q 278 276 221 265 q 299 271 289 276 q 313 253 310 265 q 308 230 315 240 q 289 217 301 219 q 211 186 243 208 q 160 133 179 164 q 133 68 140 103 q 129 0 126 33 q 144 -58 132 -29 q 177 -111 156 -87 q 233 -150 199 -135 q 313 -165 267 -165 q 409 -154 361 -165 q 495 -117 457 -143 q 557 -48 533 -90 q 581 56 581 -6 q 563 140 581 104 q 517 203 546 175 q 452 253 489 231 q 375 297 415 275 q 292 344 333 319 q 217 403 250 369 q 163 480 183 436 q 142 583 142 524 q 156 679 142 639 q 192 746 169 719 q 245 786 215 772 q 306 804 275 800 q 397 938 326 889 q 572 988 467 988 q 655 973 617 988 q 721 932 693 958 q 765 869 749 906 q 781 786 781 832 q 769 715 781 750 q 733 653 757 681 q 674 610 710 626 q 593 593 639 593 q 572 601 581 593 q 564 622 564 610 q 572 644 564 635 q 593 653 581 653 q 650 665 626 653 q 690 695 674 676 q 713 738 706 714 q 721 786 721 763 q 679 890 721 853 q 572 926 638 926 q 414 876 471 926 q 357 735 357 826 q 373 655 357 689 q 417 594 389 621 q 481 544 444 567 q 558 500 518 522 m 633 -8 q 736 207 736 24 q 719 290 736 256 q 673 353 701 325 q 607 403 644 381 q 529 447 569 425 q 440 501 482 474 q 367 561 399 528 q 316 638 335 594 q 297 742 297 682 q 263 728 281 738 q 233 701 246 719 q 210 654 219 683 q 201 583 201 625 q 218 503 201 538 q 263 443 235 469 q 327 394 290 417 q 404 350 364 372 q 488 301 446 328 q 564 241 531 275 q 619 162 597 207 q 640 56 640 117 q 639 24 640 40 q 633 -8 638 7 z "},"":{"ha":1149,"x_min":68,"x_max":1078,"o":"m 856 556 q 872 539 867 550 q 872 517 878 528 q 819 409 853 467 q 740 301 785 351 q 642 219 696 251 q 529 186 588 186 q 469 194 500 186 q 415 223 439 201 q 374 282 390 244 q 358 379 358 319 q 372 473 358 426 q 410 557 385 519 q 469 617 435 594 q 546 640 504 640 q 610 621 585 640 q 643 565 636 601 q 644 522 647 544 q 630 478 640 499 q 604 442 619 458 q 569 418 589 426 q 558 417 565 417 q 531 435 538 417 q 530 457 525 446 q 546 474 535 468 q 577 506 565 481 q 585 554 589 532 q 576 572 582 563 q 546 581 569 581 q 494 563 518 581 q 454 515 471 544 q 428 451 438 486 q 418 379 418 415 q 428 310 418 336 q 453 269 438 283 q 488 250 468 254 q 529 246 508 246 q 613 272 571 246 q 694 339 656 297 q 764 433 732 381 q 817 539 796 486 q 844 557 824 557 q 856 556 851 557 m 574 935 q 769 895 678 935 q 930 787 861 856 q 1038 626 999 718 q 1078 431 1078 535 q 1038 234 1078 326 q 930 73 999 142 q 769 -35 861 4 q 574 -75 678 -75 q 377 -35 469 -75 q 216 73 285 4 q 108 234 147 142 q 68 431 68 326 q 108 626 68 535 q 216 787 147 718 q 377 895 285 856 q 574 935 469 935 m 574 -15 q 747 20 665 -15 q 888 116 828 56 q 983 258 949 176 q 1018 431 1018 339 q 983 603 1018 522 q 888 745 949 685 q 747 840 828 806 q 574 875 665 875 q 401 840 482 875 q 259 745 319 806 q 163 603 199 685 q 128 431 128 522 q 163 258 128 339 q 259 116 199 176 q 401 20 319 56 q 574 -15 482 -15 z "},"":{"ha":617,"x_min":68,"x_max":561,"o":"m 381 539 q 386 517 388 529 q 374 497 385 504 l 151 335 l 325 228 q 339 209 336 221 q 335 186 342 197 q 310 172 325 172 q 294 176 301 172 l 82 307 q 68 332 68 317 q 81 357 68 349 l 339 546 q 356 551 346 551 q 381 539 372 551 m 554 539 q 560 517 561 529 q 547 497 558 504 l 325 335 l 499 228 q 513 209 510 221 q 508 186 515 197 q 483 172 499 172 q 468 176 475 172 l 256 307 q 242 332 242 317 q 254 357 242 349 l 513 546 q 529 551 519 551 q 554 539 546 551 z "},"":{"ha":0,"x_min":0,"x_max":0,"o":""},"":{"ha":369,"x_min":68,"x_max":299,"o":"m 183 935 q 265 901 232 935 q 299 819 299 868 q 265 738 299 771 q 183 704 232 704 q 101 738 135 704 q 68 819 68 771 q 101 901 68 868 q 183 935 135 935 m 183 764 q 223 780 207 764 q 239 819 239 796 q 223 859 239 843 q 183 875 207 875 q 144 859 160 875 q 128 819 128 843 q 144 780 128 796 q 183 764 160 764 z "},"":{"ha":379,"x_min":68,"x_max":308,"o":"m 269 442 q 287 435 281 442 q 293 418 293 428 q 287 401 293 410 q 269 393 281 393 l 92 393 q 74 401 81 393 q 68 418 68 410 q 71 426 68 421 q 76 438 72 432 q 97 467 85 450 q 126 508 110 486 q 158 557 142 531 q 192 609 174 581 q 225 667 210 638 q 251 728 240 697 q 261 789 261 760 q 249 846 261 822 q 201 869 238 869 q 163 850 179 869 q 146 807 146 831 q 152 782 146 792 q 165 765 158 772 q 178 751 169 760 q 186 736 186 743 q 180 719 186 726 q 164 713 174 713 q 138 723 150 713 q 117 748 126 733 q 103 779 108 763 q 99 807 99 796 q 106 847 99 828 q 128 882 114 867 q 160 906 142 897 q 201 915 179 915 q 285 878 261 915 q 308 792 308 842 q 292 699 308 747 q 249 606 275 651 q 193 517 224 560 q 136 442 163 475 l 269 442 z "},"":{"ha":419,"x_min":68,"x_max":349,"o":"m 349 558 q 312 438 349 488 q 196 389 275 389 q 148 399 171 389 q 107 426 125 410 q 78 465 89 443 q 68 513 68 488 q 85 571 68 546 q 133 611 103 596 q 143 614 139 614 q 160 607 153 614 q 167 590 167 600 q 157 572 167 581 q 139 560 147 563 q 122 541 129 551 q 115 513 115 531 q 140 459 115 482 q 196 436 165 436 q 277 471 253 436 q 301 558 301 506 q 288 613 301 590 q 251 651 274 636 q 199 672 228 665 q 139 679 169 679 q 122 685 129 679 q 114 703 114 692 q 122 720 114 714 q 139 726 129 726 q 185 732 163 726 q 226 749 208 738 q 256 779 244 761 q 267 822 267 797 q 219 869 267 869 q 187 856 200 869 q 174 822 174 842 q 176 806 174 810 q 183 799 179 801 q 189 796 183 799 q 194 792 192 793 q 201 775 201 785 q 194 760 201 767 q 176 753 188 753 q 154 760 164 753 q 138 778 144 768 q 128 801 132 789 q 125 821 125 813 q 152 888 125 860 q 219 915 179 915 q 290 889 264 915 q 315 822 315 863 q 297 754 315 782 q 246 707 278 726 q 322 649 294 686 q 349 558 349 611 z "},"":{"ha":217,"x_min":68,"x_max":146,"o":"m 107 411 q 80 424 92 411 q 68 457 68 438 q 80 488 68 475 q 107 501 92 501 q 134 488 122 501 q 146 457 146 475 q 134 424 146 438 q 107 411 122 411 z "},"":{"ha":263,"x_min":68,"x_max":192,"o":"m 186 875 q 184 874 185 874 q 182 872 183 874 q 179 868 182 871 q 174 842 176 863 q 169 794 171 822 q 167 735 168 767 q 165 674 165 703 q 164 621 164 644 q 164 588 164 597 q 165 502 164 544 q 167 418 167 460 q 160 401 167 410 q 143 393 154 393 q 126 400 132 393 q 118 415 119 407 l 118 419 q 117 503 118 461 q 117 585 117 544 q 117 708 117 646 q 126 832 118 771 q 93 825 108 825 q 76 830 83 825 q 68 847 68 835 q 90 872 68 869 q 117 880 106 874 q 136 893 128 886 q 151 907 147 904 q 169 915 163 915 q 185 908 179 915 q 192 890 192 900 q 186 875 192 881 z "},"":{"ha":442,"x_min":68,"x_max":371,"o":"m 371 671 q 365 597 371 644 q 342 503 358 550 q 299 423 326 457 q 226 389 271 389 q 218 390 221 389 q 215 389 218 389 q 144 420 172 389 q 99 497 115 451 q 75 590 82 542 q 68 671 68 638 q 74 745 68 703 q 96 825 79 788 q 142 889 113 863 q 218 915 171 915 q 297 889 267 915 q 343 825 326 863 q 365 745 360 788 q 371 671 371 703 m 218 869 q 167 848 188 869 q 135 796 147 826 q 119 731 124 765 q 115 671 115 697 q 120 608 115 647 q 136 530 125 568 q 167 464 147 492 q 215 436 186 436 q 218 435 218 436 q 226 436 221 436 q 266 459 250 436 q 292 504 282 482 q 315 586 308 542 q 322 671 322 631 q 318 731 322 697 q 303 796 314 765 q 271 848 292 826 q 218 869 250 869 z "},"":{"ha":617,"x_min":71,"x_max":564,"o":"m 78 189 q 72 211 71 199 q 85 231 74 224 l 307 393 l 133 500 q 119 519 122 507 q 124 542 117 531 q 149 556 133 556 q 164 551 158 556 l 376 421 q 390 396 390 411 q 378 371 390 379 l 119 182 q 103 176 113 176 q 78 189 86 176 m 251 189 q 246 211 244 199 q 258 231 247 224 l 481 393 l 307 500 q 293 519 296 507 q 297 542 290 531 q 322 556 307 556 q 338 551 332 556 l 550 421 q 564 396 564 411 q 551 371 564 379 l 293 182 q 276 176 286 176 q 251 189 260 176 z "},"":{"ha":488,"x_min":53,"x_max":426,"o":"m 331 186 q 406 95 385 150 q 408 -19 426 40 q 346 -113 392 -78 q 244 -149 300 -149 q 115 -96 161 -149 q 72 133 53 -25 q 117 295 83 214 q 186 458 150 376 q 251 605 222 535 q 279 729 279 675 q 288 750 279 742 q 308 758 297 758 q 330 750 321 758 q 339 729 339 742 q 309 590 339 665 q 242 432 279 515 q 174 277 206 354 q 132 126 142 200 q 161 -57 115 -4 q 244 -89 189 -89 q 310 -65 281 -89 q 351 -1 340 -40 q 349 75 364 39 q 297 136 335 111 q 284 155 286 143 q 289 178 282 167 q 314 190 297 190 q 331 186 322 190 m 307 828 q 280 841 292 828 q 268 874 268 854 q 280 906 268 893 q 307 918 292 918 q 334 906 322 918 q 346 874 346 893 q 334 841 346 854 q 307 828 322 828 z "},"":{"ha":878,"x_min":-1,"x_max":924,"o":"m 894 600 q 915 590 906 599 q 924 569 924 582 q 915 549 924 557 q 893 540 906 540 q 855 525 875 540 q 815 482 835 510 l 815 478 q 815 421 815 454 q 815 349 815 388 q 812 271 814 311 q 807 193 810 231 q 776 30 797 79 q 718 -19 756 -19 q 678 -6 693 -19 q 656 27 664 7 q 647 69 649 47 q 644 110 644 92 q 652 196 644 146 q 674 299 660 246 q 708 404 688 351 q 756 499 729 457 l 756 542 l 394 547 q 346 38 346 292 l 346 36 q 317 6 343 6 q 301 10 310 6 q 286 38 286 18 q 286 63 286 49 q 288 96 286 76 q 289 193 288 136 q 291 303 290 250 q 292 397 292 357 q 292 444 292 438 q 292 493 292 468 q 293 544 292 518 l 293 579 q 294 668 294 624 q 288 751 293 713 q 273 822 283 790 q 243 872 263 854 q 182 896 221 896 q 126 885 150 896 q 88 857 103 875 q 65 817 72 839 q 58 772 58 796 q 103 667 58 706 q 213 629 149 629 q 233 620 225 629 q 242 600 242 611 q 233 578 242 588 q 213 569 225 569 q 129 584 168 569 q 61 625 90 599 q 15 689 32 651 q -1 772 -1 726 q 10 840 -1 807 q 45 898 22 872 q 102 940 68 924 q 182 956 136 956 q 277 924 243 956 q 328 844 311 892 q 350 742 346 796 q 354 642 354 688 q 596 988 436 988 q 743 888 688 988 q 813 601 799 788 l 894 600 m 751 601 q 700 841 740 756 q 596 926 660 926 q 490 844 538 926 q 407 607 442 763 l 751 601 m 717 42 q 728 65 722 49 q 739 118 733 82 q 749 213 744 154 q 754 360 753 271 q 733 293 744 329 q 705 122 704 189 q 717 42 706 54 m 538 1115 q 530 1138 529 1125 q 540 1158 531 1150 q 560 1165 550 1165 q 583 1156 574 1165 l 646 1083 q 653 1061 654 1074 q 643 1040 653 1049 q 624 1033 633 1033 q 601 1043 610 1033 l 538 1115 z "},"":{"ha":878,"x_min":-1,"x_max":924,"o":"m 894 600 q 915 590 906 599 q 924 569 924 582 q 915 549 924 557 q 893 540 906 540 q 855 525 875 540 q 815 482 835 510 l 815 478 q 815 421 815 454 q 815 349 815 388 q 812 271 814 311 q 807 193 810 231 q 776 30 797 79 q 718 -19 756 -19 q 678 -6 693 -19 q 656 27 664 7 q 647 69 649 47 q 644 110 644 92 q 652 196 644 146 q 674 299 660 246 q 708 404 688 351 q 756 499 729 457 l 756 542 l 394 547 q 346 38 346 292 l 346 36 q 317 6 343 6 q 301 10 310 6 q 286 38 286 18 q 286 63 286 49 q 288 96 286 76 q 289 193 288 136 q 291 303 290 250 q 292 397 292 357 q 292 444 292 438 q 292 493 292 468 q 293 544 292 518 l 293 579 q 294 668 294 624 q 288 751 293 713 q 273 822 283 790 q 243 872 263 854 q 182 896 221 896 q 126 885 150 896 q 88 857 103 875 q 65 817 72 839 q 58 772 58 796 q 103 667 58 706 q 213 629 149 629 q 233 620 225 629 q 242 600 242 611 q 233 578 242 588 q 213 569 225 569 q 129 584 168 569 q 61 625 90 599 q 15 689 32 651 q -1 772 -1 726 q 10 840 -1 807 q 45 898 22 872 q 102 940 68 924 q 182 956 136 956 q 277 924 243 956 q 328 844 311 892 q 350 742 346 796 q 354 642 354 688 q 596 988 436 988 q 743 888 688 988 q 813 601 799 788 l 894 600 m 751 601 q 700 841 740 756 q 596 926 660 926 q 490 844 538 926 q 407 607 442 763 l 751 601 m 717 42 q 728 65 722 49 q 739 118 733 82 q 749 213 744 154 q 754 360 753 271 q 733 293 744 329 q 705 122 704 189 q 717 42 706 54 m 554 1033 q 535 1040 544 1033 q 524 1061 525 1049 q 532 1083 524 1074 l 594 1156 q 618 1165 604 1165 q 638 1158 628 1165 q 648 1138 647 1150 q 640 1115 649 1125 l 576 1043 q 554 1033 568 1033 z "},"":{"ha":878,"x_min":-1,"x_max":924,"o":"m 182 956 q 277 924 243 956 q 328 844 311 892 q 350 742 346 796 q 354 642 354 688 q 596 988 436 988 q 743 888 688 988 q 813 601 799 788 l 894 600 q 915 590 906 599 q 924 569 924 582 q 915 549 924 557 q 893 540 906 540 q 855 525 875 540 q 815 482 835 510 l 815 478 q 815 421 815 454 q 815 349 815 388 q 812 271 814 311 q 807 193 810 231 q 776 30 797 79 q 718 -19 756 -19 q 678 -6 693 -19 q 656 27 664 7 q 647 69 649 47 q 644 110 644 92 q 652 196 644 146 q 674 299 660 246 q 708 404 688 351 q 756 499 729 457 l 756 542 l 394 547 q 358 299 371 425 q 346 47 346 172 l 346 36 q 317 6 343 6 q 301 10 310 6 q 286 38 286 18 q 286 63 286 49 q 288 96 286 76 q 289 193 288 136 q 291 303 290 250 q 292 397 292 357 q 292 444 292 438 q 292 493 292 468 q 293 544 292 518 l 293 579 q 294 668 294 624 q 288 751 293 713 q 273 822 283 790 q 243 872 263 854 q 182 896 221 896 q 126 885 150 896 q 88 857 103 875 q 65 817 72 839 q 58 772 58 796 q 103 667 58 706 q 213 629 149 629 q 233 620 225 629 q 242 600 242 611 q 233 578 242 588 q 213 569 225 569 q 129 584 168 569 q 61 625 90 599 q 15 689 32 651 q -1 772 -1 726 q 10 840 -1 807 q 45 898 22 872 q 102 940 68 924 q 182 956 136 956 m 751 601 q 700 841 740 756 q 596 926 660 926 q 490 844 538 926 q 407 607 442 763 l 751 601 m 501 1083 l 564 1156 l 565 1156 q 566 1157 565 1157 q 567 1158 567 1157 l 568 1158 q 571 1160 569 1160 l 574 1163 q 575 1163 575 1163 q 578 1164 578 1164 l 581 1164 q 583 1165 583 1165 l 589 1165 q 592 1164 592 1165 l 594 1164 q 597 1163 597 1164 q 600 1161 600 1163 q 603 1160 601 1161 q 604 1159 604 1160 q 606 1158 604 1158 l 607 1158 l 607 1157 q 610 1156 608 1156 l 672 1083 q 680 1061 681 1074 q 669 1040 679 1049 q 650 1033 660 1033 q 628 1043 636 1033 l 586 1090 l 546 1043 q 524 1033 538 1033 q 504 1040 514 1033 q 494 1061 494 1049 q 501 1083 493 1074 m 717 42 q 728 65 722 49 q 739 118 733 82 q 749 213 744 154 q 754 360 753 271 q 733 293 744 329 q 705 122 704 189 q 717 42 706 54 z "},"":{"ha":878,"x_min":-1,"x_max":924,"o":"m 894 600 q 915 590 906 599 q 924 569 924 582 q 915 549 924 557 q 893 540 906 540 q 855 525 875 540 q 815 482 835 510 l 815 478 q 815 421 815 454 q 815 349 815 388 q 812 271 814 311 q 807 193 810 231 q 776 30 797 79 q 718 -19 756 -19 q 678 -6 693 -19 q 656 27 664 7 q 647 69 649 47 q 644 110 644 92 q 652 196 644 146 q 674 299 660 246 q 708 404 688 351 q 756 499 729 457 l 756 542 l 394 547 q 346 38 346 292 l 346 36 q 317 6 343 6 q 301 10 310 6 q 286 38 286 18 q 286 63 286 49 q 288 96 286 76 q 289 193 288 136 q 291 303 290 250 q 292 397 292 357 q 292 444 292 438 q 292 493 292 468 q 293 544 292 518 l 293 579 q 294 668 294 624 q 288 751 293 713 q 273 822 283 790 q 243 872 263 854 q 182 896 221 896 q 126 885 150 896 q 88 857 103 875 q 65 817 72 839 q 58 772 58 796 q 103 667 58 706 q 213 629 149 629 q 233 620 225 629 q 242 600 242 611 q 233 578 242 588 q 213 569 225 569 q 129 584 168 569 q 61 625 90 599 q 15 689 32 651 q -1 772 -1 726 q 10 840 -1 807 q 45 898 22 872 q 102 940 68 924 q 182 956 136 956 q 277 924 243 956 q 328 844 311 892 q 350 742 346 796 q 354 642 354 688 q 596 988 436 988 q 743 888 688 988 q 813 601 799 788 l 894 600 m 751 601 q 700 841 740 756 q 596 926 660 926 q 490 844 538 926 q 407 607 442 763 l 751 601 m 717 42 q 728 65 722 49 q 739 118 733 82 q 749 213 744 154 q 754 360 753 271 q 733 293 744 329 q 705 122 704 189 q 717 42 706 54 m 501 1067 q 486 1085 490 1074 q 488 1107 482 1096 q 497 1120 489 1110 q 522 1136 506 1131 q 533 1139 528 1139 q 542 1139 538 1139 q 588 1125 564 1139 q 611 1118 601 1118 q 626 1122 621 1118 q 633 1126 632 1125 q 651 1132 644 1132 q 675 1119 667 1132 q 681 1098 682 1110 q 669 1079 681 1086 q 646 1065 661 1072 q 611 1058 631 1058 q 558 1074 583 1058 q 546 1078 550 1078 q 540 1079 542 1079 q 514 1064 532 1064 q 501 1067 510 1064 z "},"":{"ha":878,"x_min":-1,"x_max":924,"o":"m 894 600 q 915 590 906 599 q 924 569 924 582 q 915 549 924 557 q 893 540 906 540 q 855 525 875 540 q 815 482 835 510 l 815 478 q 815 421 815 454 q 815 349 815 388 q 812 271 814 311 q 807 193 810 231 q 776 30 797 79 q 718 -19 756 -19 q 678 -6 693 -19 q 656 27 664 7 q 647 69 649 47 q 644 110 644 92 q 652 196 644 146 q 674 299 660 246 q 708 404 688 351 q 756 499 729 457 l 756 542 l 394 547 q 346 38 346 292 l 346 36 q 317 6 343 6 q 301 10 310 6 q 286 38 286 18 q 286 63 286 49 q 288 96 286 76 q 289 193 288 136 q 291 303 290 250 q 292 397 292 357 q 292 444 292 438 q 292 493 292 468 q 293 544 292 518 l 293 579 q 294 668 294 624 q 288 751 293 713 q 273 822 283 790 q 243 872 263 854 q 182 896 221 896 q 126 885 150 896 q 88 857 103 875 q 65 817 72 839 q 58 772 58 796 q 103 667 58 706 q 213 629 149 629 q 233 620 225 629 q 242 600 242 611 q 233 578 242 588 q 213 569 225 569 q 129 584 168 569 q 61 625 90 599 q 15 689 32 651 q -1 772 -1 726 q 10 840 -1 807 q 45 898 22 872 q 102 940 68 924 q 182 956 136 956 q 277 924 243 956 q 328 844 311 892 q 350 742 346 796 q 354 642 354 688 q 596 988 436 988 q 743 888 688 988 q 813 601 799 788 l 894 600 m 751 601 q 700 841 740 756 q 596 926 660 926 q 490 844 538 926 q 407 607 442 763 l 751 601 m 717 42 q 728 65 722 49 q 739 118 733 82 q 749 213 744 154 q 754 360 753 271 q 733 293 744 329 q 705 122 704 189 q 717 42 706 54 m 626 1054 q 599 1067 610 1054 q 588 1099 588 1079 q 599 1131 588 1118 q 626 1144 610 1144 q 653 1131 642 1144 q 665 1099 665 1118 q 653 1067 665 1079 q 626 1054 642 1054 m 526 1054 q 499 1067 511 1054 q 488 1099 488 1079 q 499 1131 488 1118 q 526 1144 511 1144 q 554 1131 543 1144 q 565 1099 565 1118 q 554 1067 565 1079 q 526 1054 543 1054 z "},"":{"ha":878,"x_min":-1,"x_max":924,"o":"m 894 600 q 915 590 906 599 q 924 569 924 582 q 915 549 924 557 q 893 540 906 540 q 855 525 875 540 q 815 482 835 510 l 815 478 q 815 421 815 454 q 815 349 815 388 q 812 271 814 311 q 807 193 810 231 q 776 30 797 79 q 718 -19 756 -19 q 678 -6 693 -19 q 656 27 664 7 q 647 69 649 47 q 644 110 644 92 q 652 196 644 146 q 674 299 660 246 q 708 404 688 351 q 756 499 729 457 l 756 542 l 394 547 q 346 38 346 292 l 346 36 q 317 6 343 6 q 301 10 310 6 q 286 38 286 18 q 286 63 286 49 q 288 96 286 76 q 289 193 288 136 q 291 303 290 250 q 292 397 292 357 q 292 444 292 438 q 292 493 292 468 q 293 544 292 518 l 293 579 q 294 668 294 624 q 288 751 293 713 q 273 822 283 790 q 243 872 263 854 q 182 896 221 896 q 126 885 150 896 q 88 857 103 875 q 65 817 72 839 q 58 772 58 796 q 103 667 58 706 q 213 629 149 629 q 233 620 225 629 q 242 600 242 611 q 233 578 242 588 q 213 569 225 569 q 129 584 168 569 q 61 625 90 599 q 15 689 32 651 q -1 772 -1 726 q 10 840 -1 807 q 45 898 22 872 q 102 940 68 924 q 182 956 136 956 q 277 924 243 956 q 328 844 311 892 q 350 742 346 796 q 354 642 354 688 q 596 988 436 988 q 743 888 688 988 q 813 601 799 788 l 894 600 m 751 601 q 700 841 740 756 q 596 926 660 926 q 490 844 538 926 q 407 607 442 763 l 751 601 m 717 42 q 728 65 722 49 q 739 118 733 82 q 749 213 744 154 q 754 360 753 271 q 733 293 744 329 q 705 122 704 189 q 717 42 706 54 m 590 1015 q 531 1040 556 1015 q 507 1099 507 1064 q 531 1159 507 1135 q 590 1183 556 1183 q 651 1159 626 1183 q 675 1099 675 1135 q 651 1040 675 1064 q 590 1015 626 1015 m 590 1140 q 562 1128 574 1140 q 550 1099 550 1115 q 562 1070 550 1082 q 590 1058 574 1058 q 619 1070 607 1058 q 632 1099 632 1082 q 619 1128 632 1115 q 590 1140 607 1140 z "},"":{"ha":1265,"x_min":-1,"x_max":1288,"o":"m 1100 725 q 1199 758 1161 725 q 1228 824 1228 788 q 1209 872 1228 849 q 1143 896 1190 896 q 1058 881 1093 896 q 1000 842 1022 865 q 965 791 978 818 q 947 740 953 764 q 940 700 942 717 q 939 683 939 683 q 956 605 939 640 q 1004 550 974 569 q 1138 571 1067 571 q 1163 570 1150 571 q 1188 568 1175 569 l 1192 568 l 1197 565 q 1200 564 1199 565 q 1203 563 1201 564 l 1207 558 q 1211 551 1211 553 q 1213 549 1213 550 q 1214 546 1213 547 l 1214 543 l 1214 540 l 1214 538 l 1214 532 q 1213 529 1213 529 q 1211 526 1213 526 q 1210 524 1211 525 q 1209 522 1210 522 q 1208 521 1208 522 q 1204 517 1204 517 q 1135 482 1169 493 q 1069 471 1101 471 q 1000 485 1032 471 q 876 397 929 456 q 811 261 824 339 q 810 236 811 249 q 808 211 810 224 q 835 117 811 161 q 901 44 861 71 q 988 1 942 17 q 1085 -18 1035 -14 q 1183 -22 1136 -22 q 1205 -31 1196 -22 q 1214 -51 1214 -39 q 1206 -73 1215 -64 q 1186 -82 1197 -82 q 1075 -76 1132 -82 q 966 -53 1018 -71 q 868 -6 914 -36 q 790 75 822 25 q 762 3 779 25 q 718 -19 744 -19 q 678 -6 693 -19 q 656 27 664 7 q 647 69 649 47 q 644 110 644 92 q 652 196 644 146 q 674 299 660 246 q 708 404 688 351 q 756 499 729 457 l 756 542 l 394 547 q 346 38 346 292 q 338 15 344 24 q 317 6 332 6 q 301 10 310 6 q 286 38 286 18 q 286 63 286 49 q 288 96 286 76 q 289 193 288 136 q 291 303 290 250 q 292 397 292 357 q 292 444 292 438 q 292 493 292 468 q 293 544 292 518 l 293 579 q 294 668 294 624 q 288 751 293 713 q 273 822 283 790 q 243 872 263 854 q 182 896 221 896 q 126 885 150 896 q 88 857 103 875 q 65 817 72 839 q 58 772 58 796 q 103 667 58 706 q 213 629 149 629 q 233 620 225 629 q 242 600 242 611 q 233 578 242 588 q 213 569 225 569 q 129 584 168 569 q 61 625 90 599 q 15 689 32 651 q -1 772 -1 726 q 10 840 -1 807 q 45 898 22 872 q 102 940 68 924 q 182 956 136 956 q 277 924 243 956 q 328 844 311 892 q 350 742 346 796 q 354 642 354 688 q 596 988 436 988 q 743 888 688 988 q 813 601 799 788 l 893 600 q 878 683 878 639 q 897 790 878 740 q 951 877 917 840 q 1035 935 986 914 q 1143 957 1085 957 q 1206 946 1179 957 q 1251 916 1232 935 q 1278 873 1269 897 q 1288 824 1288 849 q 1271 756 1288 786 q 1228 706 1254 726 q 1168 676 1201 686 q 1100 665 1135 665 q 1078 674 1088 665 q 1069 696 1069 683 q 1078 717 1069 708 q 1100 725 1088 725 m 751 601 q 700 841 740 756 q 596 926 660 926 q 490 844 538 926 q 407 607 442 763 l 751 601 m 751 267 q 753 310 753 288 q 754 360 754 333 q 733 293 744 329 q 705 122 704 189 q 717 42 706 54 q 733 88 724 51 q 749 213 742 124 q 751 267 747 236 m 942 524 q 918 553 928 538 q 893 540 910 540 q 855 525 875 540 q 815 482 835 510 l 815 478 l 815 417 q 872 478 840 451 q 942 524 904 504 z "},"":{"ha":561,"x_min":-1,"x_max":629,"o":"m 356 601 q 431 612 393 601 q 500 643 469 622 q 550 695 531 664 q 569 769 569 726 q 560 816 569 793 q 534 856 551 839 q 489 885 517 874 q 424 896 461 896 q 292 872 349 896 q 196 808 236 847 q 129 719 156 768 q 87 621 103 669 q 65 528 71 572 q 58 457 58 485 q 74 290 58 375 q 131 136 89 206 q 246 22 172 67 q 438 -22 319 -22 q 458 -31 450 -22 q 467 -51 467 -40 q 458 -73 467 -64 q 438 -82 450 -82 q 394 -80 415 -82 q 354 -75 374 -78 q 352 -135 360 -107 q 321 -178 344 -162 q 289 -189 303 -189 q 254 -174 269 -189 q 234 -131 238 -157 q 243 -85 231 -104 q 257 -78 250 -78 q 267 -81 261 -78 q 271 -103 279 -90 q 266 -127 264 -112 q 278 -151 268 -142 q 289 -156 282 -156 q 295 -155 292 -156 q 303 -151 299 -154 q 324 -117 319 -140 q 321 -69 328 -94 q 81 100 164 -33 q -1 457 -1 233 q 6 539 -1 489 q 32 644 14 589 q 81 756 50 700 q 160 856 113 811 q 272 929 207 901 q 424 957 338 957 q 515 940 476 957 q 579 897 554 924 q 617 837 604 871 q 629 769 629 803 q 606 671 629 714 q 543 599 582 628 q 455 556 504 571 q 356 542 406 542 q 335 551 344 542 q 326 572 326 560 q 335 593 326 585 q 356 601 344 601 z "},"":{"ha":515,"x_min":-7,"x_max":538,"o":"m 51 397 q 192 524 107 481 q 146 594 163 553 q 129 683 129 636 q 149 792 129 742 q 203 878 168 842 q 286 936 238 915 q 394 957 335 957 q 457 946 431 957 q 501 916 483 935 q 528 873 519 897 q 538 824 538 849 q 522 756 538 786 q 479 706 506 726 q 419 676 453 686 q 350 665 385 665 q 328 674 338 665 q 319 696 319 683 q 328 717 319 708 q 350 725 338 725 q 449 758 411 725 q 478 824 478 788 q 459 872 478 849 q 394 896 440 896 q 309 881 344 896 q 251 842 274 865 q 215 791 228 818 q 197 740 203 764 q 190 700 192 717 q 189 683 189 683 q 206 605 189 640 q 256 550 224 569 q 388 571 318 571 q 413 570 400 571 q 438 568 425 569 l 442 568 q 447 565 447 568 q 450 564 450 565 q 453 563 451 564 q 456 561 454 561 q 456 560 456 560 q 457 558 457 560 l 460 556 q 463 551 461 553 l 463 549 q 464 546 464 547 l 464 543 q 465 540 465 542 l 465 536 l 464 535 l 464 532 q 463 529 464 529 q 461 525 463 526 l 461 524 l 458 521 q 454 517 457 517 q 386 482 419 493 q 321 471 353 471 q 250 485 282 471 q 167 435 204 465 q 103 364 129 406 q 58 238 63 304 q 86 117 54 171 q 151 44 111 71 q 238 1 192 17 q 335 -18 285 -14 q 433 -22 386 -22 q 455 -31 446 -22 q 465 -51 464 -39 q 457 -73 465 -64 q 436 -82 449 -82 l 407 -82 q 252 -65 317 -82 q 144 -22 188 -47 q 74 33 100 4 q 33 86 47 63 q -2 240 -7 157 q 51 397 3 322 m 314 1158 q 335 1165 324 1165 q 357 1156 349 1165 l 419 1083 q 427 1061 428 1074 q 418 1040 426 1049 q 397 1033 407 1033 q 375 1043 383 1033 l 311 1115 q 305 1138 304 1125 q 314 1158 306 1150 z "},"":{"ha":515,"x_min":-7,"x_max":538,"o":"m 51 397 q 192 524 107 481 q 146 594 163 553 q 129 683 129 636 q 149 792 129 742 q 203 878 168 842 q 286 936 238 915 q 394 957 335 957 q 457 946 431 957 q 501 916 483 935 q 528 873 519 897 q 538 824 538 849 q 522 756 538 786 q 479 706 506 726 q 419 676 453 686 q 350 665 385 665 q 328 674 338 665 q 319 696 319 683 q 328 717 319 708 q 350 725 338 725 q 449 758 411 725 q 478 824 478 788 q 459 872 478 849 q 394 896 440 896 q 309 881 344 896 q 251 842 274 865 q 215 791 228 818 q 197 740 203 764 q 190 700 192 717 q 189 683 189 683 q 206 605 189 640 q 256 550 224 569 q 388 571 318 571 q 413 570 400 571 q 438 568 425 569 l 442 568 q 447 565 447 568 q 450 564 450 565 q 453 563 451 564 q 456 561 454 561 q 456 560 456 560 q 457 558 457 560 l 460 556 q 463 551 461 553 l 463 549 q 464 546 464 547 l 464 543 q 465 540 465 542 l 465 536 l 464 535 l 464 532 q 463 529 464 529 q 461 525 463 526 l 461 524 l 458 521 q 454 517 457 517 q 386 482 419 493 q 321 471 353 471 q 250 485 282 471 q 167 435 204 465 q 103 364 129 406 q 58 238 63 304 q 86 117 54 171 q 151 44 111 71 q 238 1 192 17 q 335 -18 285 -14 q 433 -22 386 -22 q 455 -31 446 -22 q 465 -51 464 -39 q 457 -73 465 -64 q 436 -82 449 -82 l 407 -82 q 252 -65 317 -82 q 144 -22 188 -47 q 74 33 100 4 q 33 86 47 63 q -2 240 -7 157 q 51 397 3 322 m 275 1083 l 339 1156 q 361 1165 347 1165 q 382 1158 372 1165 q 391 1138 390 1150 q 385 1115 392 1125 l 321 1043 q 299 1033 313 1033 q 278 1040 289 1033 q 269 1061 269 1049 q 275 1083 268 1074 z "},"":{"ha":515,"x_min":-7,"x_max":538,"o":"m 51 397 q 192 524 107 481 q 146 594 163 553 q 129 683 129 636 q 149 792 129 742 q 203 878 168 842 q 286 936 238 915 q 394 957 335 957 q 457 946 431 957 q 501 916 483 935 q 528 873 519 897 q 538 824 538 849 q 522 756 538 786 q 479 706 506 726 q 419 676 453 686 q 350 665 385 665 q 328 674 338 665 q 319 696 319 683 q 328 717 319 708 q 350 725 338 725 q 449 758 411 725 q 478 824 478 788 q 459 872 478 849 q 394 896 440 896 q 309 881 344 896 q 251 842 274 865 q 215 791 228 818 q 197 740 203 764 q 190 700 192 717 q 189 683 189 683 q 206 605 189 640 q 256 550 224 569 q 388 571 318 571 q 413 570 400 571 q 438 568 425 569 l 442 568 q 447 565 447 568 q 450 564 450 565 q 453 563 451 564 q 456 561 454 561 q 456 560 456 560 q 457 558 457 560 l 460 556 q 463 551 461 553 l 463 549 q 464 546 464 547 l 464 543 q 465 540 465 542 l 465 536 l 464 535 l 464 532 q 463 529 464 529 q 461 525 463 526 l 461 524 l 458 521 q 454 517 457 517 q 386 482 419 493 q 321 471 353 471 q 250 485 282 471 q 167 435 204 465 q 103 364 129 406 q 58 238 63 304 q 86 117 54 171 q 151 44 111 71 q 238 1 192 17 q 335 -18 285 -14 q 433 -22 386 -22 q 455 -31 446 -22 q 465 -51 464 -39 q 457 -73 465 -64 q 436 -82 449 -82 l 407 -82 q 252 -65 317 -82 q 144 -22 188 -47 q 74 33 100 4 q 33 86 47 63 q -2 240 -7 157 q 51 397 3 322 m 275 1083 l 339 1156 l 340 1156 q 341 1157 340 1157 q 342 1158 342 1157 l 343 1158 q 346 1160 343 1160 l 349 1163 q 350 1163 350 1163 q 353 1164 353 1164 l 356 1164 q 358 1165 358 1165 l 364 1165 q 367 1164 367 1165 l 369 1164 q 372 1163 372 1164 q 375 1161 375 1163 q 378 1160 376 1161 q 379 1159 379 1160 q 381 1158 379 1158 l 382 1158 l 382 1157 l 447 1083 q 455 1061 456 1074 q 444 1040 454 1049 q 425 1033 435 1033 q 403 1043 411 1033 l 361 1090 l 321 1043 q 299 1033 313 1033 q 278 1040 289 1033 q 269 1061 269 1049 q 275 1083 268 1074 z "},"":{"ha":515,"x_min":-7,"x_max":538,"o":"m 51 397 q 192 524 107 481 q 146 594 163 553 q 129 683 129 636 q 149 792 129 742 q 203 878 168 842 q 286 936 238 915 q 394 957 335 957 q 457 946 431 957 q 501 916 483 935 q 528 873 519 897 q 538 824 538 849 q 522 756 538 786 q 479 706 506 726 q 419 676 453 686 q 350 665 385 665 q 328 674 338 665 q 319 696 319 683 q 328 717 319 708 q 350 725 338 725 q 449 758 411 725 q 478 824 478 788 q 459 872 478 849 q 394 896 440 896 q 309 881 344 896 q 251 842 274 865 q 215 791 228 818 q 197 740 203 764 q 190 700 192 717 q 189 683 189 683 q 206 605 189 640 q 256 550 224 569 q 388 571 318 571 q 413 570 400 571 q 438 568 425 569 l 442 568 q 447 565 447 568 q 450 564 450 565 q 453 563 451 564 q 456 561 454 561 q 456 560 456 560 q 457 558 457 560 l 460 556 q 463 551 461 553 l 463 549 q 464 546 464 547 l 464 543 q 465 540 465 542 l 465 536 l 464 535 l 464 532 q 463 529 464 529 q 461 525 463 526 l 461 524 l 458 521 q 454 517 457 517 q 386 482 419 493 q 321 471 353 471 q 250 485 282 471 q 167 435 204 465 q 103 364 129 406 q 58 238 63 304 q 86 117 54 171 q 151 44 111 71 q 238 1 192 17 q 335 -18 285 -14 q 433 -22 386 -22 q 455 -31 446 -22 q 465 -51 464 -39 q 457 -73 465 -64 q 436 -82 449 -82 l 407 -82 q 252 -65 317 -82 q 144 -22 188 -47 q 74 33 100 4 q 33 86 47 63 q -2 240 -7 157 q 51 397 3 322 m 407 1144 q 434 1131 422 1144 q 446 1099 446 1118 q 434 1067 446 1079 q 407 1054 422 1054 q 379 1067 390 1054 q 368 1099 368 1079 q 379 1131 368 1118 q 407 1144 390 1144 m 307 1144 q 335 1131 324 1144 q 346 1099 346 1118 q 335 1067 346 1079 q 307 1054 324 1054 q 280 1067 292 1054 q 268 1099 268 1079 q 280 1131 268 1118 q 307 1144 292 1144 z "},"":{"ha":425,"x_min":-1,"x_max":354,"o":"m 286 915 q 328 847 314 888 q 348 757 342 806 q 354 653 354 708 q 353 543 354 599 q 352 493 353 517 q 351 446 351 469 q 352 413 353 436 q 350 358 351 390 q 347 276 349 318 q 346 206 346 233 q 331 58 346 115 q 288 -30 317 1 q 217 -72 260 -61 q 119 -83 175 -83 q 98 -74 107 -83 q 89 -53 89 -65 q 98 -31 89 -40 q 119 -22 107 -22 q 186 -19 156 -22 q 239 6 217 -15 q 274 74 261 28 q 286 206 286 121 q 288 276 286 233 q 290 360 289 319 q 292 413 292 389 q 292 444 292 438 q 292 493 292 468 q 293 544 292 518 q 294 642 294 593 q 290 736 294 692 q 274 816 285 781 q 243 872 264 851 q 182 896 221 896 q 126 885 150 896 q 88 857 103 875 q 65 817 72 839 q 58 772 58 796 q 103 667 58 706 q 213 629 149 629 q 233 620 225 629 q 242 600 242 611 q 233 578 242 588 q 213 569 225 569 q 129 584 168 569 q 61 625 90 599 q 15 689 32 651 q -1 772 -1 726 q 10 840 -1 807 q 45 898 22 872 q 102 940 68 924 q 182 956 136 956 q 286 915 246 956 m 122 1115 q 115 1138 114 1125 q 125 1158 115 1150 q 144 1165 135 1165 q 167 1156 158 1165 l 231 1083 q 238 1061 239 1074 q 228 1040 238 1049 q 208 1033 218 1033 q 185 1043 194 1033 l 122 1115 z "},"":{"ha":425,"x_min":-1,"x_max":354,"o":"m 286 915 q 328 847 314 888 q 348 757 342 806 q 354 653 354 708 q 353 543 354 599 q 352 493 353 517 q 351 446 351 469 q 352 413 353 436 q 350 358 351 390 q 347 276 349 318 q 346 206 346 233 q 331 58 346 115 q 288 -30 317 1 q 217 -72 260 -61 q 119 -83 175 -83 q 98 -74 107 -83 q 89 -53 89 -65 q 98 -31 89 -40 q 119 -22 107 -22 q 186 -19 156 -22 q 239 6 217 -15 q 274 74 261 28 q 286 206 286 121 q 288 276 286 233 q 290 360 289 319 q 292 413 292 389 q 292 444 292 438 q 292 493 292 468 q 293 544 292 518 q 294 642 294 593 q 290 736 294 692 q 274 816 285 781 q 243 872 264 851 q 182 896 221 896 q 126 885 150 896 q 88 857 103 875 q 65 817 72 839 q 58 772 58 796 q 103 667 58 706 q 213 629 149 629 q 233 620 225 629 q 242 600 242 611 q 233 578 242 588 q 213 569 225 569 q 129 584 168 569 q 61 625 90 599 q 15 689 32 651 q -1 772 -1 726 q 10 840 -1 807 q 45 898 22 872 q 102 940 68 924 q 182 956 136 956 q 286 915 246 956 m 144 1033 q 125 1040 135 1033 q 115 1061 115 1049 q 122 1083 114 1074 l 185 1156 q 207 1165 193 1165 q 228 1158 218 1165 q 238 1138 238 1150 q 231 1115 239 1125 l 167 1043 q 144 1033 158 1033 z "},"":{"ha":425,"x_min":-1,"x_max":354,"o":"m -1 772 q 10 840 -1 807 q 45 898 22 872 q 102 940 68 924 q 182 956 136 956 q 286 915 246 956 q 328 847 314 888 q 348 757 342 806 q 354 653 354 708 q 353 543 354 599 q 352 493 353 517 q 351 446 351 469 q 352 413 353 436 q 350 358 351 390 q 347 276 349 318 q 346 206 346 233 q 331 58 346 115 q 288 -30 317 1 q 217 -72 260 -61 q 119 -83 175 -83 q 98 -74 107 -83 q 89 -53 89 -65 q 98 -31 89 -40 q 119 -22 107 -22 q 186 -19 156 -22 q 239 6 217 -15 q 274 74 261 28 q 286 206 286 121 q 288 276 286 233 q 290 360 289 319 q 292 413 292 389 q 292 444 292 438 q 292 493 292 468 q 293 544 292 518 q 294 642 294 593 q 290 736 294 692 q 274 816 285 781 q 243 872 264 851 q 182 896 221 896 q 126 885 150 896 q 88 857 103 875 q 65 817 72 839 q 58 772 58 796 q 103 667 58 706 q 213 629 149 629 q 233 620 225 629 q 242 600 242 611 q 233 578 242 588 q 213 569 225 569 q 129 584 168 569 q 61 625 90 599 q 15 689 32 651 q -1 772 -1 726 m 90 1083 l 157 1158 q 160 1160 158 1160 q 163 1161 161 1161 q 165 1163 163 1163 q 168 1164 165 1164 l 171 1164 q 174 1165 171 1165 l 179 1165 q 182 1164 181 1165 l 185 1164 q 188 1163 186 1164 q 190 1161 189 1163 q 193 1160 192 1161 l 194 1158 l 196 1158 q 199 1156 196 1158 l 263 1083 q 270 1061 271 1074 q 260 1040 269 1049 q 239 1033 250 1033 q 217 1043 226 1033 l 176 1090 l 135 1043 q 113 1033 126 1033 q 93 1040 103 1033 q 83 1061 83 1049 q 90 1083 82 1074 z "},"":{"ha":425,"x_min":-1,"x_max":354,"o":"m 286 915 q 328 847 314 888 q 348 757 342 806 q 354 653 354 708 q 353 543 354 599 q 352 493 353 517 q 351 446 351 469 q 352 413 353 436 q 350 358 351 390 q 347 276 349 318 q 346 206 346 233 q 331 58 346 115 q 288 -30 317 1 q 217 -72 260 -61 q 119 -83 175 -83 q 98 -74 107 -83 q 89 -53 89 -65 q 98 -31 89 -40 q 119 -22 107 -22 q 186 -19 156 -22 q 239 6 217 -15 q 274 74 261 28 q 286 206 286 121 q 288 276 286 233 q 290 360 289 319 q 292 413 292 389 q 292 444 292 438 q 292 493 292 468 q 293 544 292 518 q 294 642 294 593 q 290 736 294 692 q 274 816 285 781 q 243 872 264 851 q 182 896 221 896 q 126 885 150 896 q 88 857 103 875 q 65 817 72 839 q 58 772 58 796 q 103 667 58 706 q 213 629 149 629 q 233 620 225 629 q 242 600 242 611 q 233 578 242 588 q 213 569 225 569 q 129 584 168 569 q 61 625 90 599 q 15 689 32 651 q -1 772 -1 726 q 10 840 -1 807 q 45 898 22 872 q 102 940 68 924 q 182 956 136 956 q 286 915 246 956 m 226 1054 q 199 1067 210 1054 q 188 1099 188 1079 q 199 1131 188 1118 q 226 1144 210 1144 q 253 1131 242 1144 q 265 1099 265 1118 q 253 1067 265 1079 q 226 1054 242 1054 m 126 1054 q 99 1067 111 1054 q 88 1099 88 1079 q 99 1131 88 1118 q 126 1144 111 1144 q 153 1131 142 1144 q 165 1099 165 1118 q 153 1067 165 1079 q 126 1054 142 1054 z "},"":{"ha":919,"x_min":-1,"x_max":849,"o":"m 849 451 q 840 431 849 439 q 819 422 832 422 q 815 421 817 422 q 814 312 815 372 q 807 193 813 251 q 777 30 797 79 q 718 -19 757 -19 q 671 -2 689 -19 q 643 41 653 15 q 630 95 633 67 q 626 146 626 124 q 634 235 626 188 q 658 328 642 283 q 698 408 674 372 q 756 464 722 444 q 754 531 756 488 q 748 626 753 575 q 733 731 743 678 q 706 828 724 785 q 661 899 688 871 q 596 926 635 926 q 482 831 533 926 q 396 553 431 735 q 346 38 346 299 q 338 15 344 24 q 317 6 332 6 q 301 10 310 6 q 286 38 286 18 q 286 49 286 42 q 287 61 286 54 q 288 78 288 68 q 289 174 288 115 q 291 291 290 233 q 292 392 292 349 q 292 444 292 436 q 292 493 292 468 q 293 544 292 518 q 294 642 294 593 q 290 736 294 692 q 274 816 285 781 q 243 872 264 851 q 182 896 221 896 q 126 885 150 896 q 88 857 103 875 q 65 817 72 839 q 58 772 58 796 q 103 667 58 706 q 213 629 149 629 q 233 620 225 629 q 242 600 242 611 q 233 578 242 588 q 213 569 225 569 q 129 584 168 569 q 61 625 90 599 q 15 689 32 651 q -1 772 -1 726 q 10 840 -1 807 q 45 898 22 872 q 102 940 68 924 q 182 956 136 956 q 277 924 243 956 q 328 844 311 892 q 349 743 344 797 q 354 643 354 689 q 393 775 371 713 q 445 885 415 838 q 513 960 475 932 q 596 988 550 988 q 758 858 701 988 q 815 490 815 728 l 815 482 q 840 474 831 482 q 849 451 849 467 m 715 40 q 727 64 721 46 q 739 120 733 82 q 749 223 744 158 q 756 385 754 288 q 705 279 724 344 q 686 146 686 214 q 688 123 686 139 q 692 90 689 107 q 701 58 694 72 q 715 40 707 44 m 440 1067 q 425 1085 429 1074 q 426 1107 421 1096 q 437 1120 429 1110 q 463 1136 444 1131 q 482 1139 468 1139 q 526 1125 504 1139 q 550 1118 540 1118 q 565 1122 560 1118 q 572 1126 571 1125 q 590 1132 583 1132 q 614 1119 606 1132 q 620 1098 621 1110 q 610 1079 619 1086 q 585 1065 600 1072 q 550 1058 569 1058 q 497 1074 522 1058 q 485 1078 489 1078 q 479 1079 481 1079 q 454 1064 471 1064 q 440 1067 449 1064 z "},"":{"ha":699,"x_min":-1,"x_max":628,"o":"m 561 588 q 613 488 597 542 q 628 379 628 435 q 615 270 628 324 q 581 171 603 217 q 471 35 538 83 q 329 -12 404 -12 q 174 33 238 -12 q 72 149 111 78 q 16 309 33 221 q -1 483 -1 397 q 19 658 -1 568 q 83 824 39 749 q 196 947 126 899 q 365 996 265 996 q 469 967 422 996 q 549 883 517 938 q 585 767 581 828 q 564 661 589 707 q 475 572 532 603 q 344 542 418 542 q 323 551 332 542 q 314 572 314 560 q 323 593 314 585 q 344 601 332 601 q 412 610 383 601 q 460 633 440 619 q 492 663 479 647 q 511 690 504 678 q 525 767 529 722 q 497 853 521 813 q 440 915 474 893 q 365 936 406 936 q 238 904 290 936 q 151 823 185 872 q 98 717 117 774 q 70 609 79 660 q 60 523 61 558 q 58 483 58 488 q 60 435 58 472 q 70 350 63 399 q 95 249 78 301 q 142 151 113 196 q 218 76 172 106 q 329 47 264 47 q 439 87 388 47 q 526 197 490 126 q 559 292 549 243 q 567 388 569 342 q 552 477 565 435 q 514 551 539 519 q 508 574 507 561 q 519 593 510 586 q 538 600 529 600 q 561 588 553 600 m 260 1115 q 252 1138 251 1125 q 263 1158 253 1150 q 282 1165 272 1165 q 304 1156 296 1165 l 368 1083 q 375 1061 375 1074 q 365 1040 375 1049 q 344 1033 356 1033 q 322 1043 331 1033 l 260 1115 z "},"":{"ha":699,"x_min":-1,"x_max":628,"o":"m 561 588 q 613 488 597 542 q 628 379 628 435 q 615 270 628 324 q 581 171 603 217 q 471 35 538 83 q 329 -12 404 -12 q 174 33 238 -12 q 72 149 111 78 q 16 309 33 221 q -1 483 -1 397 q 19 658 -1 568 q 83 824 39 749 q 196 947 126 899 q 365 996 265 996 q 469 967 422 996 q 549 883 517 938 q 585 767 581 828 q 564 661 589 707 q 475 572 532 603 q 344 542 418 542 q 323 551 332 542 q 314 572 314 560 q 323 593 314 585 q 344 601 332 601 q 412 610 383 601 q 460 633 440 619 q 492 663 479 647 q 511 690 504 678 q 525 767 529 722 q 497 853 521 813 q 440 915 474 893 q 365 936 406 936 q 238 904 290 936 q 151 823 185 872 q 98 717 117 774 q 70 609 79 660 q 60 523 61 558 q 58 483 58 488 q 60 435 58 472 q 70 350 63 399 q 95 249 78 301 q 142 151 113 196 q 218 76 172 106 q 329 47 264 47 q 439 87 388 47 q 526 197 490 126 q 559 292 549 243 q 567 388 569 342 q 552 477 565 435 q 514 551 539 519 q 508 574 507 561 q 519 593 510 586 q 538 600 529 600 q 561 588 553 600 m 282 1033 q 263 1040 272 1033 q 252 1061 253 1049 q 260 1083 251 1074 l 322 1156 q 344 1165 331 1165 q 365 1158 356 1165 q 375 1138 375 1150 q 368 1115 375 1125 l 304 1043 q 282 1033 296 1033 z "},"":{"ha":699,"x_min":-1,"x_max":628,"o":"m 365 996 q 469 967 422 996 q 549 883 517 938 q 585 767 581 828 q 564 661 589 707 q 475 572 532 603 q 344 542 418 542 q 323 551 332 542 q 314 572 314 560 q 323 593 314 585 q 344 601 332 601 q 412 610 383 601 q 460 633 440 619 q 492 663 479 647 q 511 690 504 678 q 525 767 529 722 q 497 853 521 813 q 440 915 474 893 q 365 936 406 936 q 238 904 290 936 q 151 823 185 872 q 98 717 117 774 q 70 609 79 660 q 60 523 61 558 q 58 483 58 488 q 60 435 58 472 q 70 350 63 399 q 95 249 78 301 q 142 151 113 196 q 218 76 172 106 q 329 47 264 47 q 439 87 388 47 q 526 197 490 126 q 559 292 549 243 q 567 388 569 342 q 552 477 565 435 q 514 551 539 519 q 508 574 507 561 q 519 593 510 586 q 538 600 529 600 q 561 588 553 600 q 613 488 597 542 q 628 379 628 435 q 615 270 628 324 q 581 171 603 217 q 471 35 538 83 q 329 -12 404 -12 q 174 33 238 -12 q 72 149 111 78 q 16 309 33 221 q -1 483 -1 397 q 19 658 -1 568 q 83 824 39 749 q 196 947 126 899 q 365 996 265 996 m 228 1083 l 290 1156 q 293 1158 292 1156 l 294 1158 q 297 1160 296 1160 q 300 1161 297 1161 l 303 1164 q 304 1164 304 1164 l 307 1164 q 311 1165 308 1165 l 317 1165 q 319 1164 318 1165 l 322 1164 q 325 1163 324 1164 q 328 1161 326 1163 q 331 1160 331 1160 l 332 1158 l 333 1158 q 336 1156 333 1157 l 399 1083 q 406 1061 407 1074 q 396 1040 406 1049 q 376 1033 386 1033 q 354 1043 363 1033 l 314 1090 l 272 1043 q 250 1033 264 1033 q 231 1040 240 1033 q 220 1061 221 1049 q 228 1083 219 1074 z "},"":{"ha":699,"x_min":-1,"x_max":628,"o":"m 561 588 q 613 488 597 542 q 628 379 628 435 q 615 270 628 324 q 581 171 603 217 q 471 35 538 83 q 329 -12 404 -12 q 174 33 238 -12 q 72 149 111 78 q 16 309 33 221 q -1 483 -1 397 q 19 658 -1 568 q 83 824 39 749 q 196 947 126 899 q 365 996 265 996 q 469 967 422 996 q 549 883 517 938 q 585 767 581 828 q 564 661 589 707 q 475 572 532 603 q 344 542 418 542 q 323 551 332 542 q 314 572 314 560 q 323 593 314 585 q 344 601 332 601 q 412 610 383 601 q 460 633 440 619 q 492 663 479 647 q 511 690 504 678 q 525 767 529 722 q 497 853 521 813 q 440 915 474 893 q 365 936 406 936 q 238 904 290 936 q 151 823 185 872 q 98 717 117 774 q 70 609 79 660 q 60 523 61 558 q 58 483 58 488 q 60 435 58 472 q 70 350 63 399 q 95 249 78 301 q 142 151 113 196 q 218 76 172 106 q 329 47 264 47 q 439 87 388 47 q 526 197 490 126 q 559 292 549 243 q 567 388 569 342 q 552 477 565 435 q 514 551 539 519 q 508 574 507 561 q 519 593 510 586 q 538 600 529 600 q 561 588 553 600 m 232 1067 q 217 1085 221 1074 q 218 1107 213 1096 q 227 1120 219 1110 q 253 1136 235 1131 q 263 1139 258 1139 q 272 1139 268 1139 q 318 1125 294 1139 q 340 1118 332 1118 q 356 1122 350 1118 q 364 1126 361 1125 q 382 1132 375 1132 q 406 1119 397 1132 q 411 1098 413 1110 q 400 1079 410 1086 q 376 1065 392 1072 q 342 1058 361 1058 q 289 1074 314 1058 q 276 1078 281 1078 q 271 1079 272 1079 q 244 1064 263 1064 q 232 1067 240 1064 z "},"":{"ha":699,"x_min":-1,"x_max":628,"o":"m 561 588 q 613 488 597 542 q 628 379 628 435 q 615 270 628 324 q 581 171 603 217 q 471 35 538 83 q 329 -12 404 -12 q 174 33 238 -12 q 72 149 111 78 q 16 309 33 221 q -1 483 -1 397 q 19 658 -1 568 q 83 824 39 749 q 196 947 126 899 q 365 996 265 996 q 469 967 422 996 q 549 883 517 938 q 585 767 581 828 q 564 661 589 707 q 475 572 532 603 q 344 542 418 542 q 323 551 332 542 q 314 572 314 560 q 323 593 314 585 q 344 601 332 601 q 412 610 383 601 q 460 633 440 619 q 492 663 479 647 q 511 690 504 678 q 525 767 529 722 q 497 853 521 813 q 440 915 474 893 q 365 936 406 936 q 238 904 290 936 q 151 823 185 872 q 98 717 117 774 q 70 609 79 660 q 60 523 61 558 q 58 483 58 488 q 60 435 58 472 q 70 350 63 399 q 95 249 78 301 q 142 151 113 196 q 218 76 172 106 q 329 47 264 47 q 439 87 388 47 q 526 197 490 126 q 559 292 549 243 q 567 388 569 342 q 552 477 565 435 q 514 551 539 519 q 508 574 507 561 q 519 593 510 586 q 538 600 529 600 q 561 588 553 600 m 363 1054 q 335 1067 347 1054 q 324 1099 324 1079 q 335 1131 324 1118 q 363 1144 347 1144 q 390 1131 379 1144 q 401 1099 401 1118 q 390 1067 401 1079 q 363 1054 379 1054 m 264 1054 q 236 1067 247 1054 q 225 1099 225 1079 q 236 1131 225 1118 q 264 1144 247 1144 q 291 1131 279 1144 q 303 1099 303 1118 q 291 1067 303 1079 q 264 1054 279 1054 z "},"":{"ha":543,"x_min":68,"x_max":474,"o":"m 76 306 l 228 457 l 76 607 q 68 629 68 617 q 76 650 68 642 q 99 658 88 658 q 119 650 111 658 l 271 499 l 422 650 q 443 658 431 658 q 464 650 456 658 q 474 629 474 642 q 464 607 474 617 l 313 457 l 464 306 q 474 284 474 296 q 464 263 474 272 q 443 254 456 254 q 422 263 431 254 l 271 414 l 119 263 q 99 254 111 254 q 76 263 88 254 q 68 284 68 272 q 76 306 68 296 z "},"":{"ha":699,"x_min":-1,"x_max":628,"o":"m 561 588 q 613 488 597 542 q 628 379 628 435 q 615 270 628 324 q 581 171 603 217 q 471 35 538 83 q 329 -12 404 -12 q 233 3 276 -12 q 156 47 190 19 q 127 -44 138 -7 q 114 -97 117 -82 q 106 -118 114 -110 q 85 -128 97 -126 q 64 -118 72 -128 q 54 -96 56 -108 q 69 -35 54 -86 q 108 94 83 15 q 58 178 79 132 q 24 274 38 224 q 5 378 11 325 q -1 483 -1 432 q 19 658 -1 568 q 83 824 39 749 q 196 947 126 899 q 365 996 265 996 q 438 982 406 996 q 472 1046 456 1019 q 500 1088 488 1072 q 542 1111 521 1111 q 563 1101 554 1111 q 572 1078 572 1092 q 565 1057 572 1065 q 547 1046 558 1049 q 522 1015 536 1039 q 489 953 508 990 q 549 883 522 928 q 585 767 581 828 q 564 661 589 707 q 475 572 532 603 q 344 542 418 542 q 326 547 338 542 q 245 317 285 432 q 175 110 206 203 q 241 65 203 82 q 329 47 279 47 q 439 87 388 47 q 526 197 490 126 q 559 292 549 243 q 567 388 569 342 q 552 477 565 435 q 514 551 539 519 q 508 574 507 561 q 519 593 510 586 q 538 600 529 600 q 561 588 553 600 m 464 896 q 407 760 436 835 q 346 601 378 685 q 413 611 385 601 q 460 634 440 621 q 492 663 481 647 q 511 690 504 678 q 525 767 529 722 q 497 853 521 813 q 464 896 483 876 m 132 167 q 194 356 160 254 q 267 559 229 457 q 342 757 304 661 q 413 928 379 853 q 365 936 390 936 q 238 904 290 936 q 151 823 185 872 q 98 717 117 774 q 70 609 79 660 q 60 523 61 558 q 58 483 58 488 q 60 440 58 474 q 69 360 61 406 q 91 263 76 314 q 132 167 106 211 z "},"":{"ha":674,"x_min":-1,"x_max":696,"o":"m 667 6 q 688 -3 679 6 q 696 -24 696 -11 q 688 -45 696 -36 q 667 -54 679 -54 q 594 -35 624 -54 q 546 16 565 -15 q 516 88 526 47 q 501 169 506 128 q 495 249 496 210 q 494 318 494 289 q 455 186 478 249 q 402 76 432 124 q 335 1 372 29 q 251 -26 297 -26 q 90 103 147 -26 q 32 471 32 233 l 32 479 q 8 487 18 479 q -1 510 -1 494 q 8 532 -1 525 q 32 539 18 539 q 33 649 32 589 q 40 768 35 710 q 71 931 50 882 q 129 981 92 981 q 166 971 144 981 q 203 922 188 961 q 217 875 213 903 q 221 815 221 847 q 213 726 221 774 q 190 633 206 678 q 149 553 174 589 q 92 497 125 517 l 92 471 q 103 289 92 369 q 135 151 114 208 q 185 64 156 94 q 251 33 214 33 q 365 130 314 33 q 451 408 417 226 q 488 665 475 535 q 501 924 501 794 l 503 924 q 507 943 504 939 q 517 951 510 947 q 532 956 524 956 q 546 951 540 956 q 561 924 561 943 l 561 883 q 559 787 560 846 q 558 670 558 728 q 556 569 557 613 q 556 517 556 525 q 556 467 556 493 q 554 414 556 442 q 554 301 554 360 q 559 190 554 243 q 576 94 564 138 q 611 28 589 51 q 667 6 633 6 m 132 921 q 120 897 126 915 q 108 841 114 879 q 99 739 103 803 q 93 576 94 675 q 142 681 124 615 q 161 815 161 747 q 160 840 161 824 q 156 872 160 856 q 147 903 153 889 q 132 921 142 917 m 293 1115 q 285 1138 285 1125 q 296 1158 286 1150 q 315 1165 306 1165 q 338 1156 328 1165 l 401 1083 q 409 1061 410 1074 q 399 1040 408 1049 q 379 1033 389 1033 q 357 1043 365 1033 l 293 1115 z "},"":{"ha":674,"x_min":-1,"x_max":696,"o":"m 667 6 q 688 -3 679 6 q 696 -24 696 -11 q 688 -45 696 -36 q 667 -54 679 -54 q 594 -35 624 -54 q 546 16 565 -15 q 516 88 526 47 q 501 169 506 128 q 495 249 496 210 q 494 318 494 289 q 455 186 478 249 q 402 76 432 124 q 335 1 372 29 q 251 -26 297 -26 q 90 103 147 -26 q 32 471 32 233 l 32 479 q 8 487 18 479 q -1 510 -1 494 q 8 532 -1 525 q 32 539 18 539 q 33 649 32 589 q 40 768 35 710 q 71 931 50 882 q 129 981 92 981 q 166 971 144 981 q 203 922 188 961 q 217 875 213 903 q 221 815 221 847 q 213 726 221 774 q 190 633 206 678 q 149 553 174 589 q 92 497 125 517 l 92 471 q 103 289 92 369 q 135 151 114 208 q 185 64 156 94 q 251 33 214 33 q 365 130 314 33 q 451 408 417 226 q 488 665 475 535 q 501 924 501 794 l 503 924 q 507 943 504 939 q 517 951 510 947 q 532 956 524 956 q 546 951 540 956 q 561 924 561 943 l 561 883 q 559 787 560 846 q 558 670 558 728 q 556 569 557 613 q 556 517 556 525 q 556 467 556 493 q 554 414 556 442 q 554 301 554 360 q 559 190 554 243 q 576 94 564 138 q 611 28 589 51 q 667 6 633 6 m 132 921 q 120 897 126 915 q 108 841 114 879 q 99 739 103 803 q 93 576 94 675 q 142 681 124 615 q 161 815 161 747 q 160 840 161 824 q 156 872 160 856 q 147 903 153 889 q 132 921 142 917 m 315 1033 q 296 1040 306 1033 q 285 1061 286 1049 q 293 1083 285 1074 l 357 1156 q 379 1165 367 1165 q 399 1158 389 1165 q 409 1138 408 1150 q 401 1115 410 1125 l 338 1043 q 315 1033 329 1033 z "},"":{"ha":674,"x_min":-1,"x_max":696,"o":"m 29 539 l 32 539 q 33 649 32 589 q 40 768 35 710 q 71 931 50 882 q 129 981 92 981 q 166 971 144 981 q 203 922 188 961 q 217 875 213 903 q 221 815 221 847 q 213 726 221 774 q 190 633 206 678 q 149 553 174 589 q 92 497 125 517 l 92 471 q 103 289 92 369 q 135 151 114 208 q 185 64 156 94 q 251 33 214 33 q 365 130 314 33 q 451 408 417 226 q 488 665 475 535 q 501 924 501 794 l 503 924 q 507 943 504 939 q 517 951 510 947 q 532 956 524 956 q 546 951 540 956 q 561 924 561 943 l 561 883 q 559 787 560 846 q 558 670 558 728 q 556 569 557 613 q 556 517 556 525 q 556 467 556 493 q 554 414 556 442 q 554 301 554 360 q 559 190 554 243 q 576 94 564 138 q 611 28 589 51 q 667 6 633 6 q 688 -3 679 6 q 696 -24 696 -11 q 688 -45 696 -36 q 667 -54 679 -54 q 594 -35 624 -54 q 546 16 565 -15 q 516 88 526 47 q 501 169 506 128 q 495 249 496 210 q 494 318 494 289 q 455 186 478 249 q 402 76 432 124 q 335 1 372 29 q 251 -26 297 -26 q 90 103 147 -26 q 32 471 32 233 l 32 479 q 8 487 18 479 q -1 510 -1 494 q 8 531 -1 522 q 29 539 17 539 m 161 815 q 160 840 161 824 q 156 872 160 856 q 147 903 153 889 q 132 921 142 917 q 120 897 126 915 q 108 841 114 879 q 99 739 103 803 q 93 576 94 675 q 142 681 124 615 q 161 815 161 747 m 261 1083 l 325 1156 q 328 1157 328 1157 l 329 1158 l 331 1160 q 333 1161 332 1161 q 336 1163 335 1163 q 339 1164 338 1164 l 342 1164 q 344 1165 343 1165 l 350 1165 q 353 1164 351 1165 l 356 1164 q 358 1163 357 1164 q 361 1161 360 1163 q 364 1160 363 1161 q 367 1158 365 1158 l 433 1083 q 441 1061 442 1074 q 431 1040 440 1049 q 411 1033 421 1033 q 389 1043 397 1033 l 347 1090 l 307 1043 q 283 1033 297 1033 q 264 1040 274 1033 q 253 1061 254 1049 q 261 1083 253 1074 z "},"":{"ha":674,"x_min":-1,"x_max":696,"o":"m 667 6 q 688 -3 679 6 q 696 -24 696 -11 q 688 -45 696 -36 q 667 -54 679 -54 q 594 -35 624 -54 q 546 16 565 -15 q 516 88 526 47 q 501 169 506 128 q 495 249 496 210 q 494 318 494 289 q 455 186 478 249 q 402 76 432 124 q 335 1 372 29 q 251 -26 297 -26 q 90 103 147 -26 q 32 471 32 233 l 32 479 q 8 487 18 479 q -1 510 -1 494 q 8 532 -1 525 q 32 539 18 539 q 33 649 32 589 q 40 768 35 710 q 71 931 50 882 q 129 981 92 981 q 166 971 144 981 q 203 922 188 961 q 217 875 213 903 q 221 815 221 847 q 213 726 221 774 q 190 633 206 678 q 149 553 174 589 q 92 497 125 517 l 92 471 q 103 289 92 369 q 135 151 114 208 q 185 64 156 94 q 251 33 214 33 q 365 130 314 33 q 451 408 417 226 q 488 665 475 535 q 501 924 501 794 l 503 924 q 507 943 504 939 q 517 951 510 947 q 532 956 524 956 q 546 951 540 956 q 561 924 561 943 l 561 883 q 559 787 560 846 q 558 670 558 728 q 556 569 557 613 q 556 517 556 525 q 556 467 556 493 q 554 414 556 442 q 554 301 554 360 q 559 190 554 243 q 576 94 564 138 q 611 28 589 51 q 667 6 633 6 m 132 921 q 120 897 126 915 q 108 841 114 879 q 99 739 103 803 q 93 576 94 675 q 142 681 124 615 q 161 815 161 747 q 160 840 161 824 q 156 872 160 856 q 147 903 153 889 q 132 921 142 917 m 397 1054 q 370 1067 382 1054 q 358 1099 358 1079 q 370 1131 358 1118 q 397 1144 382 1144 q 424 1131 413 1144 q 436 1099 436 1118 q 424 1067 436 1079 q 397 1054 413 1054 m 297 1054 q 270 1067 282 1054 q 258 1099 258 1079 q 270 1131 258 1118 q 297 1144 282 1144 q 325 1131 314 1144 q 336 1099 336 1118 q 325 1067 336 1079 q 297 1054 314 1054 z "},"":{"ha":665,"x_min":-1,"x_max":594,"o":"m 561 928 q 567 876 563 921 q 578 763 572 832 q 590 603 585 693 q 594 416 594 514 q 588 218 594 318 q 565 27 581 118 q 520 -140 549 -64 q 449 -267 492 -217 q 285 -344 379 -344 q 151 -317 206 -344 q 75 -239 97 -289 q 68 -150 57 -197 q 115 -67 79 -103 q 207 -11 151 -28 q 135 51 167 8 q 80 156 103 93 q 44 298 57 218 q 32 471 32 378 l 32 479 q 8 487 18 479 q -1 510 -1 494 q 8 532 -1 525 q 32 539 18 539 q 33 649 32 589 q 40 768 35 710 q 71 931 50 882 q 129 981 92 981 q 166 971 144 981 q 203 922 188 961 q 217 875 213 903 q 221 815 221 847 q 213 726 221 774 q 190 633 206 678 q 149 553 174 589 q 92 497 125 517 l 92 471 q 106 296 92 376 q 143 157 119 215 q 200 66 167 99 q 272 33 233 33 q 347 74 314 33 q 406 185 381 115 q 450 344 432 254 q 479 534 468 435 q 496 734 490 633 q 501 924 501 835 q 510 944 501 936 q 529 954 518 953 q 551 947 542 956 q 561 928 560 939 m 132 921 q 120 897 126 915 q 108 841 114 879 q 99 739 103 803 q 93 576 94 675 q 142 681 124 615 q 161 815 161 747 q 160 839 161 822 q 156 872 160 856 q 147 903 153 889 q 132 921 142 918 m 403 -228 q 458 -137 436 -190 q 495 -21 481 -83 q 517 110 510 42 q 528 243 525 178 q 533 369 532 308 q 533 475 533 429 q 508 324 524 399 q 469 184 492 249 q 416 70 446 119 q 347 -4 386 21 q 435 -28 386 -10 q 451 -44 446 -33 q 451 -67 456 -56 q 424 -86 444 -86 q 413 -83 421 -86 q 290 -58 349 -58 q 158 -108 207 -58 q 127 -161 135 -132 q 131 -215 119 -190 q 185 -267 144 -249 q 285 -285 225 -285 q 403 -228 353 -285 m 264 1033 q 244 1040 254 1033 q 234 1061 235 1049 q 242 1083 233 1074 l 306 1156 q 328 1165 314 1165 q 347 1158 338 1165 q 358 1138 357 1150 q 350 1115 358 1125 l 288 1043 q 264 1033 278 1033 z "},"":{"ha":586,"x_min":-1,"x_max":679,"o":"m 658 368 q 674 353 669 364 q 675 331 679 342 q 627 231 658 288 q 557 122 596 174 q 475 35 518 71 q 392 0 432 0 q 313 33 344 0 q 294 58 301 44 q 279 86 286 71 q 227 23 258 46 q 156 0 196 0 q 42 53 85 0 q -1 192 -1 106 q 12 286 -1 239 q 50 371 25 333 q 110 431 75 408 q 186 454 144 454 q 240 442 218 454 q 276 411 261 431 q 283 413 278 413 q 304 403 296 413 q 313 382 313 394 l 313 344 q 312 276 313 315 q 315 199 311 238 q 327 127 318 161 q 354 75 336 93 q 392 60 372 60 q 442 85 413 60 q 505 153 472 111 q 568 247 538 194 q 619 351 599 299 q 647 371 626 371 q 658 368 650 371 m 251 246 q 253 249 251 247 q 251 283 251 267 q 251 317 251 300 q 249 332 251 319 q 240 358 247 344 q 220 383 233 372 q 186 394 207 394 q 135 376 158 394 q 94 329 111 358 q 68 264 78 300 q 58 192 58 228 q 85 95 58 131 q 156 60 111 60 q 224 112 197 60 q 251 246 251 164 m 140 579 q 133 600 132 588 q 143 621 133 613 q 163 628 150 628 q 186 618 178 628 l 249 546 q 256 524 257 536 q 246 504 256 511 q 226 496 238 496 q 204 507 213 496 l 140 579 z "},"":{"ha":582,"x_min":-6,"x_max":675,"o":"m 654 368 q 670 353 665 364 q 671 331 675 342 q 623 231 654 288 q 553 122 592 174 q 471 35 514 71 q 388 0 428 0 q 308 33 340 0 q 290 58 297 44 q 275 86 282 71 q 223 23 254 46 q 151 0 192 0 q 38 53 81 0 q -6 192 -6 106 q 8 286 -6 239 q 46 371 21 333 q 106 431 71 408 q 182 454 140 454 q 235 442 214 454 q 272 411 257 431 q 279 413 274 413 q 300 403 292 413 q 308 382 308 394 l 308 344 q 308 276 308 315 q 310 199 307 238 q 323 127 314 161 q 350 75 332 93 q 388 60 368 60 q 438 85 408 60 q 501 153 468 111 q 564 247 533 194 q 615 351 594 299 q 643 371 622 371 q 654 368 646 371 m 247 246 q 249 249 247 247 q 247 283 247 267 q 247 317 247 300 q 245 332 247 319 q 236 358 243 344 q 216 383 229 372 q 182 394 203 394 q 131 376 154 394 q 90 329 107 358 q 64 264 74 300 q 54 192 54 228 q 81 95 54 131 q 151 60 107 60 q 220 112 193 60 q 247 246 247 164 m 168 496 q 149 504 157 496 q 138 524 139 511 q 146 546 138 536 l 210 618 q 232 628 218 628 q 251 621 244 628 q 262 600 261 613 q 254 579 263 588 l 192 507 q 168 496 181 496 z "},"":{"ha":579,"x_min":-8,"x_max":672,"o":"m -8 192 q 5 286 -8 239 q 43 371 18 333 q 103 431 68 408 q 179 454 138 454 q 233 442 211 454 q 269 411 254 431 q 276 413 271 413 q 297 403 289 413 q 306 382 306 394 l 306 344 q 305 276 306 315 q 308 199 304 238 q 320 127 311 161 q 347 75 329 93 q 385 60 365 60 q 435 85 406 60 q 498 153 465 111 q 561 247 531 194 q 613 351 592 299 q 640 371 619 371 q 651 368 643 371 q 667 353 663 364 q 668 331 672 342 q 620 231 651 288 q 550 122 589 174 q 468 35 511 71 q 385 0 425 0 q 306 33 338 0 q 287 58 294 44 q 272 86 279 71 q 220 23 251 46 q 149 0 189 0 q 35 53 78 0 q -8 192 -8 106 m 149 60 q 217 112 190 60 q 244 246 244 164 q 246 249 244 247 q 244 283 244 267 q 244 317 244 300 q 242 332 244 319 q 233 358 240 344 q 213 383 226 372 q 179 394 200 394 q 128 376 151 394 q 88 329 104 358 q 61 264 71 300 q 51 192 51 228 q 78 95 51 131 q 149 60 104 60 m 92 546 l 156 618 q 161 624 161 624 l 167 626 l 169 626 q 172 628 169 628 l 183 628 q 186 626 185 628 l 189 626 l 194 624 q 199 619 194 624 l 264 546 q 272 524 272 536 q 261 504 271 513 q 242 496 253 496 q 218 507 229 496 l 178 553 l 138 507 q 114 496 126 496 q 94 504 103 496 q 84 524 85 513 q 92 546 83 536 z "},"":{"ha":579,"x_min":-8,"x_max":672,"o":"m 651 368 q 667 353 663 364 q 668 331 672 342 q 620 231 651 288 q 550 122 589 174 q 468 35 511 71 q 385 0 425 0 q 306 33 338 0 q 287 58 294 44 q 272 86 279 71 q 220 23 251 46 q 149 0 189 0 q 35 53 78 0 q -8 192 -8 106 q 5 286 -8 239 q 43 371 18 333 q 103 431 68 408 q 179 454 138 454 q 233 442 211 454 q 269 411 254 431 q 276 413 271 413 q 297 403 289 413 q 306 382 306 394 l 306 344 q 305 276 306 315 q 308 199 304 238 q 320 127 311 161 q 347 75 329 93 q 385 60 365 60 q 435 85 406 60 q 498 153 465 111 q 561 247 531 194 q 613 351 592 299 q 640 371 619 371 q 651 368 643 371 m 244 246 q 246 249 244 247 q 244 283 244 267 q 244 317 244 300 q 242 332 244 319 q 233 358 240 344 q 213 383 226 372 q 179 394 200 394 q 128 376 151 394 q 88 329 104 358 q 61 264 71 300 q 51 192 51 228 q 78 95 51 131 q 149 60 104 60 q 217 112 190 60 q 244 246 244 164 m 85 531 q 69 548 74 536 q 71 571 65 560 q 80 583 72 574 q 106 600 88 593 q 124 603 117 603 q 171 589 143 603 q 194 582 182 582 q 208 585 203 582 q 217 589 214 588 q 235 594 224 594 q 258 583 250 594 q 264 560 265 572 q 253 542 263 549 q 228 528 244 535 q 193 522 213 522 q 142 536 168 522 q 124 542 128 546 q 97 528 114 528 q 85 531 93 528 z "},"":{"ha":581,"x_min":-7,"x_max":674,"o":"m 653 368 q 669 353 664 364 q 669 331 674 342 q 622 231 653 288 q 551 122 590 174 q 469 35 513 71 q 386 0 426 0 q 307 33 339 0 q 288 58 296 44 q 274 86 281 71 q 222 23 253 46 q 150 0 190 0 q 36 53 79 0 q -7 192 -7 106 q 6 286 -7 239 q 44 371 19 333 q 104 431 69 408 q 181 454 139 454 q 234 442 213 454 q 271 411 256 431 q 278 413 272 413 q 299 403 290 413 q 307 382 307 394 l 307 344 q 306 276 307 315 q 309 199 306 238 q 322 127 313 161 q 349 75 331 93 q 386 60 367 60 q 437 85 407 60 q 499 153 467 111 q 563 247 532 194 q 614 351 593 299 q 642 371 621 371 q 653 368 644 371 m 246 246 q 247 249 246 247 q 246 283 246 267 q 246 317 246 300 q 244 332 246 319 q 235 358 242 344 q 215 383 228 372 q 181 394 201 394 q 129 376 153 394 q 89 329 106 358 q 63 264 72 300 q 53 192 53 228 q 79 95 53 131 q 150 60 106 60 q 219 112 192 60 q 246 246 246 164 m 210 517 q 182 530 193 517 q 171 563 171 543 q 182 594 171 582 q 210 607 193 607 q 237 594 225 607 q 249 563 249 582 q 237 530 249 543 q 210 517 225 517 m 110 517 q 83 530 94 517 q 71 563 71 543 q 83 594 71 582 q 110 607 94 607 q 138 594 126 607 q 149 563 149 582 q 138 530 149 543 q 110 517 126 517 z "},"":{"ha":581,"x_min":-7,"x_max":674,"o":"m 179 478 q 119 502 143 478 q 94 563 94 526 q 119 622 94 597 q 179 647 143 647 q 238 622 214 647 q 263 563 263 597 q 238 502 263 526 q 179 478 214 478 m 179 603 q 149 591 161 603 q 138 563 138 579 q 150 534 138 546 q 179 522 163 522 q 208 534 196 522 q 219 563 219 546 q 208 591 219 579 q 179 603 196 603 m 653 368 q 669 353 664 364 q 669 331 674 342 q 622 231 653 288 q 551 122 590 174 q 469 35 513 71 q 386 0 426 0 q 307 33 339 0 q 288 58 296 44 q 274 86 281 71 q 222 23 253 46 q 150 0 190 0 q 36 53 79 0 q -7 192 -7 106 q 6 286 -7 239 q 44 371 19 333 q 104 431 69 408 q 181 454 139 454 q 234 442 213 454 q 271 411 256 431 q 278 413 272 413 q 299 403 290 413 q 307 382 307 394 l 307 344 q 306 276 307 315 q 309 199 306 238 q 322 127 313 161 q 349 75 331 93 q 386 60 367 60 q 437 85 407 60 q 499 153 467 111 q 563 247 532 194 q 614 351 593 299 q 642 371 621 371 q 653 368 644 371 m 246 246 q 247 249 246 247 q 246 283 246 267 q 246 317 246 300 q 244 332 246 319 q 235 358 242 344 q 215 383 228 372 q 181 394 201 394 q 129 376 153 394 q 89 329 106 358 q 63 264 72 300 q 53 192 53 228 q 79 95 53 131 q 150 60 106 60 q 219 112 192 60 q 246 246 246 164 z "},"":{"ha":674,"x_min":-7,"x_max":768,"o":"m 746 368 q 763 353 757 364 q 764 331 768 342 q 710 223 744 281 q 631 115 675 165 q 532 33 586 65 q 419 0 478 0 q 337 17 379 0 q 271 82 294 33 q 219 22 250 43 q 150 0 189 0 q 36 53 79 0 q -7 192 -7 106 q 6 286 -7 239 q 44 371 19 333 q 104 431 69 408 q 181 454 139 454 q 234 442 213 454 q 271 411 256 431 q 278 413 272 413 q 299 403 290 413 q 307 382 307 394 l 307 379 q 364 433 332 413 q 436 454 396 454 q 496 424 478 454 q 514 358 514 394 q 499 278 514 318 q 459 203 485 238 q 398 146 433 169 q 322 114 363 122 q 364 69 338 79 q 419 60 390 60 q 503 85 461 60 q 584 153 546 111 q 654 247 622 194 q 707 351 686 299 q 735 371 717 371 q 746 368 738 371 m 246 246 q 247 249 246 247 q 246 283 246 267 q 246 317 246 300 q 244 332 246 319 q 235 358 242 344 q 215 383 228 372 q 181 394 201 394 q 129 376 153 394 q 89 329 106 358 q 63 264 72 300 q 53 192 53 228 q 79 95 53 131 q 150 60 106 60 q 219 112 192 60 q 246 246 246 164 m 310 203 q 310 188 310 196 q 313 172 311 179 q 374 202 347 181 q 418 251 400 224 q 445 308 436 279 q 454 358 454 336 q 447 389 454 381 q 436 394 444 394 q 388 377 410 394 q 348 333 365 360 q 321 272 331 306 q 310 203 311 238 z "},"":{"ha":422,"x_min":-3,"x_max":515,"o":"m 494 368 q 510 353 506 364 q 511 331 515 342 q 462 229 493 283 q 389 127 431 175 q 298 44 347 79 q 194 1 249 10 q 194 -61 201 -31 q 161 -108 188 -92 q 128 -119 146 -119 q 94 -104 108 -119 q 75 -61 78 -87 q 85 -15 72 -35 q 99 -8 89 -8 q 107 -11 101 -8 q 114 -22 113 -15 q 111 -33 115 -28 q 107 -58 104 -43 q 118 -82 110 -74 q 129 -87 124 -87 q 143 -82 136 -87 q 164 -48 160 -71 q 161 0 168 -25 q 103 8 132 0 q 50 38 74 17 q 12 97 26 60 q -3 192 -3 133 q 10 286 -3 239 q 49 371 24 333 q 108 431 74 408 q 185 454 143 454 q 249 435 224 454 q 282 379 275 415 q 282 335 286 358 q 268 292 278 313 q 243 256 258 272 q 208 232 228 240 q 197 229 200 229 q 169 249 176 229 q 169 271 164 260 q 185 288 174 282 q 216 319 204 294 q 224 368 228 344 q 215 385 221 376 q 185 394 208 394 q 133 376 157 394 q 93 329 110 358 q 67 264 76 300 q 57 192 57 228 q 67 122 57 149 q 92 82 76 96 q 127 64 107 68 q 168 60 147 60 q 252 85 210 60 q 333 153 294 111 q 403 247 371 194 q 456 351 435 299 q 483 371 463 371 q 494 368 486 371 z "},"":{"ha":417,"x_min":-8,"x_max":510,"o":"m 489 368 q 505 353 500 364 q 506 329 510 342 q 452 222 486 279 q 374 115 418 164 q 275 33 329 65 q 163 0 221 0 q 112 6 138 0 q 63 26 86 11 q 23 66 40 40 q -3 132 6 92 q -3 134 -3 133 q -4 136 -4 135 q -8 192 -8 161 q 5 286 -8 239 q 43 371 18 333 q 103 431 68 408 q 179 454 138 454 q 239 424 221 454 q 257 358 257 394 q 242 278 257 318 q 201 203 228 238 q 140 146 175 169 q 64 114 104 122 q 106 69 79 79 q 163 60 133 60 q 247 85 204 60 q 327 153 289 111 q 397 247 365 194 q 450 351 429 299 q 478 371 457 371 q 489 368 481 371 m 51 192 q 53 172 51 178 q 115 201 88 179 q 160 250 142 222 q 188 307 178 278 q 197 358 197 336 q 190 389 197 378 q 179 394 185 394 q 128 376 151 394 q 88 329 104 358 q 61 264 71 300 q 51 192 51 228 m 89 579 q 81 600 81 588 q 92 621 82 613 q 111 628 99 628 q 135 618 126 628 l 197 546 q 205 524 206 536 q 194 504 204 511 q 175 496 186 496 q 153 507 161 496 l 89 579 z "},"":{"ha":407,"x_min":-7,"x_max":511,"o":"m 490 368 q 506 353 501 364 q 507 329 511 342 q 453 222 488 279 q 375 115 419 164 q 276 33 331 65 q 164 0 222 0 q 113 6 139 0 q 65 26 88 11 q 24 66 42 40 q -1 132 7 92 q -2 134 -1 133 q -3 136 -3 135 q -7 192 -7 161 q 6 286 -7 239 q 44 371 19 333 q 104 431 69 408 q 181 454 139 454 q 240 424 222 454 q 258 358 258 394 q 244 278 258 318 q 203 203 229 238 q 141 146 176 169 q 65 114 106 122 q 108 69 81 79 q 164 60 135 60 q 248 85 206 60 q 328 153 290 111 q 399 247 367 194 q 451 351 431 299 q 479 371 458 371 q 490 368 482 371 m 53 192 q 54 172 53 178 q 116 201 89 179 q 161 250 143 222 q 189 307 179 278 q 199 358 199 336 q 192 389 199 378 q 181 394 186 394 q 129 376 153 394 q 89 329 106 358 q 63 264 72 300 q 53 192 53 228 m 111 496 q 92 504 100 496 q 81 524 82 511 q 89 546 81 536 l 153 618 q 175 628 161 628 q 194 621 188 628 q 205 600 204 613 q 197 579 206 588 l 133 507 q 111 496 125 496 z "},"":{"ha":431,"x_min":6,"x_max":524,"o":"m 193 454 q 253 424 235 454 q 271 358 271 394 q 256 278 271 318 q 215 203 242 238 q 153 146 189 169 q 78 114 118 122 q 120 69 93 79 q 176 60 147 60 q 260 85 218 60 q 341 153 303 111 q 411 247 379 194 q 464 351 443 299 q 492 371 471 371 q 503 368 494 371 q 519 353 514 364 q 519 329 524 342 q 466 222 500 279 q 388 115 432 164 q 289 33 343 65 q 176 0 235 0 q 126 6 151 0 q 77 26 100 11 q 37 66 54 40 q 11 132 19 92 q 10 134 11 133 q 10 136 10 135 q 6 192 6 161 q 19 286 6 239 q 57 371 32 333 q 117 431 82 408 q 193 454 151 454 m 65 192 q 67 172 65 178 q 128 201 101 179 q 174 250 156 222 q 201 307 192 278 q 211 358 211 336 q 204 389 211 378 q 193 394 199 394 q 142 376 165 394 q 101 329 118 358 q 75 264 85 300 q 65 192 65 228 m 85 546 l 147 618 q 150 621 147 618 l 151 621 l 154 624 q 157 625 156 625 q 160 626 158 625 l 163 626 q 164 628 164 628 l 176 628 q 179 626 178 628 l 182 626 q 185 625 182 625 l 186 624 q 189 621 189 621 l 190 621 l 190 619 q 193 618 192 619 l 256 546 q 263 524 264 536 q 253 504 263 513 q 233 496 244 496 q 211 507 219 496 l 171 553 l 129 507 q 107 496 121 496 q 88 504 96 496 q 77 524 78 513 q 85 546 76 536 z "},"":{"ha":417,"x_min":-8,"x_max":510,"o":"m 489 368 q 505 353 500 364 q 506 329 510 342 q 452 222 486 279 q 374 115 418 164 q 275 33 329 65 q 163 0 221 0 q 112 6 138 0 q 63 26 86 11 q 23 66 40 40 q -3 132 6 92 q -3 134 -3 133 q -4 136 -4 135 q -8 192 -8 161 q 5 286 -8 239 q 43 371 18 333 q 103 431 68 408 q 179 454 138 454 q 239 424 221 454 q 257 358 257 394 q 242 278 257 318 q 201 203 228 238 q 140 146 175 169 q 64 114 104 122 q 106 69 79 79 q 163 60 133 60 q 247 85 204 60 q 327 153 289 111 q 397 247 365 194 q 450 351 429 299 q 478 371 457 371 q 489 368 481 371 m 51 192 q 53 172 51 178 q 115 201 88 179 q 160 250 142 222 q 188 307 178 278 q 197 358 197 336 q 190 389 197 378 q 179 394 185 394 q 128 376 151 394 q 88 329 104 358 q 61 264 71 300 q 51 192 51 228 m 201 517 q 174 530 185 517 q 163 563 163 543 q 174 594 163 582 q 201 607 185 607 q 228 594 217 607 q 240 563 240 582 q 228 530 240 543 q 201 517 217 517 m 101 517 q 74 530 86 517 q 63 563 63 543 q 74 594 63 582 q 101 607 86 607 q 128 594 117 607 q 140 563 140 582 q 128 530 140 543 q 101 517 117 517 z "},"":{"ha":371,"x_min":36,"x_max":465,"o":"m 444 368 q 460 353 456 364 q 461 331 465 342 q 413 231 444 288 q 343 122 382 174 q 261 35 304 71 q 176 0 218 0 q 97 33 131 0 q 61 97 74 58 q 43 178 49 135 q 38 265 38 221 q 39 346 38 310 l 39 382 q 48 403 39 394 q 69 413 57 413 q 90 403 82 413 q 99 382 99 394 l 99 344 q 97 276 97 315 q 101 199 97 238 q 113 127 104 161 q 140 75 122 93 q 176 60 156 60 q 228 85 197 60 q 290 153 258 111 q 353 247 322 194 q 406 351 385 299 q 433 371 413 371 q 444 368 436 371 m 44 579 q 37 600 36 588 q 47 621 38 613 q 67 628 54 628 q 90 618 82 628 l 153 546 q 160 524 161 536 q 150 504 160 511 q 131 496 142 496 q 108 507 117 496 l 44 579 z "},"":{"ha":365,"x_min":-3,"x_max":460,"o":"m 438 368 q 455 353 450 364 q 456 331 460 342 q 408 231 439 288 q 338 122 376 174 q 256 35 299 71 q 171 0 213 0 q 92 33 125 0 q 54 97 67 58 q 37 178 42 135 q 32 265 32 221 q 32 346 32 310 q 33 366 33 357 q 33 382 33 375 q 42 403 33 394 q 63 413 51 413 q 84 403 75 413 q 93 382 93 394 l 93 344 q 92 276 92 315 q 95 199 92 238 q 108 127 99 161 q 135 75 117 93 q 171 60 150 60 q 222 85 192 60 q 285 153 253 111 q 348 247 317 194 q 400 351 379 299 q 426 371 407 371 q 438 368 429 371 m 50 507 q 28 496 39 496 q 7 504 15 496 q -3 524 -3 511 q 4 546 -3 536 l 68 618 q 90 628 76 628 q 110 621 103 628 q 120 600 119 613 q 113 579 121 588 l 50 507 z "},"":{"ha":367,"x_min":-6,"x_max":461,"o":"m 33 346 q 34 366 33 357 q 35 382 35 375 q 43 403 35 394 q 64 413 51 413 q 85 403 76 413 q 94 382 94 394 q 94 365 94 375 q 93 344 93 356 q 93 276 93 315 q 97 199 93 238 q 109 127 100 161 q 136 75 118 93 q 172 60 151 60 q 223 85 193 60 q 285 153 253 111 q 349 247 318 194 q 400 351 379 299 q 428 371 410 371 q 439 368 431 371 q 456 353 450 364 q 456 331 461 342 q 408 231 439 288 q 338 122 376 174 q 256 35 299 71 q 172 0 213 0 q 93 33 125 0 q 56 97 68 58 q 38 178 43 135 q 32 265 32 221 q 33 346 32 310 m 3 546 l 67 618 q 72 624 72 624 q 78 626 75 624 l 81 626 q 83 628 82 628 l 94 628 q 97 626 97 628 l 100 626 l 106 624 l 108 621 q 111 618 108 621 l 175 546 q 183 524 183 536 q 172 504 182 513 q 153 496 164 496 q 131 507 139 496 l 89 553 l 49 507 q 26 496 38 496 q 6 504 14 496 q -5 524 -4 513 q 3 546 -6 536 z "},"":{"ha":365,"x_min":-19,"x_max":458,"o":"m 438 368 q 453 353 449 364 q 454 331 458 342 q 406 231 438 288 q 336 122 375 174 q 254 35 297 71 q 171 0 211 0 q 92 33 124 0 q 54 97 67 58 q 36 178 42 135 q 31 265 31 221 q 32 346 31 310 l 32 382 q 41 403 32 394 q 63 413 50 413 q 83 403 75 413 q 92 382 92 394 l 92 344 q 91 276 92 315 q 94 199 90 238 q 106 127 97 161 q 133 75 115 93 q 171 60 151 60 q 222 85 192 60 q 284 153 251 111 q 347 247 317 194 q 399 351 378 299 q 426 371 406 371 q 438 368 429 371 m 119 517 q 92 530 103 517 q 81 563 81 543 q 92 594 81 582 q 119 607 103 607 q 147 594 135 607 q 158 563 158 582 q 147 530 158 543 q 119 517 135 517 m 19 517 q -8 530 4 517 q -19 563 -19 543 q -8 594 -19 582 q 19 607 4 607 q 47 594 35 607 q 58 563 58 582 q 47 530 58 543 q 19 517 35 517 z "},"":{"ha":544,"x_min":28,"x_max":639,"o":"m 617 368 q 633 353 628 364 q 633 331 639 342 q 585 231 617 288 q 515 122 554 174 q 433 35 476 71 q 350 0 390 0 q 297 22 319 0 q 270 102 271 50 q 275 217 269 154 q 279 268 278 242 q 280 318 281 294 q 276 360 279 342 q 264 389 272 379 q 257 394 261 392 q 244 396 253 396 q 196 358 222 396 q 146 268 169 321 q 106 158 122 215 q 90 58 90 100 q 88 46 90 51 q 82 19 88 31 q 58 7 76 7 q 37 15 46 7 q 28 36 28 24 q 28 59 28 42 q 28 103 28 76 q 30 161 29 129 q 31 226 31 193 q 31 288 31 257 q 33 343 32 318 q 33 385 33 368 q 33 408 33 403 q 42 430 33 421 q 64 439 51 439 q 85 431 76 439 q 93 410 93 422 q 94 370 94 401 q 92 297 93 339 q 124 358 107 329 q 160 409 140 388 q 201 443 179 431 q 244 456 222 456 q 308 429 282 456 q 331 389 324 413 q 340 338 338 365 q 340 278 342 310 q 335 213 338 246 q 332 168 333 192 q 331 124 331 144 q 333 86 331 103 q 342 63 335 69 q 350 60 342 60 q 401 85 371 60 q 464 153 432 111 q 526 247 496 194 q 578 351 557 299 q 606 371 588 371 q 617 368 608 371 m 96 531 q 81 548 85 536 q 82 571 76 560 q 92 583 83 574 q 118 600 100 593 q 136 603 129 603 q 182 589 154 603 q 207 582 194 582 q 221 585 215 582 q 228 589 226 588 q 246 594 235 594 q 269 583 261 594 q 276 560 276 572 q 264 542 275 549 q 240 528 256 535 q 206 522 225 522 q 153 536 179 522 q 135 542 139 546 q 108 528 125 528 q 96 531 104 528 z "},"":{"ha":389,"x_min":-1,"x_max":483,"o":"m 461 368 q 478 353 474 364 q 479 331 483 342 q 426 253 464 292 q 311 201 388 215 q 297 131 308 167 q 266 65 286 94 q 216 18 246 36 q 144 0 186 0 q 38 53 78 0 q -1 192 -1 106 q 11 286 -1 239 q 47 371 24 333 q 101 431 69 408 q 172 454 133 454 q 228 438 204 454 q 270 395 253 422 q 298 334 288 368 q 311 263 308 300 q 424 351 394 279 q 450 371 431 371 q 461 368 453 371 m 250 196 q 197 204 224 196 q 147 228 169 213 q 107 267 124 244 q 86 317 90 289 q 66 256 74 289 q 58 192 58 224 q 81 95 58 131 q 144 60 104 60 q 190 73 171 60 q 222 106 210 86 q 242 149 235 125 q 250 196 249 174 m 251 256 q 229 345 247 304 q 183 393 211 386 q 144 348 146 369 q 153 308 142 326 q 194 268 168 281 q 251 256 221 256 m 124 579 q 116 600 115 588 q 126 621 117 613 q 146 628 133 628 q 169 618 161 628 l 232 546 q 240 524 240 536 q 229 504 239 511 q 210 496 221 496 q 188 507 196 496 l 124 579 z "},"":{"ha":389,"x_min":-1,"x_max":483,"o":"m 461 368 q 478 353 474 364 q 479 331 483 342 q 426 253 464 292 q 311 201 388 215 q 297 131 308 167 q 266 65 286 94 q 216 18 246 36 q 144 0 186 0 q 38 53 78 0 q -1 192 -1 106 q 11 286 -1 239 q 47 371 24 333 q 101 431 69 408 q 172 454 133 454 q 228 438 204 454 q 270 395 253 422 q 298 334 288 368 q 311 263 308 300 q 424 351 394 279 q 450 371 431 371 q 461 368 453 371 m 250 196 q 197 204 224 196 q 147 228 169 213 q 107 267 124 244 q 86 317 90 289 q 66 256 74 289 q 58 192 58 224 q 81 95 58 131 q 144 60 104 60 q 190 73 171 60 q 222 106 210 86 q 242 149 235 125 q 250 196 249 174 m 251 256 q 229 345 247 304 q 183 393 211 386 q 144 348 146 369 q 153 308 142 326 q 194 268 168 281 q 251 256 221 256 m 146 496 q 126 504 135 496 q 116 524 117 511 q 124 546 115 536 l 188 618 q 210 628 196 628 q 229 621 222 628 q 240 600 239 613 q 232 579 240 588 l 169 507 q 146 496 158 496 z "},"":{"ha":389,"x_min":-1,"x_max":483,"o":"m -1 192 q 11 286 -1 239 q 47 371 24 333 q 101 431 69 408 q 172 454 133 454 q 228 438 204 454 q 270 395 253 422 q 298 334 288 368 q 311 263 308 300 q 424 351 394 279 q 450 371 431 371 q 461 368 453 371 q 478 353 474 364 q 479 331 483 342 q 426 253 464 292 q 311 201 388 215 q 297 131 308 167 q 266 65 286 94 q 216 18 246 36 q 144 0 186 0 q 38 53 78 0 q -1 192 -1 106 m 58 192 q 81 95 58 131 q 144 60 104 60 q 190 73 171 60 q 222 106 210 86 q 242 149 235 125 q 250 196 249 174 l 247 196 q 194 205 221 196 q 145 229 168 214 q 106 267 122 244 q 86 317 90 290 q 66 256 74 289 q 58 192 58 224 m 61 546 l 124 618 q 126 621 124 618 l 128 621 q 131 624 128 621 l 132 625 q 135 626 135 625 l 138 626 q 140 628 140 628 l 151 628 q 156 626 154 628 l 157 626 q 160 625 160 625 q 163 624 163 624 l 165 621 l 167 621 l 167 619 q 169 618 168 619 l 232 546 q 240 524 240 536 q 229 504 239 513 q 210 496 221 496 q 188 507 196 496 l 146 553 l 106 507 q 83 496 97 496 q 64 504 72 496 q 53 524 54 513 q 61 546 53 536 m 153 308 q 192 270 167 285 q 247 256 217 256 l 251 256 q 229 345 247 304 q 183 393 211 386 q 144 348 146 369 q 153 308 142 326 z "},"":{"ha":389,"x_min":-1,"x_max":483,"o":"m 461 368 q 478 353 474 364 q 479 331 483 342 q 426 253 464 292 q 311 201 388 215 q 297 131 308 167 q 266 65 286 94 q 216 18 246 36 q 144 0 186 0 q 38 53 78 0 q -1 192 -1 106 q 11 286 -1 239 q 47 371 24 333 q 101 431 69 408 q 172 454 133 454 q 228 438 204 454 q 270 395 253 422 q 298 334 288 368 q 311 263 308 300 q 424 351 394 279 q 450 371 431 371 q 461 368 453 371 m 250 196 q 197 204 224 196 q 147 228 169 213 q 107 267 124 244 q 86 317 90 289 q 66 256 74 289 q 58 192 58 224 q 81 95 58 131 q 144 60 104 60 q 190 73 171 60 q 222 106 210 86 q 242 149 235 125 q 250 196 249 174 m 251 256 q 229 345 247 304 q 183 393 211 386 q 144 348 146 369 q 153 308 142 326 q 194 268 168 281 q 251 256 221 256 m 90 531 q 75 548 79 536 q 76 571 71 560 q 85 583 78 574 q 111 600 93 593 q 129 603 122 603 q 176 589 149 603 q 200 582 188 582 q 214 585 208 582 q 222 589 219 588 q 240 594 229 594 q 264 583 256 594 q 269 560 271 572 q 258 542 268 549 q 235 528 250 535 q 200 522 219 522 q 147 536 174 522 q 129 542 133 546 q 103 528 119 528 q 90 531 99 528 z "},"":{"ha":389,"x_min":-1,"x_max":483,"o":"m 461 368 q 478 353 474 364 q 479 331 483 342 q 426 253 464 292 q 311 201 388 215 q 297 131 308 167 q 266 65 286 94 q 216 18 246 36 q 144 0 186 0 q 38 53 78 0 q -1 192 -1 106 q 11 286 -1 239 q 47 371 24 333 q 101 431 69 408 q 172 454 133 454 q 228 438 204 454 q 270 395 253 422 q 298 334 288 368 q 311 263 308 300 q 424 351 394 279 q 450 371 431 371 q 461 368 453 371 m 250 196 q 197 204 224 196 q 147 228 169 213 q 107 267 124 244 q 86 317 90 289 q 66 256 74 289 q 58 192 58 224 q 81 95 58 131 q 144 60 104 60 q 190 73 171 60 q 222 106 210 86 q 242 149 235 125 q 250 196 249 174 m 251 256 q 229 345 247 304 q 183 393 211 386 q 144 348 146 369 q 153 308 142 326 q 194 268 168 281 q 251 256 221 256 m 201 517 q 174 530 185 517 q 163 563 163 543 q 174 594 163 582 q 201 607 185 607 q 228 594 217 607 q 240 563 240 582 q 228 530 240 543 q 201 517 217 517 m 101 517 q 74 530 85 517 q 63 563 63 543 q 74 594 63 582 q 101 607 85 607 q 128 594 117 607 q 140 563 140 582 q 128 530 140 543 q 101 517 117 517 z "},"":{"ha":389,"x_min":-1,"x_max":483,"o":"m 461 368 q 478 353 474 364 q 479 329 483 342 q 426 253 464 292 q 311 201 388 215 q 297 131 308 167 q 266 65 286 94 q 216 18 246 36 q 144 0 186 0 q 124 1 131 0 q 90 -74 103 -43 q 75 -117 78 -106 q 49 -136 75 -133 q 28 -134 40 -136 q 15 -122 17 -132 q 31 -76 15 -115 q 74 21 46 -37 q 18 88 38 44 q -1 192 -1 132 q 11 286 -1 239 q 47 371 24 333 q 101 431 69 408 q 172 454 133 454 q 226 440 203 454 q 267 400 249 425 q 335 508 303 463 q 392 574 368 554 q 432 590 410 588 q 451 588 440 590 q 464 575 461 586 q 440 556 464 560 q 413 531 429 550 q 378 484 397 513 q 338 419 360 456 q 294 343 317 383 q 311 263 307 306 q 424 351 394 279 q 450 371 431 371 q 461 368 453 371 m 183 393 q 144 348 146 369 q 153 308 142 326 q 194 269 168 282 q 213 305 204 288 q 232 339 222 322 q 210 374 222 360 q 183 393 199 389 m 99 76 q 131 144 114 108 q 167 215 149 179 q 116 258 139 231 q 86 317 93 285 q 66 256 74 289 q 58 192 58 224 q 99 76 58 110 m 250 196 q 234 197 242 196 q 218 199 226 197 q 183 127 200 163 q 150 60 165 92 q 193 76 175 63 q 223 108 211 89 q 242 151 235 128 q 250 196 249 174 m 249 256 l 251 256 l 251 261 q 249 256 249 258 z "},"":{"ha":646,"x_min":29,"x_max":740,"o":"m 35 325 q 37 356 36 342 q 38 382 38 371 q 47 403 38 394 q 67 413 56 413 q 88 403 79 413 q 97 382 97 394 q 97 354 97 369 q 94 321 96 339 q 90 240 92 283 q 94 158 89 197 q 113 92 99 119 q 158 60 128 65 q 162 59 161 60 q 165 58 163 58 q 192 69 178 58 q 231 116 213 85 q 267 190 250 147 q 296 283 283 232 q 314 386 308 333 l 314 388 q 315 390 314 389 l 315 393 q 316 394 315 394 q 317 396 317 394 q 317 397 317 397 q 318 399 318 397 q 319 401 319 400 q 324 406 324 406 q 329 408 329 408 q 333 411 333 411 l 336 411 q 338 412 338 411 q 339 413 338 413 l 349 413 q 351 411 350 411 l 354 411 q 357 410 354 410 q 361 407 357 410 l 368 400 l 368 399 q 371 396 368 399 l 371 393 q 372 390 372 390 l 372 388 q 374 383 374 386 l 374 382 q 374 365 374 375 q 372 344 374 356 q 372 276 372 315 q 376 199 372 238 q 388 127 379 161 q 415 75 397 93 q 451 60 431 60 q 503 85 472 60 q 565 153 533 111 q 628 247 597 194 q 679 351 658 299 q 707 371 689 371 q 718 368 710 371 q 735 353 729 364 q 735 331 740 342 q 687 231 718 288 q 617 122 656 174 q 535 35 578 71 q 451 0 492 0 q 395 15 418 0 q 357 52 372 29 q 333 103 342 75 q 319 160 324 132 q 278 78 301 115 q 228 21 256 42 q 188 3 204 6 q 147 0 172 0 q 73 46 97 10 q 39 130 49 82 q 31 231 29 178 q 35 325 32 283 m 151 621 q 171 628 158 628 q 193 618 185 628 l 257 546 q 265 524 265 536 q 254 504 264 511 q 235 496 246 496 q 211 507 222 496 l 149 579 q 141 600 140 588 q 151 621 142 613 z "},"":{"ha":643,"x_min":26,"x_max":738,"o":"m 32 325 q 34 356 33 342 q 35 382 35 371 q 44 403 35 394 q 64 413 53 413 q 85 403 76 413 q 94 382 94 394 q 94 354 94 369 q 92 321 93 339 q 88 240 89 283 q 91 158 86 197 q 110 92 96 119 q 156 60 125 65 q 159 59 158 60 q 163 58 160 58 q 189 69 175 58 q 228 116 210 85 q 264 190 247 147 q 293 283 281 232 q 311 386 306 333 l 311 388 q 313 390 311 389 l 313 393 q 313 394 313 394 q 314 396 314 394 q 315 397 314 397 q 315 399 315 397 q 317 401 317 400 q 321 406 321 406 q 326 408 326 408 q 331 411 331 411 l 333 411 q 335 412 335 411 q 336 413 335 413 l 346 413 q 349 411 347 411 l 351 411 q 354 410 351 410 q 358 407 354 410 l 365 400 l 365 399 q 368 396 365 399 l 368 393 q 369 390 369 390 l 369 388 q 371 383 371 386 l 371 382 q 371 365 371 375 q 369 344 371 356 q 369 276 369 315 q 373 199 369 238 q 385 127 376 161 q 413 75 394 93 q 449 60 428 60 q 500 85 469 60 q 563 153 531 111 q 625 247 594 194 q 676 351 656 299 q 704 371 686 371 q 715 368 707 371 q 732 353 726 364 q 732 331 738 342 q 684 231 715 288 q 614 122 653 174 q 532 35 575 71 q 449 0 489 0 q 392 15 415 0 q 354 52 369 29 q 330 103 339 75 q 317 160 321 132 q 276 78 299 115 q 225 21 253 42 q 185 3 201 6 q 144 0 169 0 q 70 46 94 10 q 36 130 46 82 q 28 231 26 178 q 32 325 29 283 m 165 546 l 229 618 q 251 628 238 628 q 271 621 264 628 q 281 600 281 613 q 274 579 282 588 l 211 507 q 188 496 200 496 q 168 504 176 496 q 158 524 158 511 q 165 546 157 536 z "},"":{"ha":643,"x_min":26,"x_max":738,"o":"m 32 325 q 34 356 33 342 q 35 382 35 371 q 44 403 35 394 q 64 413 53 413 q 85 403 76 413 q 94 382 94 394 q 94 354 94 369 q 92 321 93 339 q 88 240 89 283 q 91 158 86 197 q 110 92 96 119 q 156 60 125 65 q 159 59 158 60 q 163 58 160 58 q 189 69 175 58 q 228 116 210 85 q 264 190 247 147 q 293 283 281 232 q 311 386 306 333 l 311 388 q 313 390 311 389 l 313 393 q 313 394 313 394 q 314 396 314 394 q 315 397 314 397 q 315 399 315 397 q 317 401 317 400 q 321 406 321 406 q 326 408 326 408 q 331 411 331 411 l 333 411 q 335 412 335 411 q 336 413 335 413 l 346 413 q 349 411 347 411 l 351 411 q 354 410 351 410 q 358 407 354 410 l 365 400 l 365 399 q 368 396 365 399 l 368 393 q 369 390 369 390 l 369 388 q 371 383 371 386 l 371 382 q 371 365 371 375 q 369 344 371 356 q 369 276 369 315 q 373 199 369 238 q 385 127 376 161 q 413 75 394 93 q 449 60 428 60 q 500 85 469 60 q 563 153 531 111 q 625 247 594 194 q 676 351 656 299 q 704 371 686 371 q 715 368 707 371 q 732 353 726 364 q 732 331 738 342 q 684 231 715 288 q 614 122 653 174 q 532 35 575 71 q 449 0 489 0 q 392 15 415 0 q 354 52 369 29 q 330 103 339 75 q 317 160 321 132 q 276 78 299 115 q 225 21 253 42 q 185 3 201 6 q 144 0 169 0 q 70 46 94 10 q 36 130 46 82 q 28 231 26 178 q 32 325 29 283 m 142 546 l 206 618 q 207 619 206 619 l 207 621 l 208 621 l 217 626 l 219 626 q 222 628 219 628 l 233 628 q 236 626 235 628 l 239 626 q 242 625 239 625 l 243 624 q 246 621 246 621 l 247 621 l 314 546 q 321 524 321 536 q 311 504 321 513 q 290 496 301 496 q 268 507 276 496 l 228 553 l 186 507 q 164 496 178 496 q 144 504 153 496 q 134 524 135 513 q 142 546 133 536 z "},"":{"ha":643,"x_min":26,"x_max":738,"o":"m 32 325 q 34 356 33 342 q 35 382 35 371 q 44 403 35 394 q 64 413 53 413 q 85 403 76 413 q 94 382 94 394 q 94 354 94 369 q 92 321 93 339 q 88 240 89 283 q 91 158 86 197 q 110 92 96 119 q 156 60 125 65 q 159 59 158 60 q 163 58 160 58 q 189 69 175 58 q 228 116 210 85 q 264 190 247 147 q 293 283 281 232 q 311 386 306 333 l 311 388 q 313 390 311 389 l 313 393 q 313 394 313 394 q 314 396 314 394 q 315 397 314 397 q 315 399 315 397 q 317 401 317 400 q 321 406 321 406 q 326 408 326 408 q 331 411 331 411 l 333 411 q 335 412 335 411 q 336 413 335 413 l 346 413 q 349 411 347 411 l 351 411 q 354 410 351 410 q 358 407 354 410 l 365 400 l 365 399 q 368 396 365 399 l 368 393 q 369 390 369 390 l 369 388 q 371 383 371 386 l 371 382 q 371 365 371 375 q 369 344 371 356 q 369 276 369 315 q 373 199 369 238 q 385 127 376 161 q 413 75 394 93 q 449 60 428 60 q 500 85 469 60 q 563 153 531 111 q 625 247 594 194 q 676 351 656 299 q 704 371 686 371 q 715 368 707 371 q 732 353 726 364 q 732 331 738 342 q 684 231 715 288 q 614 122 653 174 q 532 35 575 71 q 449 0 489 0 q 392 15 415 0 q 354 52 369 29 q 330 103 339 75 q 317 160 321 132 q 276 78 299 115 q 225 21 253 42 q 185 3 201 6 q 144 0 169 0 q 70 46 94 10 q 36 130 46 82 q 28 231 26 178 q 32 325 29 283 m 210 563 q 221 594 210 582 q 249 607 232 607 q 276 594 264 607 q 288 563 288 582 q 276 530 288 543 q 249 517 264 517 q 221 530 232 517 q 210 563 210 543 m 149 607 q 176 594 165 607 q 188 563 188 582 q 176 530 188 543 q 149 517 165 517 q 122 530 133 517 q 110 563 110 543 q 122 594 110 582 q 149 607 133 607 z "},"":{"ha":613,"x_min":25,"x_max":706,"o":"m 685 346 q 701 331 696 342 q 701 308 706 319 q 649 215 682 258 q 574 135 615 172 q 485 65 532 97 q 394 1 439 32 q 375 -12 385 -6 q 356 -25 365 -18 q 326 -179 344 -108 q 275 -282 307 -250 q 242 -305 258 -300 q 214 -310 225 -310 q 175 -299 192 -310 q 149 -274 158 -289 q 134 -242 139 -260 q 129 -210 129 -225 q 142 -149 129 -178 q 179 -92 156 -119 q 234 -40 203 -65 q 300 10 265 -15 q 305 76 303 42 q 310 144 307 110 q 270 72 292 104 q 224 21 249 40 q 184 3 200 6 q 143 0 168 0 q 69 46 93 10 q 35 130 44 82 q 26 231 25 178 q 31 325 28 283 q 33 356 32 342 q 33 382 33 371 q 42 403 33 394 q 63 413 51 413 q 84 403 75 413 q 93 382 93 394 q 92 354 93 369 q 90 321 92 339 q 86 240 88 283 q 90 158 85 197 q 109 92 94 119 q 154 60 124 65 q 158 59 157 60 q 161 58 158 58 q 188 69 174 58 q 227 116 208 85 q 263 190 246 147 q 292 283 279 232 q 310 386 304 333 q 320 405 311 397 q 340 413 329 413 q 363 404 354 413 q 372 383 371 396 q 373 341 372 372 q 373 265 374 310 q 370 165 372 219 q 364 53 368 110 q 449 111 406 81 q 530 176 492 142 q 599 248 568 210 q 646 329 629 286 q 674 349 653 349 q 685 346 676 349 m 289 -72 q 217 -140 244 -107 q 189 -210 189 -174 q 193 -231 190 -221 q 201 -244 196 -237 q 214 -250 206 -250 q 244 -226 231 -250 q 266 -172 257 -203 q 281 -112 275 -142 q 289 -72 288 -83 m 182 496 q 163 504 171 496 q 152 524 153 511 q 160 546 151 536 l 222 618 q 246 628 231 628 q 265 621 258 628 q 276 600 275 613 q 268 579 276 588 l 204 507 q 182 496 196 496 z "},"":{"ha":617,"x_min":29,"x_max":710,"o":"m 689 346 q 705 331 700 342 q 706 308 710 319 q 653 215 686 258 q 578 135 619 172 q 490 65 536 97 q 399 1 443 32 q 379 -12 389 -6 q 360 -25 369 -18 q 330 -179 349 -108 q 279 -282 311 -250 q 246 -305 263 -300 q 218 -310 229 -310 q 179 -299 196 -310 q 153 -274 163 -289 q 138 -242 143 -260 q 133 -210 133 -225 q 147 -149 133 -178 q 183 -92 160 -119 q 238 -40 207 -65 q 304 10 269 -15 q 309 76 307 42 q 314 144 311 110 q 274 72 296 104 q 228 21 253 40 q 188 3 204 6 q 147 0 172 0 q 73 46 97 10 q 39 130 49 82 q 31 231 29 178 q 35 325 32 283 q 37 356 36 342 q 38 382 38 371 q 47 403 38 394 q 67 413 56 413 q 88 403 79 413 q 97 382 97 394 q 97 354 97 369 q 94 321 96 339 q 90 240 92 283 q 94 158 89 197 q 113 92 99 119 q 158 60 128 65 q 162 59 161 60 q 165 58 163 58 q 192 69 178 58 q 231 116 213 85 q 267 190 250 147 q 296 283 283 232 q 314 386 308 333 q 324 405 315 397 q 344 413 333 413 q 367 404 358 413 q 376 383 375 396 q 377 341 376 372 q 377 265 378 310 q 374 165 376 219 q 368 53 372 110 q 453 111 410 81 q 534 176 496 142 q 603 248 572 210 q 650 329 633 286 q 678 349 657 349 q 689 346 681 349 m 293 -72 q 221 -140 249 -107 q 193 -210 193 -174 q 197 -231 194 -221 q 205 -244 200 -237 q 218 -250 210 -250 q 248 -226 235 -250 q 270 -172 261 -203 q 285 -112 279 -142 q 293 -72 292 -83 m 254 517 q 227 530 239 517 q 215 563 215 543 q 227 594 215 582 q 254 607 239 607 q 281 594 269 607 q 293 563 293 582 q 281 530 293 543 q 254 517 269 517 m 154 517 q 127 530 139 517 q 115 563 115 543 q 127 594 115 582 q 154 607 139 607 q 182 594 171 607 q 193 563 193 582 q 182 530 193 543 q 154 517 171 517 z "},"":{"ha":367,"x_min":33,"x_max":461,"o":"m 440 368 q 456 353 451 364 q 457 331 461 342 q 409 231 440 288 q 339 122 378 174 q 257 35 300 71 q 172 0 214 0 q 93 33 126 0 q 57 97 69 58 q 39 178 44 135 q 33 265 33 221 q 35 346 33 310 l 35 382 q 44 403 35 394 q 65 413 53 413 q 86 403 78 413 q 94 382 94 394 l 94 344 q 93 276 93 315 q 97 199 93 238 q 109 127 100 161 q 136 75 118 93 q 172 60 151 60 q 224 85 193 60 q 286 153 254 111 q 349 247 318 194 q 401 351 381 299 q 429 371 408 371 q 440 368 432 371 z "},"":{"ha":1071,"x_min":-1,"x_max":1093,"o":"m -1 483 q 19 658 -1 568 q 83 824 39 749 q 196 947 126 899 q 365 996 265 996 q 469 967 422 996 q 549 883 517 938 q 585 767 581 828 q 564 661 589 707 q 475 572 532 603 q 344 542 418 542 q 323 551 332 542 q 314 572 314 560 q 323 593 314 585 q 344 601 332 601 q 412 610 383 601 q 460 633 440 619 q 492 663 479 647 q 511 690 504 678 q 525 767 529 722 q 497 853 521 813 q 440 915 474 893 q 365 936 406 936 q 238 904 290 936 q 151 823 185 872 q 98 717 117 774 q 70 609 79 660 q 60 523 61 558 q 58 483 58 488 q 60 435 58 472 q 70 350 63 399 q 95 249 78 301 q 142 151 113 196 q 218 76 172 106 q 329 47 264 47 q 439 87 388 47 q 526 197 490 126 q 559 292 549 243 q 567 388 569 342 q 552 477 565 435 q 514 551 539 519 q 508 574 507 561 q 519 593 510 586 q 538 600 529 600 q 561 588 553 600 q 605 510 589 551 q 625 424 621 468 q 746 524 675 486 q 700 594 717 553 q 683 683 683 636 q 703 792 683 742 q 757 878 722 842 q 840 936 792 915 q 949 957 889 957 q 1011 946 985 957 q 1056 916 1038 935 q 1084 873 1075 897 q 1093 824 1093 849 q 1076 756 1093 786 q 1033 706 1060 726 q 972 676 1006 686 q 904 665 939 665 q 883 674 892 665 q 875 696 875 683 q 883 717 875 708 q 904 725 892 725 q 949 731 926 725 q 990 749 972 736 q 1020 780 1008 761 q 1032 824 1032 799 q 1014 872 1032 849 q 949 896 996 896 q 863 881 899 896 q 805 842 828 865 q 769 791 782 818 q 751 740 757 764 q 744 700 746 717 q 743 683 743 683 q 760 605 743 640 q 810 550 778 569 q 943 571 872 571 q 967 570 954 571 q 992 568 979 569 l 997 568 q 1000 567 999 567 q 1004 564 1004 565 q 1007 563 1007 564 q 1008 562 1008 563 q 1010 561 1008 561 q 1010 560 1010 560 q 1011 558 1011 560 q 1013 558 1013 558 q 1014 557 1013 557 l 1014 556 q 1017 551 1015 553 q 1018 549 1017 550 l 1018 546 q 1019 544 1018 544 q 1019 543 1019 544 l 1019 535 q 1018 532 1018 532 l 1018 529 q 1015 524 1018 529 l 1013 521 l 1013 519 l 1008 515 q 1007 515 1007 515 q 1006 514 1007 514 q 875 471 942 471 q 806 485 838 471 q 657 364 708 446 q 613 238 618 304 q 640 117 608 171 q 707 44 667 71 q 794 1 747 17 q 891 -18 840 -14 q 989 -22 942 -22 q 1010 -31 1000 -22 q 1019 -51 1019 -39 q 1011 -73 1019 -64 q 990 -82 1003 -82 l 961 -82 q 839 -71 901 -82 q 721 -33 776 -60 q 624 36 665 -7 q 564 143 582 79 q 460 28 521 68 q 329 -12 399 -12 q 174 33 238 -12 q 72 149 111 78 q 16 309 33 221 q -1 483 -1 397 z "},"":{"ha":674,"x_min":-1,"x_max":768,"o":"m 747 368 q 763 353 758 364 q 764 331 768 342 q 710 223 744 281 q 631 115 676 165 q 533 33 586 65 q 421 0 479 0 q 340 15 381 0 q 274 76 299 31 q 218 20 251 40 q 144 0 185 0 q 38 53 78 0 q -1 192 -1 106 q 11 286 -1 239 q 47 371 24 333 q 101 431 69 408 q 172 454 133 454 q 244 426 215 454 q 290 353 274 397 q 353 426 315 397 q 438 454 390 454 q 497 422 476 454 q 515 358 515 399 q 500 278 515 318 q 459 203 485 238 q 398 146 433 169 q 322 114 363 122 q 365 69 338 79 q 421 60 392 60 q 505 85 463 60 q 585 153 547 111 q 656 247 624 194 q 708 351 688 299 q 736 371 715 371 q 747 368 739 371 m 250 192 l 250 196 q 197 204 224 196 q 147 228 169 213 q 107 267 124 244 q 86 317 90 289 q 66 256 74 289 q 58 192 58 224 q 81 95 58 131 q 144 60 104 60 q 190 72 171 60 q 221 104 208 85 q 240 147 233 124 q 250 192 247 169 m 251 256 q 229 345 247 304 q 183 393 211 386 q 144 348 146 369 q 153 308 142 326 q 194 268 168 281 q 251 256 221 256 m 310 192 l 310 172 q 373 201 346 179 q 418 250 400 222 q 446 307 436 278 q 456 358 456 336 q 449 389 456 378 q 438 394 443 394 q 386 376 410 394 q 346 329 363 358 q 319 264 329 300 q 310 192 310 228 z "},"":{"ha":642,"x_min":-4,"x_max":571,"o":"m 208 426 q 231 422 221 426 q 243 403 240 418 q 239 381 246 392 q 219 368 232 371 q 142 337 174 360 q 90 284 110 314 q 64 219 71 254 q 60 151 57 185 q 74 93 63 122 q 108 40 86 64 q 163 0 129 15 q 243 -15 197 -15 q 340 -3 292 -15 q 426 34 388 8 q 488 102 464 60 q 511 206 511 144 q 494 290 511 254 q 448 353 476 325 q 383 403 419 381 q 306 449 346 426 q 222 496 264 471 q 147 554 181 521 q 93 631 114 588 q 72 735 72 675 q 92 838 72 792 q 147 918 111 885 q 235 969 183 951 q 349 988 286 988 q 431 973 393 988 q 496 932 468 958 q 540 868 524 906 q 556 786 556 831 q 544 715 556 750 q 508 653 532 681 q 450 610 485 626 q 369 593 415 593 q 305 606 329 593 q 267 635 281 619 q 233 726 233 675 q 241 773 233 750 q 264 814 249 796 q 302 843 279 832 q 356 854 325 854 q 377 846 368 854 q 386 825 386 838 q 377 803 386 813 q 356 794 368 794 q 326 788 338 794 q 306 770 314 781 q 296 748 299 760 q 293 726 293 736 q 315 672 293 692 q 369 653 336 653 q 426 665 403 653 q 465 695 450 676 q 488 738 481 714 q 496 786 496 763 q 455 890 496 853 q 349 926 414 926 q 189 876 246 926 q 132 735 132 826 q 149 655 132 689 q 193 594 165 621 q 258 544 221 567 q 335 500 294 522 q 419 451 376 478 q 494 391 461 425 q 549 312 528 357 q 571 206 571 267 q 553 107 571 157 q 498 17 536 57 q 397 -49 460 -24 q 243 -75 335 -75 q 141 -56 185 -75 q 67 -6 97 -37 q 21 65 38 25 q 0 146 4 104 q 6 235 -4 190 q 43 319 17 281 q 110 387 69 358 q 208 426 151 415 m 201 1157 q 222 1165 210 1165 q 244 1156 235 1165 l 285 1108 l 326 1156 q 349 1165 336 1165 q 368 1157 360 1165 q 378 1138 378 1150 q 371 1115 379 1125 l 306 1042 q 304 1040 306 1040 l 301 1038 q 299 1036 300 1038 q 296 1035 297 1036 l 293 1035 q 290 1033 292 1033 l 279 1033 q 278 1034 278 1033 q 276 1035 278 1035 l 274 1035 q 271 1036 274 1036 q 267 1040 267 1040 l 265 1040 l 199 1115 q 192 1138 192 1125 q 201 1157 192 1150 z "},"":{"ha":469,"x_min":-25,"x_max":564,"o":"m 89 164 q 149 176 121 171 q 204 189 178 182 q 194 211 200 200 q 183 233 189 222 q 162 283 172 258 q 145 329 151 307 q 138 372 139 351 q 147 410 138 393 q 156 421 153 418 q 90 329 121 404 q 63 311 83 311 q 51 313 56 311 q 35 329 40 318 q 35 351 31 340 q 158 485 82 472 q 174 486 164 486 q 210 480 193 486 q 238 466 226 474 q 257 451 250 458 q 264 443 264 444 q 272 422 272 435 q 261 401 271 410 q 244 394 254 394 q 235 396 238 394 q 231 394 233 394 q 213 391 224 393 q 200 382 203 389 q 199 360 196 374 q 208 329 201 346 q 222 294 214 313 q 238 260 231 276 q 251 232 244 246 q 263 204 257 218 q 372 240 328 222 q 444 273 415 257 q 486 303 472 289 q 504 329 500 317 q 532 349 511 349 q 543 346 535 349 q 559 331 554 342 q 560 308 564 319 q 522 257 549 281 q 459 213 496 233 q 376 176 422 193 q 279 146 329 160 q 262 53 285 97 q 194 -12 239 10 q 83 -40 139 -40 l 63 -40 q 3 -13 26 -36 q -22 44 -19 10 q 2 115 -25 79 q 89 164 29 151 m 38 47 q 68 19 40 24 q 122 25 94 19 q 171 43 149 31 q 207 77 193 56 q 221 131 221 99 q 100 106 161 117 q 51 81 67 99 q 38 47 36 64 m 93 621 q 113 628 100 628 q 136 618 126 628 l 176 571 l 217 618 q 240 628 226 628 q 260 621 253 628 q 270 600 269 613 q 263 579 271 588 l 199 507 q 196 504 199 506 l 196 503 q 193 501 193 501 q 190 500 192 500 l 185 497 l 182 497 q 179 496 181 496 l 174 496 q 172 497 172 496 q 171 497 172 497 l 168 497 l 163 500 q 160 501 161 500 q 157 503 158 503 l 157 504 l 156 504 q 154 507 156 506 l 90 579 q 83 600 82 588 q 93 621 83 613 z "},"":{"ha":665,"x_min":-1,"x_max":594,"o":"m 561 928 q 567 876 563 921 q 578 763 572 832 q 590 603 585 693 q 594 416 594 514 q 588 218 594 318 q 565 27 581 118 q 520 -140 549 -64 q 449 -267 492 -217 q 285 -344 379 -344 q 151 -317 206 -344 q 75 -239 97 -289 q 68 -150 57 -197 q 115 -67 79 -103 q 207 -11 151 -28 q 135 51 167 8 q 80 156 103 93 q 44 298 57 218 q 32 471 32 378 l 32 479 q 8 487 18 479 q -1 510 -1 494 q 8 532 -1 525 q 32 539 18 539 q 33 649 32 589 q 40 768 35 710 q 71 931 50 882 q 129 981 92 981 q 166 971 144 981 q 203 922 188 961 q 217 875 213 903 q 221 815 221 847 q 213 726 221 774 q 190 633 206 678 q 149 553 174 589 q 92 497 125 517 l 92 471 q 106 296 92 376 q 143 157 119 215 q 200 66 167 99 q 272 33 233 33 q 347 74 314 33 q 406 185 381 115 q 450 344 432 254 q 479 534 468 435 q 496 734 490 633 q 501 924 501 835 q 510 944 501 936 q 529 954 518 953 q 551 947 542 956 q 561 928 560 939 m 132 921 q 120 897 126 915 q 108 841 114 879 q 99 739 103 803 q 93 576 94 675 q 142 681 124 615 q 161 815 161 747 q 160 839 161 822 q 156 872 160 856 q 147 903 153 889 q 132 921 142 918 m 403 -228 q 458 -137 436 -190 q 495 -21 481 -83 q 517 110 510 42 q 528 243 525 178 q 533 369 532 308 q 533 475 533 429 q 508 324 524 399 q 469 184 492 249 q 416 70 446 119 q 347 -4 386 21 q 435 -28 386 -10 q 451 -44 446 -33 q 451 -67 456 -56 q 424 -86 444 -86 q 413 -83 421 -86 q 290 -58 349 -58 q 158 -108 207 -58 q 127 -161 135 -132 q 131 -215 119 -190 q 185 -267 144 -249 q 285 -285 225 -285 q 403 -228 353 -285 m 346 1054 q 319 1067 331 1054 q 307 1099 307 1079 q 319 1131 307 1118 q 346 1144 331 1144 q 374 1131 363 1144 q 385 1099 385 1118 q 374 1067 385 1079 q 346 1054 363 1054 m 246 1054 q 219 1067 231 1054 q 207 1099 207 1079 q 219 1131 207 1118 q 246 1144 231 1144 q 274 1131 263 1144 q 285 1099 285 1118 q 274 1067 285 1079 q 246 1054 263 1054 z "},"":{"ha":447,"x_min":-28,"x_max":540,"o":"m -8 78 q 28 98 -7 78 q 109 156 63 118 q 201 251 156 194 q 271 382 247 307 q 223 374 250 378 q 168 371 196 371 q 131 372 149 371 q 96 379 114 374 q 83 310 96 347 q 56 289 79 289 q 46 290 50 289 q 29 305 35 293 q 26 328 24 317 q 36 394 39 368 q 32 419 33 419 q 44 453 26 442 q 61 458 56 458 q 81 451 71 458 q 118 434 96 439 q 165 429 140 429 q 244 438 206 429 q 303 453 282 446 q 311 454 306 454 q 332 446 324 454 q 342 418 346 435 q 300 296 329 351 q 234 196 271 240 q 158 119 197 151 q 88 65 119 86 q 128 60 107 63 q 171 58 149 58 q 249 67 211 58 q 315 99 288 75 q 364 148 340 118 q 409 212 388 178 q 449 283 431 246 q 481 353 468 319 q 510 372 488 372 q 519 371 517 372 q 535 354 531 365 q 536 332 540 343 q 504 259 524 299 q 461 181 485 219 q 410 109 438 143 q 353 51 382 75 q 265 10 314 21 q 167 -1 215 -1 q 103 2 133 -1 q 51 10 74 6 q 13 18 28 14 q -4 22 -3 22 q -25 49 -22 29 q -8 78 -28 71 m 81 621 q 100 628 88 628 q 122 618 114 628 l 164 571 l 204 618 q 226 628 213 628 q 246 621 239 628 q 256 600 256 613 q 249 579 257 588 l 183 504 q 179 501 181 501 q 176 499 176 499 q 175 499 175 499 q 172 497 172 497 l 169 497 q 167 496 167 496 l 161 496 q 158 497 158 497 l 154 497 l 153 499 q 150 500 150 499 q 147 501 147 500 q 146 502 146 501 q 144 503 146 503 l 78 579 q 70 600 69 588 q 81 621 71 613 z "},"":{"ha":599,"x_min":68,"x_max":528,"o":"m 503 486 q 521 477 514 486 q 528 457 528 468 q 521 435 528 444 q 503 426 514 426 l 93 426 q 75 435 82 426 q 68 457 68 444 q 75 477 68 468 q 93 486 82 486 l 503 486 z "},"":{"ha":710,"x_min":68,"x_max":639,"o":"m 608 486 q 630 477 621 486 q 639 457 639 468 q 630 435 639 444 q 608 426 621 426 l 99 426 q 77 435 86 426 q 68 457 68 444 q 77 477 68 468 q 99 486 86 486 l 608 486 z "},"":{"ha":217,"x_min":68,"x_max":146,"o":"m 119 936 q 146 894 146 926 q 134 862 146 875 q 107 849 122 849 q 80 862 92 849 q 68 894 68 875 q 69 907 68 903 q 72 915 72 913 q 88 945 78 931 q 115 960 97 960 q 122 953 121 960 q 119 936 122 946 z "},"":{"ha":217,"x_min":68,"x_max":146,"o":"m 107 960 q 134 947 122 960 q 146 914 146 933 q 145 908 146 911 q 144 901 144 904 l 140 893 q 126 863 136 878 q 97 849 117 849 q 92 856 93 849 q 94 872 92 863 q 68 914 68 882 q 80 947 68 933 q 107 960 92 960 z "},"":{"ha":217,"x_min":68,"x_max":146,"o":"m 107 44 q 134 32 122 44 q 146 0 146 19 q 145 -6 146 -3 q 144 -12 144 -10 l 140 -21 q 126 -51 136 -36 q 97 -65 117 -65 q 92 -58 93 -65 q 94 -42 92 -51 q 68 0 68 -32 q 80 32 68 19 q 107 44 92 44 z "},"":{"ha":308,"x_min":68,"x_max":238,"o":"m 213 936 q 231 921 224 932 q 238 894 238 910 q 226 862 238 875 q 199 849 215 849 q 172 862 183 849 q 160 894 160 875 q 163 907 160 899 q 165 915 163 910 q 179 945 169 931 q 208 960 189 960 q 214 953 214 960 q 213 936 214 946 m 119 936 q 146 894 146 926 q 134 862 146 875 q 107 849 122 849 q 80 862 92 849 q 68 894 68 875 q 69 907 68 903 q 72 915 72 913 q 88 945 78 931 q 115 960 97 960 q 122 953 121 960 q 119 936 122 946 z "},"":{"ha":308,"x_min":68,"x_max":238,"o":"m 107 960 q 134 947 122 960 q 146 914 146 933 q 145 908 146 911 q 144 901 144 904 l 140 893 q 126 863 136 878 q 97 849 117 849 q 92 856 93 849 q 94 872 92 863 q 68 914 68 882 q 80 947 68 933 q 107 960 92 960 m 199 960 q 226 947 215 960 q 238 914 238 933 q 236 901 238 906 q 233 893 236 899 q 219 863 229 878 q 190 849 210 849 q 184 856 185 849 q 186 872 183 863 q 160 914 160 882 q 172 947 160 933 q 199 960 183 960 z "},"":{"ha":308,"x_min":68,"x_max":238,"o":"m 107 44 q 134 32 122 44 q 146 0 146 19 q 145 -6 146 -3 q 144 -12 144 -10 l 140 -21 q 126 -51 136 -36 q 97 -65 117 -65 q 92 -58 93 -65 q 94 -42 92 -51 q 68 0 68 -32 q 80 32 68 19 q 107 44 92 44 m 199 44 q 226 32 215 44 q 238 0 238 19 q 236 -12 238 -8 q 233 -21 236 -15 q 219 -51 229 -36 q 190 -65 210 -65 q 184 -58 185 -65 q 186 -42 183 -51 q 160 0 160 -32 q 172 32 160 19 q 199 44 183 44 z "},"":{"ha":465,"x_min":68,"x_max":394,"o":"m 68 704 q 77 726 68 717 q 99 735 86 735 l 201 735 l 201 889 q 210 910 201 901 q 231 918 218 918 q 252 910 243 918 q 261 889 261 901 l 261 735 l 364 735 q 385 726 376 735 q 394 704 394 717 q 385 683 394 692 q 364 674 376 674 l 261 674 l 261 29 q 252 8 261 17 q 231 -1 243 -1 q 210 8 218 -1 q 201 29 201 17 l 201 674 l 99 674 q 77 683 86 674 q 68 704 68 692 z "},"":{"ha":268,"x_min":68,"x_max":197,"o":"m 132 382 q 87 403 106 382 q 68 457 68 425 q 87 509 68 488 q 132 531 106 531 q 178 509 160 531 q 197 457 197 488 q 178 403 197 425 q 132 382 160 382 z "},"":{"ha":399,"x_min":68,"x_max":328,"o":"m 107 -44 q 80 -32 92 -44 q 68 0 68 -19 q 80 32 68 19 q 107 44 92 44 q 134 32 122 44 q 146 0 146 19 q 134 -32 146 -19 q 107 -44 122 -44 m 197 -44 q 171 -32 182 -44 q 160 0 160 -19 q 171 32 160 19 q 197 44 182 44 q 225 32 214 44 q 236 0 236 19 q 225 -32 236 -19 q 197 -44 214 -44 m 289 -44 q 262 -32 274 -44 q 250 0 250 -19 q 262 32 250 19 q 289 44 274 44 q 316 32 304 44 q 328 0 328 19 q 316 -32 328 -19 q 289 -44 304 -44 z "},"":{"ha":701,"x_min":68,"x_max":631,"o":"m 68 533 q 77 554 68 546 q 99 563 86 563 l 193 563 q 231 722 201 649 q 313 847 261 794 q 436 930 364 900 q 601 960 508 960 q 622 951 614 960 q 631 929 631 942 q 622 908 631 917 q 601 900 614 900 q 460 875 522 900 q 355 806 399 850 q 286 699 311 761 q 253 563 261 636 l 442 563 q 463 554 454 563 q 472 533 472 546 q 463 512 472 521 q 442 503 454 503 l 249 503 q 252 439 249 471 q 263 375 256 407 l 442 375 q 463 366 454 375 q 472 344 472 357 q 463 323 472 332 q 442 314 454 314 l 278 314 q 321 212 294 263 q 385 121 347 161 q 470 56 422 81 q 578 31 518 31 q 599 22 590 31 q 608 0 608 13 q 599 -21 608 -12 q 578 -29 590 -29 q 447 1 506 -29 q 342 79 388 31 q 265 189 296 128 q 215 314 233 250 l 99 314 q 77 323 86 314 q 68 344 68 332 q 77 366 68 357 q 99 375 86 375 l 201 375 q 190 503 189 440 l 99 503 q 77 512 86 503 q 68 533 68 521 z "},"":{"ha":668,"x_min":68,"x_max":597,"o":"m 568 486 q 589 477 581 486 q 597 457 597 468 q 589 435 597 444 q 568 426 581 426 l 97 426 q 76 435 85 426 q 68 457 68 444 q 76 477 68 468 q 97 486 85 486 l 568 486 z "},"":{"ha":651,"x_min":-8,"x_max":538,"o":"m 476 610 q 497 603 488 611 q 508 585 506 596 q 517 530 510 579 q 529 406 524 481 q 536 241 535 332 q 526 59 538 150 q 490 -115 515 -32 q 415 -254 464 -197 q 218 -344 338 -344 q 85 -317 139 -344 q 10 -239 31 -289 q 2 -150 -8 -197 q 49 -67 13 -103 q 139 -11 85 -28 q 93 22 115 0 q 53 85 71 44 q 22 201 31 135 q 17 341 14 267 q 35 493 21 415 q 73 643 49 571 q 130 778 97 715 q 201 883 163 840 q 365 969 276 969 q 394 967 381 969 q 422 960 407 964 q 489 895 469 944 q 497 774 508 846 q 468 673 489 724 q 416 583 447 622 q 346 518 385 543 q 263 493 307 493 q 242 502 250 493 q 233 524 233 511 q 242 544 233 536 q 263 553 250 553 q 322 574 293 553 q 374 627 350 594 q 415 701 399 660 q 439 782 432 742 q 438 857 444 821 q 404 903 432 893 q 367 908 388 908 q 246 843 303 908 q 153 687 192 783 q 94 484 114 590 q 76 277 74 378 q 108 110 79 176 q 206 33 142 33 q 306 70 265 33 q 373 163 346 107 q 415 285 400 218 q 438 413 431 353 q 447 519 446 474 q 449 579 449 565 q 457 599 449 590 q 476 610 465 608 m 369 -215 q 426 -118 404 -175 q 458 5 447 -61 q 473 140 469 71 q 475 276 476 210 q 449 188 464 231 q 411 107 433 144 q 360 40 389 69 q 296 -7 332 10 q 368 -28 333 -14 q 385 -44 379 -33 q 385 -67 390 -56 q 358 -86 378 -86 q 347 -83 356 -86 q 224 -58 281 -58 q 92 -108 140 -58 q 61 -161 68 -132 q 65 -215 54 -190 q 119 -267 79 -249 q 218 -285 158 -285 q 369 -215 311 -285 z "},"":{"ha":390,"x_min":-1,"x_max":343,"o":"m 246 454 q 310 436 290 454 q 335 403 329 418 q 341 362 343 383 q 331 319 339 340 q 309 278 322 297 q 279 243 296 258 q 201 207 240 207 q 169 215 185 207 q 154 232 158 221 q 156 254 150 243 q 183 272 165 272 q 194 269 186 272 q 203 268 197 268 q 239 288 219 268 q 274 338 263 310 q 279 381 286 367 q 246 394 275 394 q 181 364 214 394 q 121 285 147 333 q 78 177 94 238 q 61 58 61 117 q 58 46 61 51 q 53 19 58 31 q 29 7 47 7 q 8 15 17 7 q -1 36 -1 24 q -1 59 -1 42 q -1 102 -1 76 q 1 160 0 128 q 1 225 1 192 q 2 288 1 257 q 3 343 3 318 q 4 385 4 368 q 4 408 4 403 q 13 430 4 421 q 35 439 22 439 q 56 431 47 439 q 64 410 64 422 q 65 372 65 401 q 63 301 64 343 q 144 411 97 368 q 246 454 192 454 z "},"":{"ha":1921,"x_min":29,"x_max":1996,"o":"m 39 319 q 29 340 29 328 q 38 363 29 353 q 58 371 46 371 q 79 363 71 371 q 101 344 81 363 q 160 299 122 326 q 253 238 199 271 q 376 174 308 204 q 522 119 443 143 q 688 86 600 96 q 715 84 701 85 q 742 83 728 83 q 847 93 796 83 q 943 119 899 103 l 935 124 q 803 238 854 175 q 746 360 753 301 q 745 377 746 365 q 747 404 744 389 q 755 435 749 419 q 774 465 761 451 q 864 501 807 501 q 913 490 890 501 q 955 463 936 479 q 988 425 974 446 q 1013 385 1003 404 q 1038 425 1024 404 q 1070 463 1051 446 q 1111 490 1089 479 q 1160 501 1133 501 q 1250 465 1218 501 q 1269 435 1263 451 q 1278 404 1275 419 q 1280 377 1281 389 q 1279 360 1279 365 q 1219 235 1272 300 q 1081 119 1165 171 q 1176 93 1125 103 q 1282 83 1228 83 q 1309 84 1296 83 q 1336 86 1322 85 q 1503 119 1424 96 q 1649 174 1582 143 q 1771 238 1717 204 q 1864 299 1825 271 q 1924 344 1903 326 q 1944 363 1944 363 q 1965 371 1953 371 q 1988 363 1979 371 q 1996 340 1996 353 q 1986 319 1996 328 q 1833 206 1918 260 q 1656 111 1749 151 q 1468 47 1564 71 q 1279 24 1372 24 q 1011 83 1142 24 q 884 40 951 56 q 743 24 817 24 q 556 48 651 24 q 367 113 460 72 q 191 206 275 153 q 39 319 107 260 m 806 367 q 824 313 808 342 q 866 256 839 285 q 930 199 893 226 q 1013 149 967 172 q 1094 199 1057 172 q 1158 256 1131 226 q 1201 313 1185 285 q 1219 367 1217 342 q 1219 397 1222 381 q 1206 425 1217 414 q 1160 442 1192 442 q 1119 426 1139 442 q 1084 388 1100 410 q 1057 342 1068 365 q 1042 307 1046 319 q 1013 288 1035 285 q 983 307 990 285 q 967 342 979 319 q 940 388 956 365 q 905 426 925 410 q 864 442 885 442 q 818 425 833 442 q 806 397 808 414 q 806 367 803 381 z "},"":{"ha":1911,"x_min":28,"x_max":2001,"o":"m 33 353 q 194 488 89 488 q 266 473 233 488 q 328 433 299 458 q 383 376 357 408 q 436 310 410 344 q 508 221 469 265 q 592 140 546 176 q 698 82 639 104 q 833 60 757 60 q 896 67 865 60 q 957 89 926 75 q 878 156 914 119 q 814 228 842 192 q 769 299 786 265 q 750 360 753 333 q 749 377 749 365 q 751 404 749 389 q 759 435 753 419 q 778 465 765 451 q 868 501 810 501 q 917 491 894 501 q 957 464 939 481 q 990 427 975 447 q 1015 388 1004 407 q 1040 427 1026 407 q 1072 464 1054 447 q 1113 491 1090 481 q 1161 501 1135 501 q 1251 465 1219 501 q 1270 435 1264 451 q 1279 404 1276 419 q 1281 377 1282 389 q 1281 360 1281 365 q 1261 299 1278 333 q 1217 228 1244 265 q 1153 156 1189 192 q 1074 89 1117 119 q 1135 67 1104 75 q 1197 60 1165 60 q 1333 82 1274 60 q 1439 140 1392 104 q 1524 221 1486 176 q 1594 310 1561 265 q 1647 376 1621 344 q 1703 433 1674 408 q 1765 473 1732 458 q 1836 488 1797 488 q 1997 353 1939 488 q 1997 331 2001 342 q 1981 314 1992 319 q 1968 311 1972 311 q 1942 329 1951 311 q 1913 382 1928 363 q 1885 412 1899 401 q 1860 425 1872 422 q 1836 428 1847 428 q 1783 416 1808 428 q 1735 383 1758 404 q 1690 334 1713 363 q 1642 272 1667 306 q 1565 178 1607 226 q 1472 91 1524 131 q 1352 26 1419 51 q 1197 0 1285 0 q 1104 14 1150 0 q 1015 51 1058 28 q 925 14 971 28 q 833 0 879 0 q 678 26 746 0 q 558 91 611 51 q 465 178 506 131 q 389 272 424 226 q 340 334 364 306 q 294 383 317 363 q 247 416 271 404 q 194 428 222 428 q 172 425 185 428 q 144 412 158 422 q 116 382 131 401 q 88 329 101 363 q 61 311 81 311 q 49 314 57 311 q 33 331 38 319 q 33 353 28 342 m 808 367 q 828 315 811 346 q 872 249 844 283 q 937 182 900 215 q 1015 121 974 149 q 1093 182 1057 149 q 1157 249 1129 215 q 1201 315 1185 283 q 1221 367 1218 346 q 1221 397 1224 381 q 1207 425 1218 414 q 1161 442 1193 442 q 1121 426 1140 442 q 1085 388 1101 410 q 1058 342 1069 365 q 1043 307 1047 319 l 1043 306 q 1042 303 1042 304 q 1040 300 1040 301 q 1038 297 1040 300 l 1033 293 q 1029 290 1029 292 q 1026 289 1028 290 l 1024 289 q 1021 288 1022 288 l 1010 288 q 1007 289 1007 288 l 1003 289 l 1000 292 q 999 292 999 292 q 996 293 997 293 q 995 294 996 294 q 994 296 994 294 q 993 297 993 296 q 992 297 993 297 q 990 300 990 300 q 990 301 990 301 q 989 303 989 301 q 988 304 989 304 q 988 306 988 304 q 971 342 982 319 q 944 388 960 365 q 908 426 928 410 q 868 442 889 442 q 822 425 838 442 q 810 397 813 414 q 808 367 807 381 z "}}}
